<svg width="33" height="32" viewBox="0 0 33 32" fill="none" xmlns="http://www.w3.org/2000/svg">
<path opacity="0.4" d="M20.3966 6.6665H23.5569C24.8657 6.6665 25.9262 7.73597 25.9262 9.0558V12.2427C25.9262 13.5626 24.8657 14.632 23.5569 14.632H20.3966C19.0878 14.632 18.0273 13.5626 18.0273 12.2427V9.0558C18.0273 7.73597 19.0878 6.6665 20.3966 6.6665" fill="#717171"/>
<path fill-rule="evenodd" clip-rule="evenodd" d="M9.62857 6.6665H12.7888C14.0976 6.6665 15.1581 7.73597 15.1581 9.0558V12.2427C15.1581 13.5626 14.0976 14.632 12.7888 14.632H9.62857C8.31978 14.632 7.25928 13.5626 7.25928 12.2427V9.0558C7.25928 7.73597 8.31978 6.6665 9.62857 6.6665ZM9.62857 17.3675H12.7888C14.0976 17.3675 15.1581 18.4369 15.1581 19.7568V22.9437C15.1581 24.2626 14.0976 25.333 12.7888 25.333H9.62857C8.31978 25.333 7.25928 24.2626 7.25928 22.9437V19.7568C7.25928 18.4369 8.31978 17.3675 9.62857 17.3675ZM23.5568 17.3675H20.3965C19.0878 17.3675 18.0272 18.4369 18.0272 19.7568V22.9437C18.0272 24.2626 19.0878 25.333 20.3965 25.333H23.5568C24.8656 25.333 25.9261 24.2626 25.9261 22.9437V19.7568C25.9261 18.4369 24.8656 17.3675 23.5568 17.3675Z" fill="#717171"/>
</svg>
