<svg width="17" height="18" viewBox="0 0 17 18" fill="none" xmlns="http://www.w3.org/2000/svg">
<path fill-rule="evenodd" clip-rule="evenodd" d="M2.125 12.7495V7.35693H14.875V12.7927C14.875 15.0161 13.4754 16.3832 11.2361 16.3832H5.75686C3.53856 16.3832 2.125 14.9878 2.125 12.7495ZM5.63762 11.0069C5.31572 11.0218 5.0498 10.7661 5.03581 10.4409C5.03581 10.1151 5.28773 9.84593 5.60963 9.83105C5.92453 9.83105 6.18345 10.0797 6.19044 10.3977C6.20444 10.7243 5.95252 10.9934 5.63762 11.0069ZM8.51392 11.0069C8.19202 11.0218 7.92611 10.7661 7.91211 10.4409C7.91211 10.1151 8.16403 9.84593 8.48593 9.83105C8.80083 9.83105 9.05975 10.0797 9.06675 10.3977C9.08074 10.7243 8.82882 10.9934 8.51392 11.0069ZM11.3694 13.6136C11.0475 13.6065 10.7886 13.3374 10.7886 13.0115C10.7816 12.6857 11.0405 12.4172 11.3624 12.4102H11.3694C11.6983 12.4102 11.9642 12.6793 11.9642 13.0115C11.9642 13.3444 11.6983 13.6136 11.3694 13.6136ZM7.91211 13.0115C7.92611 13.3373 8.19202 13.5931 8.51392 13.5782C8.82882 13.5647 9.08074 13.2956 9.06675 12.9697C9.05975 12.651 8.80083 12.4023 8.48593 12.4023C8.16403 12.4172 7.91211 12.6857 7.91211 13.0115ZM5.0293 13.0115C5.04329 13.3373 5.30921 13.5931 5.63111 13.5782C5.94601 13.5647 6.19793 13.2956 6.18394 12.9697C6.17694 12.651 5.91802 12.4023 5.60312 12.4023C5.28122 12.4172 5.0293 12.6857 5.0293 13.0115ZM10.7956 10.4339C10.7956 10.108 11.0475 9.84595 11.3694 9.83887C11.6843 9.83887 11.9362 10.0932 11.9502 10.4055C11.9572 10.7314 11.7053 11.0005 11.3904 11.0069C11.0685 11.014 10.8026 10.7661 10.7956 10.441V10.4339Z" fill="#6E7883"/>
<path opacity="0.4" d="M2.12793 7.35693C2.13703 6.94114 2.17202 6.11593 2.2378 5.85031C2.57369 4.35643 3.71433 3.40726 5.34482 3.27197H11.6568C13.2733 3.41435 14.428 4.36989 14.7639 5.85031C14.8289 6.10885 14.8639 6.94043 14.873 7.35693H2.12793Z" fill="#6E7883"/>
<path d="M5.88258 5.46805C6.19048 5.46805 6.42141 5.23501 6.42141 4.92263V2.76292C6.42141 2.45055 6.19048 2.2168 5.88258 2.2168C5.57468 2.2168 5.34375 2.45055 5.34375 2.76292V4.92263C5.34375 5.23501 5.57468 5.46805 5.88258 5.46805" fill="#6E7883"/>
<path d="M11.117 5.46805C11.4179 5.46805 11.6558 5.23501 11.6558 4.92263V2.76292C11.6558 2.45055 11.4179 2.2168 11.117 2.2168C10.8091 2.2168 10.5781 2.45055 10.5781 2.76292V4.92263C10.5781 5.23501 10.8091 5.46805 11.117 5.46805" fill="#6E7883"/>
</svg>
