<svg width="18" height="18" viewBox="0 0 18 18" fill="none" xmlns="http://www.w3.org/2000/svg">
<path opacity="0.4" d="M12.2415 2.2168H6.10023C3.69898 2.2168 2.08398 3.90263 2.08398 6.41013V12.1972C2.08398 14.6976 3.69898 16.3835 6.10023 16.3835H12.2415C14.6427 16.3835 16.2507 14.6976 16.2507 12.1972V6.41013C16.2507 3.90263 14.6427 2.2168 12.2415 2.2168" fill="#6E7883"/>
<path d="M8.32641 11.6007C8.16774 11.6007 8.00908 11.5405 7.88795 11.4194L6.20708 9.7385C5.96483 9.49625 5.96483 9.10384 6.20708 8.86229C6.44933 8.62004 6.84104 8.61934 7.08329 8.86159L8.32641 10.1047L11.2504 7.18071C11.4927 6.93846 11.8844 6.93846 12.1266 7.18071C12.3689 7.42296 12.3689 7.81538 12.1266 8.05763L8.76487 11.4194C8.64374 11.5405 8.48508 11.6007 8.32641 11.6007" fill="#6E7883"/>
</svg>
