<svg width="1045" height="1080" viewBox="0 0 1045 1080" fill="none" xmlns="http://www.w3.org/2000/svg">
<rect width="1045" height="1080" fill="#739FE4"/>
<mask id="mask0_179_3142" style="mask-type:alpha" maskUnits="userSpaceOnUse" x="0" y="0" width="1045" height="839">
<rect width="1045" height="839" fill="#739FE4"/>
</mask>
<g mask="url(#mask0_179_3142)">
<path opacity="0.1" d="M253.074 683.253C260.658 705.627 271.33 725.214 284.351 740.657C286.201 742.924 288.091 745.107 290.008 747.25C292.592 750.023 295.239 752.747 297.95 755.424C319.014 775.868 343.682 789.845 367.766 800.036C374.329 802.809 380.916 805.416 387.525 807.856C393.1 809.922 398.68 811.849 404.265 813.638C406.386 814.345 408.507 815.011 410.629 815.718C412.75 816.425 415.184 817.111 417.428 817.798L420.651 818.734C482.96 836.308 546.085 839.657 609.673 835.247L612.692 835.019L617.519 834.644C630.429 833.618 643.352 832.308 656.289 830.713L661.184 830.11L663.347 829.84C670.599 828.911 677.852 827.892 685.104 826.782C694.66 825.396 704.229 823.864 713.811 822.186L715.049 821.978L716.055 821.791C750.256 815.905 784.538 808.834 818.861 801.575L823.716 800.535L832.433 798.684L839.776 797.124L841.952 796.667C853.538 794.185 865.124 791.73 876.71 789.304L878.586 788.909C900.344 784.354 922.225 779.965 944.037 775.972L946.879 775.452C955.809 773.83 964.734 772.284 973.655 770.814L980.454 769.712L989.497 768.318C1014.56 764.512 1039.61 761.476 1064.6 759.583C1076.62 758.668 1088.67 757.975 1100.75 757.503C1110.72 757.157 1120.69 756.956 1130.67 756.9C1144.19 756.803 1157.74 756.921 1171.33 757.254H1174.4C1193.53 757.732 1212.71 758.564 1231.89 759.562L1235.35 759.729H1236.49C1277.29 761.933 1318.08 764.866 1358.77 766.967L1368.71 767.466H1370.15C1384.29 768.159 1398.42 768.693 1412.54 769.067H1416.28H1416.4H1420.94L1427.25 769.192C1433.81 769.289 1440.35 769.344 1446.88 769.358H1454.88C1478.85 769.254 1502.71 768.443 1526.43 766.551L1529.07 766.322C1575.15 762.516 1620.72 754.654 1665.47 740.366C1670.11 738.882 1674.73 737.329 1679.34 735.707C1710.27 725.102 1740.63 710.982 1770.18 693.465C1784.11 685.146 1798.12 675.537 1808.71 659.273C1835.58 617.676 1825.49 536.209 1790.53 512.52C1763.18 493.989 1731.14 509.068 1701.73 500.707C1699.92 500.18 1698.14 499.485 1696.38 498.627C1692.64 496.783 1689.01 494.488 1685.5 491.763C1684.31 490.848 1683.11 489.871 1681.9 488.852C1679.18 486.585 1676.46 484.068 1673.85 481.323C1669.58 476.98 1665.49 472.236 1661.61 467.117C1659.89 464.871 1658.21 462.542 1656.58 460.129C1650.93 452.015 1645.95 442.888 1641.73 432.946C1640.2 429.184 1638.83 425.265 1637.65 421.215C1637.01 419.136 1636.44 416.889 1635.96 414.726C1635.25 411.597 1634.71 408.383 1634.35 405.118C1632.63 389.685 1635.41 374.627 1645.06 361.899C1645.93 360.77 1646.84 359.721 1647.78 358.758C1649.65 356.774 1651.63 355.028 1653.68 353.538C1654.51 352.935 1655.37 352.352 1656.24 351.791C1668.67 343.783 1684.7 340.705 1698.22 335.152C1702.34 333.555 1706.36 331.419 1710.24 328.767C1712.7 327.02 1715.15 325.19 1717.56 323.276L1718.2 322.735C1738.75 306.528 1756.82 283.845 1771.23 256.181C1774.81 249.19 1778.11 241.869 1781.1 234.259C1782.01 231.972 1782.9 229.621 1783.74 227.271C1807.63 161.341 1810.1 76.8578 1785.24 12.0294C1782.22 4.16435 1778.86 -3.38161 1775.17 -10.5575C1773.98 -12.9285 1772.74 -15.2579 1771.46 -17.5457C1747.8 -60.2446 1713.8 -89.1751 1679.48 -110.597C1633.41 -139.341 1585.17 -157.498 1536.01 -169.457C1526.04 -171.883 1516.07 -174.06 1506.1 -175.987C1464.35 -184.14 1422.11 -188.466 1380.17 -191.752C1340.95 -194.789 1301.55 -196.751 1261.97 -197.638C1248.57 -197.916 1235.14 -198.033 1221.71 -197.992C1191.44 -197.992 1161.17 -197.098 1130.9 -195.309C1120.92 -194.727 1110.95 -194.033 1100.98 -193.229C1075.4 -191.205 1049.88 -188.432 1024.41 -184.91C1012.17 -183.218 999.955 -181.353 987.77 -179.315C894.973 -163.799 803.522 -137.49 715.226 -96.5793C705.208 -91.9482 695.235 -87.0952 685.308 -82.0205C648.177 -63.3229 611.69 -41.7551 575.989 -17.4001C572.616 -15.0846 569.253 -12.7551 565.898 -10.4119C543.606 5.22845 521.63 22.082 499.972 40.1488C471.389 63.6743 443.859 90.0769 417.564 119.182C407.302 130.691 397.329 142.698 387.647 155.205C370.531 177.284 354.567 201.372 339.902 227.25C338.597 229.566 337.305 231.895 336.026 234.239C329.39 246.426 323.09 259.051 317.124 272.112C288.023 336.088 268.495 409.256 254.081 484.006C241.366 549.229 232.908 622.46 253.074 683.253Z" fill="#244578"/>
<path d="M362.736 694.813C360.058 706.919 356.29 717.517 351.691 725.872C351.038 727.099 350.371 728.28 349.694 729.439C348.781 730.94 347.847 732.414 346.889 733.862C339.451 744.924 330.74 752.486 322.236 758C319.918 759.501 317.592 760.911 315.258 762.231C313.289 763.349 311.319 764.392 309.347 765.36C308.598 765.742 307.849 766.102 307.1 766.485C306.35 766.868 305.491 767.239 304.698 767.61L303.56 768.117C281.557 777.626 259.266 779.437 236.812 777.052L235.746 776.928L234.041 776.725C229.482 776.17 224.919 775.461 220.35 774.599L218.622 774.272L217.858 774.126C215.297 773.623 212.736 773.072 210.175 772.472C206.8 771.721 203.421 770.893 200.038 769.985L199.601 769.872L199.245 769.771C187.168 766.586 175.062 762.76 162.942 758.833L161.227 758.27L158.149 757.269L155.556 756.425L154.788 756.177C150.696 754.834 146.605 753.506 142.514 752.193L141.851 751.98C134.168 749.515 126.441 747.141 118.739 744.98L117.735 744.699C114.582 743.821 111.43 742.985 108.28 742.189L105.879 741.593L102.685 740.839C93.8352 738.78 84.9898 737.137 76.1636 736.113C71.9186 735.617 67.664 735.242 63.3997 734.987C59.8782 734.8 56.3567 734.691 52.8352 734.661C48.0588 734.608 43.2727 734.672 38.4771 734.852H37.3918C30.6353 735.111 23.8644 735.561 17.0887 736.101L15.8689 736.191H15.4656C1.0594 737.384 -13.3468 738.971 -27.7146 740.108L-31.2249 740.378H-31.7339C-36.728 740.753 -41.7173 741.042 -46.7019 741.244H-48.0224H-48.0657H-49.6696L-51.8977 741.312C-54.2123 741.364 -56.5221 741.394 -58.8271 741.402H-61.6555C-70.1167 741.345 -78.5443 740.906 -86.9191 739.883L-87.8507 739.759C-104.125 737.699 -120.217 733.446 -136.02 725.715C-137.656 724.912 -139.289 724.072 -140.918 723.194C-151.839 717.456 -162.561 709.817 -172.996 700.339C-177.913 695.837 -182.859 690.639 -186.6 681.839C-196.089 659.332 -192.526 615.253 -180.18 602.436C-170.523 592.409 -159.209 600.568 -148.822 596.044C-148.184 595.759 -147.554 595.383 -146.935 594.919C-145.615 593.921 -144.33 592.679 -143.094 591.205C-142.671 590.71 -142.248 590.181 -141.821 589.63C-140.861 588.403 -139.9 587.042 -138.978 585.556C-137.471 583.207 -136.028 580.64 -134.656 577.87C-134.048 576.655 -133.456 575.395 -132.88 574.089C-130.885 569.699 -129.125 564.761 -127.636 559.381C-127.094 557.346 -126.612 555.225 -126.195 553.034C-125.969 551.909 -125.768 550.694 -125.6 549.523C-125.349 547.83 -125.158 546.091 -125.028 544.324C-124.423 535.975 -125.403 527.827 -128.812 520.94C-129.118 520.329 -129.438 519.762 -129.773 519.241C-130.433 518.167 -131.13 517.223 -131.857 516.417C-132.15 516.09 -132.452 515.775 -132.76 515.471C-137.149 511.139 -142.81 509.473 -147.584 506.469C-149.038 505.605 -150.458 504.449 -151.829 503.014C-152.698 502.069 -153.562 501.078 -154.412 500.043L-154.638 499.751C-161.896 490.981 -168.278 478.709 -173.366 463.74C-174.63 459.958 -175.795 455.997 -176.852 451.879C-177.174 450.642 -177.486 449.37 -177.784 448.098C-186.221 412.426 -187.09 366.715 -178.312 331.639C-177.246 327.384 -176.058 323.301 -174.758 319.418C-174.336 318.135 -173.899 316.875 -173.447 315.637C-165.092 292.534 -153.087 276.881 -140.966 265.29C-124.697 249.738 -107.664 239.914 -90.3046 233.444C-86.7831 232.131 -83.2616 230.953 -79.7401 229.91C-64.9977 225.499 -50.0825 223.158 -35.273 221.38C-21.4207 219.737 -7.50746 218.676 6.46654 218.196C11.2014 218.046 15.941 217.982 20.6854 218.004C31.3748 218.004 42.0642 218.488 52.7536 219.456C56.2751 219.771 59.7966 220.146 63.3181 220.581C72.3492 221.677 81.3627 223.177 90.3585 225.083C94.6804 225.998 98.9926 227.007 103.295 228.11C136.065 236.505 168.358 250.74 199.538 272.875C203.076 275.381 206.597 278.006 210.103 280.752C223.215 290.869 236.099 302.538 248.706 315.716C249.897 316.969 251.085 318.229 252.27 319.497C260.142 327.959 267.902 337.078 275.55 346.853C285.643 359.582 295.365 373.868 304.65 389.616C308.274 395.842 311.796 402.339 315.215 409.106C321.259 421.052 326.896 434.085 332.075 448.087C332.536 449.34 332.992 450.6 333.444 451.868C335.787 458.463 338.012 465.293 340.118 472.36C350.395 506.975 357.291 546.564 362.381 587.008C366.871 622.298 369.858 661.92 362.736 694.813Z" fill="#B3D1FF"/>
</g>
<g clip-path="url(#clip0_179_3142)">
<path opacity="0.1" d="M1021.3 627.84C1016.5 637.1 1009.75 645.205 1001.51 651.596C1000.34 652.534 999.141 653.438 997.927 654.324C996.292 655.472 994.616 656.6 992.901 657.707C979.568 666.168 963.955 671.952 948.712 676.169C944.557 677.317 940.389 678.396 936.206 679.406C932.677 680.261 929.145 681.058 925.61 681.798C924.267 682.091 922.925 682.367 921.582 682.659C920.239 682.952 918.699 683.236 917.279 683.52L915.239 683.907C875.801 691.18 835.846 692.566 795.599 690.741L793.689 690.647L790.633 690.492C782.462 690.067 774.282 689.525 766.094 688.865L762.996 688.615L761.627 688.503C757.037 688.119 752.446 687.697 747.856 687.238C741.808 686.664 735.751 686.03 729.686 685.336L728.903 685.25L728.266 685.172C706.619 682.737 684.92 679.81 663.196 676.806L660.123 676.376L654.606 675.61L649.958 674.964L648.581 674.775C641.248 673.748 633.915 672.732 626.581 671.728L625.393 671.565C611.622 669.68 597.773 667.863 583.967 666.211L582.168 665.996C576.516 665.324 570.867 664.685 565.221 664.076L560.917 663.62L555.194 663.043C539.331 661.468 523.476 660.212 507.657 659.428C500.048 659.05 492.422 658.763 484.779 658.568C478.467 658.424 472.155 658.341 465.843 658.318C457.282 658.278 448.703 658.327 440.108 658.464H438.163C426.052 658.662 413.916 659.007 401.772 659.42L399.585 659.489H398.862C373.041 660.401 347.22 661.615 321.467 662.484L315.175 662.691H314.263C305.312 662.978 296.369 663.198 287.435 663.353H285.068H284.99H282.115L278.122 663.405C273.973 663.445 269.833 663.468 265.702 663.474H260.632C245.466 663.431 230.361 663.095 215.35 662.312L213.68 662.217C184.51 660.642 155.668 657.389 127.342 651.475C124.41 650.862 121.483 650.219 118.563 649.548C98.9893 645.159 79.7707 639.316 61.067 632.066C52.2533 628.624 43.388 624.647 36.683 617.916C19.6753 600.702 26.0618 566.988 48.1908 557.184C65.4997 549.515 85.7781 555.756 104.395 552.296C105.539 552.077 106.669 551.79 107.778 551.435C110.145 550.672 112.447 549.722 114.664 548.595C115.421 548.216 116.178 547.811 116.945 547.389C118.666 546.451 120.387 545.41 122.04 544.274C124.742 542.477 127.329 540.513 129.786 538.395C130.877 537.465 131.938 536.501 132.971 535.503C136.545 532.145 139.701 528.368 142.37 524.254C143.342 522.697 144.204 521.075 144.952 519.399C145.357 518.538 145.718 517.609 146.019 516.714C146.469 515.419 146.812 514.089 147.044 512.737C148.128 506.351 146.372 500.119 140.261 494.852C139.714 494.384 139.139 493.95 138.54 493.552C137.356 492.731 136.107 492.008 134.804 491.391C134.279 491.142 133.737 490.901 133.186 490.669C125.319 487.355 115.171 486.081 106.616 483.783C104.009 483.122 101.463 482.238 99.0073 481.14C97.4494 480.417 95.9001 479.66 94.3766 478.868L93.9721 478.644C80.9632 471.937 69.5228 462.55 60.4043 451.102C58.1375 448.208 56.0507 445.179 54.1555 442.03C53.5788 441.083 53.0194 440.11 52.4857 439.138C37.363 411.853 35.8051 376.891 51.5389 350.062C53.4503 346.808 55.5782 343.685 57.9082 340.715C58.6656 339.734 59.4489 338.77 60.258 337.823C75.2344 320.153 96.7522 308.18 118.477 299.315C147.638 287.42 178.167 279.906 209.282 274.957C215.594 273.952 221.906 273.052 228.217 272.254C254.641 268.88 281.375 267.09 307.919 265.73C332.748 264.473 357.686 263.661 382.733 263.294C391.219 263.179 399.715 263.13 408.218 263.148C427.378 263.148 446.537 263.518 465.697 264.258C472.009 264.499 478.321 264.786 484.633 265.119C500.82 265.956 516.975 267.104 533.099 268.562C540.846 269.262 548.575 270.033 556.287 270.877C615.022 277.298 672.905 288.186 728.791 305.116C735.132 307.033 741.443 309.041 747.727 311.141C771.228 318.879 794.322 327.804 816.919 337.883C819.054 338.842 821.183 339.806 823.306 340.775C837.416 347.248 851.325 354.223 865.033 361.699C883.124 371.435 900.549 382.361 917.192 394.406C923.688 399.169 930 404.138 936.128 409.314C946.962 418.451 957.065 428.42 966.348 439.129C967.174 440.087 967.992 441.051 968.801 442.021C973.001 447.065 976.989 452.289 980.765 457.695C999.184 484.17 1011.54 514.45 1020.67 545.384C1028.71 572.376 1034.07 602.682 1021.3 627.84Z" fill="white"/>
<path opacity="0.1" d="M1009.73 535.503H936.197V441.969H968.904C968.095 441 967.277 440.036 966.451 439.077H936.231V409.262C930.115 404.098 923.803 399.129 917.296 394.355V439.112H747.778V340.715H823.357C821.229 339.745 819.1 338.781 816.971 337.823H747.778V311.081C741.466 308.998 735.154 306.99 728.843 305.056V337.763H486.913L486.337 337.212L556.321 270.782C548.609 269.933 540.88 269.161 533.134 268.467L484.667 314.463V265.058C478.355 264.726 472.043 264.439 465.731 264.198V317.639L408.253 263.087C399.755 263.087 391.259 263.136 382.767 263.234L460.713 337.212L460.137 337.763H228.235V272.288C221.923 273.086 215.611 273.987 209.299 274.991V337.823H60.258C59.4489 338.77 58.6656 339.734 57.9082 340.715H209.282V439.077H52.4513C52.9849 440.05 53.5444 441.023 54.1211 441.969H209.282V535.503H132.962C131.93 536.501 130.868 537.465 129.778 538.395H209.282V634.106C215.594 635.007 221.906 635.948 228.217 636.929V538.395H465.714V658.318C472.026 658.318 478.338 658.401 484.65 658.568V538.395H728.825V685.207L729.609 685.293C735.668 685.97 741.725 686.604 747.778 687.195V538.395H917.244V683.477C918.69 683.21 920.136 682.926 921.548 682.616C922.959 682.306 924.233 682.074 925.576 681.755C929.11 681.004 932.642 680.206 936.171 679.363V538.395H1010.3C1010.11 537.431 1009.92 536.467 1009.73 535.503ZM465.714 535.503H228.235V441.969H465.714V535.503ZM465.714 439.103H228.235V340.715H462.349L465.688 343.349L465.714 439.103ZM728.825 535.503H484.667V441.969H728.825V535.503ZM728.825 439.103H484.667V340.715H728.825V439.103ZM917.244 535.503H747.778V441.969H917.244V535.503Z" fill="#41669F"/>
<path d="M282.795 667.562C282.795 667.657 282.727 667.752 282.701 667.846C282.701 667.752 282.761 667.657 282.804 667.562H282.795Z" fill="#EAECF0"/>
<path d="M287.288 663.439H284.921H284.844H281.969L277.975 663.491L277.536 658.955L277.132 654.652L275.255 635.019L275.195 634.416V634.149L274.67 628.624L282.709 625.611L283.69 633.624L283.759 634.218V634.287L285.748 650.555L286.359 655.547L286.712 658.447L287.013 660.935V661.021L287.288 663.439Z" fill="#EAECF0"/>
<path d="M316.148 667.554L316.243 667.838H315.606L315.511 667.554H316.148Z" fill="#3A3768"/>
<path d="M440.814 554.155C440.814 554.327 440.814 554.421 440.814 554.421V554.525C440.814 554.525 433.308 575.036 430.864 592.542C430.697 593.69 430.56 594.838 430.451 595.985C430.33 597.199 430.235 598.387 430.184 599.54C430.115 600.891 430.098 602.2 430.132 603.448C430.132 603.732 430.132 604.024 430.132 604.308C430.132 604.885 430.192 605.479 430.227 606.09C430.261 606.701 430.313 607.312 430.365 607.949C430.416 608.586 430.468 609.146 430.528 609.757C432.379 628.692 439.411 656.416 439.411 656.416C439.411 656.416 439.643 657.165 439.944 658.439H437.999C425.889 658.637 413.753 658.981 401.608 659.394L399.422 659.463H398.699C372.878 660.375 347.056 661.589 321.304 662.458L315.012 662.665H314.099C305.148 662.952 296.205 663.173 287.271 663.328H284.904C285.511 662.471 286.21 661.683 286.987 660.978C287.64 660.372 288.346 659.824 289.096 659.342C293.186 656.792 297.641 654.879 302.308 653.67C303.291 653.401 304.309 653.277 305.329 653.3L311.354 653.421H312.283L321.527 653.601L400.816 655.177H401.014L401.574 655.065C402.494 654.835 403.391 654.518 404.251 654.118C405.74 653.49 407.042 652.488 408.031 651.209C409.02 649.931 409.663 648.418 409.897 646.819C409.897 646.552 409.966 646.268 409.983 645.958C410.009 645.54 410.009 645.12 409.983 644.702C409.983 644.409 409.983 644.099 409.914 643.781C409.845 643.462 409.828 643.144 409.768 642.817C407.857 632.135 404.603 599.256 404.603 599.256V599.359C404.603 599.359 404.603 597.956 404.681 595.598C404.681 595.417 404.681 595.219 404.681 595.021V594.514C404.681 593.988 404.741 593.42 404.776 592.792C404.776 592.422 404.827 592.043 404.853 591.647C404.896 591.071 404.948 590.477 404.999 589.857C404.995 589.82 404.995 589.782 404.999 589.745C405.034 589.355 405.068 588.959 405.103 588.557C405.103 588.557 405.103 588.471 405.103 588.428C406.385 575.733 410.422 555.635 423.178 548.19C429.16 544.687 433.119 543.981 435.727 544.67C439.531 545.668 440.487 549.627 440.693 552.201C440.693 552.373 440.693 552.537 440.693 552.7C440.761 553.182 440.802 553.668 440.814 554.155Z" fill="#3A3768"/>
<path opacity="0.1" d="M282.795 667.562C282.795 667.657 282.727 667.752 282.701 667.846C282.701 667.752 282.761 667.657 282.804 667.562H282.795Z" fill="black"/>
<path opacity="0.1" d="M316.148 667.554L316.243 667.838H315.606L315.511 667.554H316.148Z" fill="black"/>
<path opacity="0.1" d="M440.814 554.155C440.814 554.327 440.814 554.421 440.814 554.421C440.814 554.421 434.625 571.335 431.673 587.55C431.466 588.698 431.277 589.808 431.105 590.881C431.019 591.432 430.941 591.983 430.864 592.534C430.697 593.682 430.56 594.829 430.451 595.977C430.33 597.19 430.236 598.378 430.184 599.531C430.115 600.883 430.098 602.191 430.132 603.439C430.132 603.723 430.132 604.016 430.132 604.3C430.132 604.876 430.192 605.47 430.227 606.081C430.261 606.693 430.313 607.312 430.365 607.941C430.416 608.569 430.468 609.137 430.528 609.748C430.588 610.359 430.649 610.945 430.718 611.547C430.993 613.983 431.337 616.539 431.733 619.138C434.427 636.671 439.411 656.313 439.411 656.313C439.411 656.313 439.66 657.105 439.962 658.43H438.016C425.906 658.628 413.77 658.972 401.625 659.385L399.439 659.454H398.716C372.895 660.367 347.073 661.58 321.321 662.45L315.029 662.656H314.117C305.165 662.943 296.222 663.164 287.288 663.319H284.921H284.844C285.469 662.43 286.191 661.613 286.996 660.883C287.648 660.267 288.357 659.714 289.113 659.231C293.207 656.687 297.661 654.775 302.325 653.558C303.31 653.296 304.327 653.175 305.346 653.197L311.371 653.317H312.301L321.571 653.498L400.92 655.065H401.057C401.057 655.065 401.29 655.065 401.677 654.936C402.606 654.705 403.509 654.379 404.371 653.963C405.828 653.338 407.102 652.354 408.076 651.103C409.049 649.852 409.691 648.376 409.94 646.81C409.94 646.544 410.009 646.26 410.026 645.95C410.052 645.531 410.052 645.112 410.026 644.693C410.026 644.4 410.026 644.091 409.957 643.772C409.888 643.454 409.871 643.075 409.811 642.713C407.9 632.032 404.647 599.153 404.647 599.153C404.647 599.153 404.647 597.75 404.724 595.391C404.724 595.211 404.724 595.013 404.724 594.815V594.307C404.724 593.782 404.784 593.214 404.819 592.586C404.819 592.215 404.87 591.837 404.896 591.441C404.939 590.864 404.991 590.27 405.042 589.65C405.038 589.613 405.038 589.576 405.042 589.539C405.077 589.148 405.111 588.752 405.146 588.351C405.146 588.351 405.146 588.265 405.146 588.222C405.301 586.638 405.507 584.934 405.765 583.152C407.556 570.689 412.031 554.413 423.186 547.863C429.013 544.42 432.912 543.697 435.529 544.291C439.557 545.212 440.512 549.361 440.693 551.977C440.693 552.149 440.693 552.313 440.693 552.476C440.771 553.032 440.811 553.593 440.814 554.155Z" fill="black"/>
<path d="M282.795 667.562C282.795 667.657 282.727 667.752 282.701 667.846C282.701 667.752 282.761 667.657 282.804 667.562H282.795Z" fill="#3A3768"/>
<path d="M316.148 667.554L316.243 667.838H315.606L315.511 667.554H316.148Z" fill="#3A3768"/>
<path d="M438.61 553.423C438.61 553.423 427.378 584.116 427.92 602.484C428.462 620.851 437.233 655.366 437.233 655.366C437.233 655.366 437.612 656.58 438.016 658.516C425.906 658.714 413.77 659.058 401.625 659.472L399.439 659.54H398.716C372.895 660.453 347.073 661.666 321.321 662.536L315.029 662.742H314.117C305.165 663.029 296.222 663.25 287.288 663.405H284.921H284.844H281.969C283.154 661.417 284.768 659.721 286.694 658.439L286.927 658.275C291.025 655.773 295.476 653.902 300.13 652.724C301.115 652.462 302.132 652.34 303.151 652.362L311.104 652.517H312.034L321.613 652.706L398.862 654.247C399.967 654.04 401.041 653.689 402.056 653.206C402.393 653.051 402.721 652.875 403.037 652.681C404.006 652.122 404.878 651.41 405.619 650.572C407.246 648.721 408.33 645.967 407.607 641.965C405.688 631.283 402.443 598.404 402.443 598.404C402.443 598.404 401.892 558.398 421.069 547.166C428.815 542.63 433.17 542.785 435.606 544.584C435.679 544.63 435.748 544.681 435.813 544.738C439.17 547.441 438.61 553.423 438.61 553.423Z" fill="#3A3768"/>
<path d="M129.528 628.735L129.218 631.946L127.342 651.648C124.41 651.034 121.483 650.391 118.563 649.72L120.757 631.808L121.498 625.723L129.528 628.735Z" fill="#EAECF0"/>
<path d="M74.4425 622.366L121.317 522.601L310.132 537.328L327.535 622.366H74.4425Z" fill="#EFC6CD"/>
<path d="M74.4425 631.068V622.366H327.535V635.088L74.4425 631.068Z" fill="#D48A9B"/>
<path d="M145.813 607.794L259.048 610.101C259.299 610.107 259.547 610.052 259.773 609.942C259.998 609.832 260.194 609.669 260.343 609.467C260.492 609.266 260.591 609.031 260.631 608.783C260.671 608.536 260.65 608.282 260.572 608.044L242.918 560.429L166.651 558.975L144.091 605.161C143.965 605.447 143.912 605.76 143.938 606.071C143.963 606.383 144.066 606.683 144.237 606.945C144.408 607.206 144.642 607.421 144.917 607.569C145.192 607.718 145.5 607.795 145.813 607.794Z" fill="#DFE6F5"/>
<path opacity="0.15" d="M145.813 607.794L259.048 610.101C259.299 610.107 259.547 610.052 259.773 609.942C259.998 609.832 260.194 609.669 260.343 609.467C260.492 609.266 260.591 609.031 260.631 608.783C260.671 608.536 260.65 608.282 260.572 608.044L242.918 560.429L166.651 558.975L144.091 605.161C143.965 605.447 143.912 605.76 143.938 606.071C143.963 606.383 144.066 606.683 144.237 606.945C144.408 607.206 144.642 607.421 144.917 607.569C145.192 607.718 145.5 607.795 145.813 607.794Z" fill="black"/>
<path d="M144.9 605.806L259.306 608.216L243.753 561.109C243.502 560.346 243.021 559.679 242.375 559.201C241.729 558.724 240.95 558.458 240.147 558.441L166.625 557.047L144.9 605.806Z" fill="#DFE6F5"/>
<path d="M154.351 595.142L168.062 564.974C168.354 564.337 168.822 563.798 169.411 563.42C170 563.041 170.685 562.84 171.385 562.839H205.46C206.426 562.839 207.352 563.223 208.035 563.906C208.717 564.588 209.101 565.514 209.101 566.48V599.075C209.1 599.569 209 600.057 208.805 600.51C208.611 600.964 208.326 601.373 207.969 601.713C207.612 602.053 207.189 602.318 206.727 602.49C206.265 602.662 205.772 602.739 205.279 602.716L157.484 600.28C156.892 600.25 156.315 600.076 155.806 599.773C155.296 599.469 154.868 599.046 154.559 598.539C154.25 598.033 154.07 597.459 154.034 596.866C153.997 596.274 154.106 595.682 154.351 595.142Z" fill="#4C4C56"/>
<path d="M221.555 591.32L222.141 574.106C222.156 573.417 222.441 572.762 222.933 572.279C223.425 571.797 224.086 571.526 224.775 571.524H234.845C235.464 571.527 236.061 571.748 236.533 572.148C237.006 572.547 237.322 573.1 237.427 573.71L240.388 590.83C240.453 591.207 240.435 591.594 240.335 591.964C240.236 592.334 240.057 592.678 239.811 592.972C239.566 593.266 239.259 593.503 238.913 593.666C238.567 593.83 238.189 593.916 237.806 593.92L224.181 594.04C223.828 594.039 223.479 593.967 223.155 593.829C222.831 593.691 222.538 593.489 222.293 593.235C222.048 592.982 221.857 592.682 221.73 592.353C221.603 592.024 221.544 591.673 221.555 591.32Z" fill="#D1D9EC"/>
<path d="M88.145 479.359L126.111 476.191C126.666 476.118 127.229 476.227 127.717 476.502C128.204 476.777 128.589 477.202 128.814 477.715L164.714 558.975L144.677 603.956C145.305 602.544 145.77 613.527 141.234 604.007L84.1771 484.979C83.4111 483.387 86.3633 479.583 88.145 479.359Z" fill="#4C4C56"/>
<path opacity="0.15" d="M88.145 479.359L126.111 476.191C126.666 476.118 127.229 476.227 127.717 476.502C128.204 476.777 128.589 477.202 128.814 477.715L164.714 558.975L144.677 603.956C145.305 602.544 145.77 613.527 141.234 604.007L84.1771 484.979C83.4111 483.387 86.3633 479.583 88.145 479.359Z" fill="black"/>
<path d="M88.1451 479.359L128.039 474.263C128.594 474.19 129.157 474.299 129.645 474.574C130.132 474.849 130.517 475.274 130.742 475.787L166.651 557.047L144.926 605.806L86.1052 483.051C85.9249 482.679 85.8366 482.269 85.8477 481.856C85.8587 481.443 85.9688 481.038 86.1687 480.677C86.3686 480.315 86.6524 480.006 86.9963 479.777C87.3403 479.548 87.7342 479.404 88.1451 479.359Z" fill="#4C4C56"/>
<path d="M98.1035 485.074L126.946 480.581C127.523 480.49 128.113 480.597 128.621 480.884C129.129 481.172 129.525 481.623 129.743 482.165L159.954 556.065C160.078 556.367 160.137 556.692 160.129 557.018C160.12 557.344 160.043 557.664 159.903 557.959L146.071 586.862C145.883 587.264 145.585 587.604 145.21 587.842C144.836 588.08 144.402 588.207 143.958 588.207C143.514 588.207 143.08 588.08 142.706 587.842C142.331 587.604 142.033 587.264 141.845 586.862L96.1497 488.74C95.9756 488.376 95.8896 487.975 95.8985 487.571C95.9075 487.167 96.0112 486.771 96.2012 486.414C96.3913 486.057 96.6624 485.75 96.9928 485.518C97.3232 485.285 97.7036 485.133 98.1035 485.074Z" fill="#41669F"/>
<path d="M405.851 651.587C405.851 651.587 405.258 652.569 404.388 654.17L404.311 654.316C403.536 655.693 402.589 657.5 401.625 659.48L399.439 659.549H398.716C372.895 660.461 347.073 661.675 321.321 662.544L315.029 662.751H314.117C305.165 663.038 296.222 663.259 287.288 663.414H284.921H284.844H281.969L277.975 663.465C273.827 663.505 269.687 663.528 265.555 663.534H260.632C245.466 663.491 230.361 663.155 215.35 662.372L213.68 662.277C216.632 655.857 221.908 645.33 226.195 641.965C229.509 639.382 253.307 636.516 275.195 634.416L277.502 634.192H277.554L283.665 633.624C292.039 632.858 299.639 632.239 305.062 631.817L305.561 631.774L302.738 622.306L298.65 608.534L299.812 596.967L299.906 596.037H299.777C298.612 596.161 297.433 596.014 296.334 595.607L255.459 594.195H254.719L239.019 593.636C230.602 593.334 224.62 593.111 224.387 593.068C224.14 593.026 223.898 592.96 223.664 592.87C223.298 592.73 222.96 592.526 222.666 592.267C222.323 591.974 222.032 591.625 221.805 591.234H221.633H221.254L219.034 591.38L217.906 591.458C217.863 591.337 217.829 591.217 217.786 591.105C217.682 590.769 217.579 590.451 217.484 590.124H216.89L209.144 589.96H209.006C209.006 589.96 189.021 591.484 178.58 587.679C174.75 586.285 172.202 584.176 172.4 581.018C172.444 580.299 172.595 579.591 172.848 578.917C169.491 572.643 185.888 561.195 198.385 564.354C201.762 565.32 205.32 565.467 208.765 564.784C210.635 564.38 212.396 563.579 213.93 562.435C214.085 562.323 214.222 562.211 214.351 562.099C214.145 561.97 213.93 561.858 213.732 561.755C212.875 561.304 211.955 560.985 211.003 560.808L214.394 559.818H214.446C214.446 559.818 226.496 558.716 234.337 558.277H234.389C236.721 558.157 238.692 558.08 239.863 558.114C245.027 558.26 255.089 554.568 255.519 553.432C255.95 552.296 260.546 553.432 260.546 553.432L264.565 551.865C268.585 550.307 270.883 548.181 270.883 546.615C270.883 545.048 274.472 543.353 274.472 543.353C276.09 540.633 279.266 537.715 282.597 535.133C285.481 532.904 288.476 530.915 290.697 529.53C291.557 523.954 292.707 518.426 294.139 512.97C295.663 507.883 300.388 504.113 302.084 502.891L302.704 502.477C302.228 500.334 301.595 498.228 300.81 496.177C300.753 496.005 300.684 495.833 300.603 495.661C300.431 495.256 300.251 494.86 300.07 494.49L299.803 493.974C299.364 494.06 298.942 494.137 298.477 494.197C297.052 494.406 295.614 494.513 294.174 494.516C287.72 494.54 281.436 492.449 276.283 488.563C271.13 484.677 267.392 479.21 265.641 472.998C265.641 472.998 265.641 472.998 265.641 472.946C264.951 470.422 264.603 467.817 264.608 465.2C264.604 462.689 264.934 460.188 265.59 457.763C265.719 457.247 265.874 456.739 266.037 456.231C266.053 456.173 266.074 456.115 266.097 456.059C266.175 455.827 266.252 455.586 266.338 455.353C265.064 455.547 263.779 455.659 262.491 455.689H261.63C259.173 455.781 256.722 455.374 254.426 454.493C253.87 454.256 253.337 453.968 252.834 453.632C252.808 453.62 252.784 453.602 252.765 453.58C252.111 453.198 251.514 452.726 250.992 452.177C251.95 451.444 252.753 450.527 253.354 449.481C253.955 448.435 254.343 447.28 254.495 446.084C254.727 444.224 254.418 442.15 255.528 440.635C256.096 439.951 256.778 439.369 257.542 438.914C262.121 435.789 265.753 431.503 269.893 427.811C274.033 424.118 279.043 420.925 284.611 420.753C292.082 420.52 298.658 425.719 306.06 426.7C308.333 427.002 310.665 426.898 312.886 427.466C315.374 428.244 317.716 429.431 319.815 430.978C321.71 432.056 323.386 433.481 324.755 435.178C325.706 436.65 326.388 438.279 326.769 439.99C327.728 443.594 328.305 447.29 328.491 451.015C328.688 454.914 328.491 458.839 328.904 462.713C329.196 466.077 330.333 469.312 332.209 472.12H332.321C332.648 472.579 333.004 473.016 333.388 473.428C332.656 473.661 331.925 473.867 331.176 474.048C329.931 474.367 328.67 474.617 327.397 474.797C326.814 474.893 326.224 474.942 325.633 474.943C325.223 474.954 324.812 474.916 324.411 474.831L325.168 475.339L327.268 476.751L328.06 477.276L329.652 478.334C330.014 477.276 330.513 476.992 331.09 477.061C332.26 475.959 334.008 478.343 334.008 478.343C335.032 480.306 337.786 482.259 340.222 483.705C341.654 484.548 343.128 485.318 344.637 486.012C376.802 505.18 374.762 533.859 376.656 536.131C378.55 538.404 378.67 546.632 378.67 546.632C378.67 546.632 383.413 574.597 385.556 577.015C387.699 579.434 385.694 580.277 387.561 582.98C389.429 585.683 388.999 592.913 388.999 592.913C388.999 592.913 390.29 609.946 394.886 613.639C399.009 616.952 404.517 644.831 405.61 650.529L405.851 651.587Z" fill="url(#paint0_linear_179_3142)"/>
<path d="M217.329 561.867C217.329 561.867 212.862 568.899 200.21 565.662C187.557 562.426 170.816 574.665 175.593 580.708C180.37 586.75 211.175 578.986 211.175 578.986L222.993 576.593L222.218 566.756L217.329 561.867Z" fill="#D38884"/>
<path opacity="0.1" d="M217.329 561.867C217.329 561.867 212.862 568.899 200.21 565.662C187.557 562.426 170.816 574.665 175.593 580.708C180.37 586.75 211.175 578.986 211.175 578.986L222.993 576.593L222.218 566.756L217.329 561.867Z" fill="black"/>
<path d="M221.444 561.488L215.961 561.204L212.587 562.185C212.587 562.185 223.277 563.734 220.333 578.22L231.858 577.523L221.444 561.488Z" fill="#A36468"/>
<path opacity="0.1" d="M221.444 561.488L215.961 561.204L212.587 562.185C212.587 562.185 223.277 563.734 220.333 578.22L231.858 577.523L221.444 561.488Z" fill="black"/>
<path d="M294.019 529.091C294.019 529.091 278.974 537.698 274.748 544.85C274.748 544.85 271.236 546.572 271.236 548.087C271.236 549.601 268.981 551.736 265.047 553.251L261.105 554.8C261.105 554.8 256.604 553.673 256.182 554.8C255.76 555.928 245.922 559.577 240.853 559.439C235.783 559.302 215.961 561.161 215.961 561.161C219.591 562.809 222.555 565.639 224.369 569.19C226.182 572.74 226.738 576.801 225.945 580.708L272.785 578.745L290.499 574.803L300.913 564.397L294.019 529.091Z" fill="#444053"/>
<path opacity="0.1" d="M294.019 529.091C294.019 529.091 278.974 537.698 274.748 544.85C274.748 544.85 271.236 546.572 271.236 548.087C271.236 549.601 268.981 551.736 265.047 553.251L261.105 554.8C261.105 554.8 256.604 553.673 256.182 554.8C255.76 555.928 245.922 559.577 240.853 559.439C235.783 559.302 215.961 561.161 215.961 561.161C219.591 562.809 222.555 565.639 224.369 569.19C226.182 572.74 226.738 576.801 225.945 580.708L272.785 578.745L290.499 574.803L300.913 564.397L294.019 529.091Z" fill="black"/>
<path d="M224.998 591.32L218.371 591.191L210.624 591.028C210.624 591.028 174.044 593.842 174.759 582.145C175.473 570.448 203.61 566.342 207.526 569.699C210.495 572.238 217.364 574.287 220.497 575.122C221.495 575.389 222.106 575.535 222.106 575.535L224.998 591.32Z" fill="#D38884"/>
<path opacity="0.1" d="M224.998 591.32L218.371 591.191C215.729 582.111 218.793 577.11 220.531 575.147C221.53 575.414 222.141 575.561 222.141 575.561L224.998 591.32Z" fill="black"/>
<path d="M229.466 591.819L222.58 592.301L219.309 592.525C214.808 579.305 222.081 574.097 222.081 574.097H224.232L227.753 574.519L229.466 591.819Z" fill="#A36468"/>
<path d="M312.869 504.061L304.709 519.554C304.709 519.554 303.461 503.863 299.829 496.47C298.899 494.576 297.815 493.233 296.55 492.829C293.107 491.744 312.903 470.046 312.903 470.046C313.566 470.184 317.353 472.628 321.992 475.787C327.096 479.23 333.242 483.43 337.373 486.115C345.214 491.116 312.869 504.061 312.869 504.061Z" fill="#D38884"/>
<path d="M302.402 504.354C302.402 504.354 295.844 508.563 294.019 514.751C292.194 520.94 290.499 532.052 290.499 532.052C290.499 532.052 293.459 558.63 295 559.896C296.541 561.161 302.402 587.74 302.402 587.74L308.083 583.944L300.629 550.471C300.629 550.471 305.587 507.461 302.402 504.354Z" fill="#444053"/>
<path opacity="0.1" d="M302.402 504.354C302.402 504.354 295.844 508.563 294.019 514.751C292.194 520.94 290.499 532.052 290.499 532.052C290.499 532.052 293.459 558.63 295 559.896C296.541 561.161 302.402 587.74 302.402 587.74L308.083 583.944L300.629 550.471C300.629 550.471 305.587 507.461 302.402 504.354Z" fill="black"/>
<path d="M330.944 563.648H298.159L303.47 511.928H330.944V563.648Z" fill="#A36468"/>
<path d="M254.986 667.562H255.382L254.641 667.846L254.986 667.562Z" fill="#67647E"/>
<path d="M316.664 644.004L310.252 646.466L309.391 646.785L286.307 655.659L277.502 659.041L265.521 663.646H260.632C245.466 663.603 230.361 663.267 215.35 662.484C218.259 656.106 223.346 645.898 227.494 642.602C230.731 640.019 253.884 637.231 275.255 635.131C277.924 634.872 280.557 634.623 283.122 634.39L283.733 634.33C292.22 633.555 299.898 632.927 305.251 632.497L306.112 632.428L312.843 631.911L313.549 631.206L314.409 634.89L315.124 637.833L316.664 644.004Z" fill="#67647E"/>
<path opacity="0.1" d="M254.986 667.562H255.382L254.641 667.846L254.986 667.562Z" fill="black"/>
<path opacity="0.1" d="M316.664 644.004L310.252 646.466L309.391 646.785L286.307 655.659L277.502 659.041L265.521 663.646H260.632C245.466 663.603 230.361 663.267 215.35 662.484C218.259 656.106 223.346 645.898 227.494 642.602C230.731 640.019 253.884 637.231 275.255 635.131C277.924 634.872 280.557 634.623 283.122 634.39L283.733 634.33C292.22 633.555 299.898 632.927 305.251 632.497L306.112 632.428L312.843 631.911L313.549 631.206L314.409 634.89L315.124 637.833L316.664 644.004Z" fill="black"/>
<path d="M254.986 667.562H255.382L254.641 667.846L254.986 667.562Z" fill="#67647E"/>
<path d="M282.795 667.562C282.795 667.657 282.727 667.752 282.701 667.846C282.701 667.752 282.761 667.657 282.804 667.562H282.795Z" fill="#67647E"/>
<path d="M316.243 667.838H315.606L315.511 667.554H316.148L316.243 667.838Z" fill="#67647E"/>
<path d="M322.147 635.01L321.613 652.724V653.679V653.774L321.347 662.544L315.055 662.751H314.142C305.191 663.038 296.248 663.259 287.314 663.414H284.947H284.87H281.995L278.001 663.465C273.852 663.505 269.712 663.528 265.581 663.534H260.632C265.108 660.763 270.9 657.707 277.132 654.652C279.929 653.274 282.83 651.906 285.739 650.555C293.485 646.957 301.326 643.557 307.721 640.846L308.539 640.501C311.018 639.451 313.264 638.513 315.184 637.721C319.332 636 321.966 634.967 322.147 634.898V635.01Z" fill="#67647E"/>
<path opacity="0.1" d="M264.66 562.211C266.27 565.568 267.931 568.993 270.59 571.61C271.012 572.023 271.744 572.402 272.122 571.946C272.241 571.755 272.299 571.533 272.286 571.309C272.204 569.727 271.666 568.202 270.737 566.919C269.876 565.594 268.86 564.389 268.094 563.011C267.328 561.634 266.45 558.983 264.729 558.622C262.517 558.157 264.169 561.195 264.66 562.211Z" fill="black"/>
<path opacity="0.1" d="M321.958 475.761C321.837 476.191 321.708 476.622 321.57 477.035C319.982 481.901 317.134 486.26 313.315 489.669C309.497 493.078 304.843 495.416 299.829 496.444C298.899 494.55 297.815 493.208 296.55 492.803C293.107 491.719 312.903 470.02 312.903 470.02C313.531 470.158 317.319 472.645 321.958 475.761Z" fill="black"/>
<path d="M322.991 467.49C322.991 473.22 321.291 478.821 318.108 483.585C314.925 488.35 310.4 492.063 305.106 494.256C299.812 496.449 293.987 497.022 288.367 495.904C282.747 494.787 277.585 492.027 273.533 487.976C269.481 483.924 266.722 478.762 265.604 473.142C264.486 467.522 265.06 461.696 267.253 456.403C269.446 451.109 273.159 446.584 277.923 443.401C282.688 440.217 288.289 438.518 294.019 438.518C297.826 438.51 301.597 439.254 305.115 440.707C308.634 442.16 311.831 444.294 314.523 446.986C317.215 449.678 319.348 452.875 320.801 456.393C322.255 459.912 322.999 463.683 322.991 467.49Z" fill="#D38884"/>
<path d="M305.131 510.525C305.131 510.525 299.106 517.841 300.07 522.627H307.377L312.722 516.602L305.131 510.525Z" fill="#67647E"/>
<path opacity="0.1" d="M326.562 479.634L303.581 511.231C303.581 511.231 309.486 519.675 312.3 520.096C315.115 520.518 331.167 482.724 331.167 482.724L326.562 479.634Z" fill="black"/>
<path d="M326.855 479.066L303.866 510.706C303.866 510.706 309.77 519.141 312.585 519.563C315.399 519.984 331.451 482.199 331.451 482.199L326.855 479.066Z" fill="#A36468"/>
<path d="M300.913 519.537C300.913 519.537 299.786 537.25 298.658 540.771C297.531 544.291 298.658 576.628 298.658 576.628L309.211 572.273L307.377 522.627L300.913 519.537Z" fill="#67647E"/>
<path opacity="0.1" d="M316.148 667.554L316.243 667.838H315.606L315.511 667.554H316.148Z" fill="black"/>
<path opacity="0.1" d="M402.598 652.302C402.598 652.302 402.4 652.629 402.073 653.163C401.746 653.696 401.393 654.359 400.937 655.202C400.914 655.235 400.893 655.269 400.877 655.306C400.24 656.485 399.482 657.931 398.716 659.506C372.895 660.418 347.073 661.632 321.321 662.501L315.029 662.708H314.117L311.414 653.584V653.49L311.13 652.526L309.409 646.793L307.687 640.966L305.905 634.752L305.251 632.497L305.079 631.929L302.273 622.375L298.469 609.404L299.7 597.027L299.786 596.089L300.896 585.003L301.051 581.715L301.137 579.993V579.503L301.326 575.509L301.895 563.631L302.187 557.554L302.239 556.634L302.824 544.437L304.485 539.454L305.346 536.975L307.257 531.217L307.67 529.797C308.272 527.636 309.486 523.367 310.622 519.261L310.725 518.908L310.803 518.642L311.612 515.724L312.619 511.98C312.998 510.542 313.247 509.518 313.308 509.165C313.402 508.554 315.029 505.851 317.164 502.28C321.467 495.161 327.94 484.687 328.68 481.175C328.683 481.146 328.683 481.117 328.68 481.089C328.724 480.875 328.785 480.665 328.861 480.46C329.214 479.41 329.721 479.126 330.255 479.195C330.498 479.234 330.73 479.325 330.935 479.462C331.454 479.812 331.908 480.248 332.278 480.753C333.285 482.69 335.979 484.626 338.363 486.064L338.828 486.331L339.103 486.494C341.083 487.622 342.684 488.345 342.684 488.345C374.186 507.332 372.223 535.744 374.048 537.991C375.873 540.237 376.019 548.405 376.019 548.405C376.019 548.405 380.658 576.111 382.767 578.53C384.876 580.949 382.913 581.766 384.738 584.443C386.563 587.12 386.141 594.195 386.141 594.195C386.141 594.195 387.406 611.065 391.908 614.723C396.409 618.381 402.598 652.302 402.598 652.302Z" fill="black"/>
<path d="M403.441 652.026L403.063 652.68C402.761 653.214 402.279 654.058 401.703 655.116L401.643 655.237C400.988 656.45 400.214 657.922 399.448 659.54H398.725C372.903 660.453 347.082 661.666 321.329 662.536L315.038 662.742L312.344 653.584V653.49L312.06 652.526L310.278 646.501L308.556 640.648L306.835 634.803L306.155 632.462L303.211 622.409L299.321 609.163L300.397 598.395L300.543 596.958L301.731 584.727L302.187 575.19L302.747 563.666L302.893 560.644L303.056 557.15L303.125 555.678L303.685 544.162L305.346 539.187L306.06 537.044L307.73 532.009L308.083 530.941C308.083 530.941 309.693 525.286 311.25 519.683C311.311 519.477 311.371 519.27 311.423 519.063C311.56 518.581 311.689 518.099 311.827 517.626C311.965 517.144 312.094 516.671 312.214 516.197C312.653 514.631 313.075 513.168 313.368 511.963C313.79 510.387 314.074 509.243 314.134 508.873C314.229 508.261 315.855 505.481 318.067 501.866C322.138 495.136 328.077 485.513 329.334 481.519C329.402 481.313 329.459 481.103 329.506 480.891C329.583 480.256 329.843 479.658 330.255 479.169C331.408 478.059 333.121 480.443 333.121 480.443C334.128 482.38 336.822 484.325 339.206 485.754C340.599 486.59 342.036 487.352 343.51 488.035C375.012 507.022 373.05 535.434 374.874 537.689C376.699 539.944 376.845 548.095 376.845 548.095C376.845 548.095 381.485 575.802 383.593 578.22C385.702 580.639 383.74 581.456 385.564 584.125C387.389 586.793 386.967 593.971 386.967 593.971C386.967 593.971 388.233 610.85 392.734 614.508C397.236 618.166 403.441 652.026 403.441 652.026Z" fill="#444053"/>
<path opacity="0.1" d="M339.206 486.305C336.116 490.798 331.081 498.699 329.739 504.38C329.739 504.38 324.815 509.449 322.982 509.165C321.149 508.881 324.703 512.961 324.703 512.961L305.363 539.764L308.109 531.527C308.109 531.527 313.876 511.274 314.134 509.449C314.392 507.625 328.396 486.718 329.506 481.459C330.367 477.25 333.121 481.037 333.121 481.037C334.12 482.931 336.814 484.885 339.206 486.305Z" fill="black"/>
<path d="M339.206 485.745C336.116 490.23 331.081 498.14 329.739 503.777C329.739 503.777 324.815 508.838 322.982 508.563C321.149 508.287 324.703 512.358 324.703 512.358L305.363 539.161L308.109 530.924C308.109 530.924 313.876 510.671 314.134 508.838C314.392 507.005 328.396 486.115 329.506 480.856C330.367 476.639 333.121 480.435 333.121 480.435C334.12 482.371 336.814 484.308 339.206 485.745Z" fill="#444053"/>
<path opacity="0.1" d="M365.183 541.278C365.329 547.424 356.326 555.816 355.904 556.306C355.482 556.797 327.914 579.546 327.914 579.546L308.117 594.729C305.886 596.568 303.218 597.802 300.371 598.309L301.722 584.727L303.056 557.184C306.146 553.742 309.142 550.127 309.211 548.973C309.348 546.589 314.375 544.05 314.375 544.05C314.375 544.05 317.895 541.098 317.327 539.411C316.759 537.724 319.195 529.642 319.195 529.642C320.46 506.712 344.087 504.466 344.087 504.466C344.087 504.466 355.482 508.967 363.496 513.744C371.509 518.521 365.045 535.142 365.183 541.278Z" fill="black"/>
<path opacity="0.1" d="M229.466 591.819L222.58 592.301C219.671 587.352 223.673 574.097 223.673 574.097H224.232L227.753 574.519L229.466 591.819Z" fill="black"/>
<path d="M344.087 503.071C344.087 503.071 320.46 505.326 319.195 528.247C319.195 528.247 316.802 536.269 317.361 537.956C317.921 539.643 314.409 542.595 314.409 542.595C314.409 542.595 309.348 545.126 309.245 547.519C309.142 549.911 296.334 562.96 296.334 562.96C296.334 562.96 290.998 569.036 278.621 569.673C266.244 570.31 260.477 574.097 260.477 574.097C260.477 574.097 254.452 569.88 250.062 571.145C245.673 572.41 224.327 574.097 224.327 574.097C224.327 574.097 218.655 592.895 225.73 594.075C226.591 594.212 296.222 596.605 296.222 596.605C296.222 596.605 300.982 598.851 308.152 593.369C315.322 587.886 327.948 578.177 327.948 578.177C327.948 578.177 355.491 555.394 355.939 554.938C356.386 554.482 365.406 546.047 365.217 539.91C365.028 533.773 371.552 517.17 363.496 512.367C355.439 507.564 344.087 503.071 344.087 503.071Z" fill="#444053"/>
<path opacity="0.1" d="M322.991 467.489C322.993 470.538 322.514 473.568 321.57 476.467C321.178 476.004 320.822 475.512 320.503 474.995C319.16 472.929 317.815 470.863 316.466 468.798C315.419 466.939 314.025 465.297 312.361 463.961C310.639 462.738 308.195 462.239 306.336 463.324C304.7 464.288 303.9 466.259 303.754 468.152C303.704 470.053 303.752 471.955 303.9 473.85C303.969 474.576 303.783 475.303 303.375 475.907C302.764 476.455 301.975 476.761 301.154 476.768L298.572 477.121C298.339 477.203 298.092 477.237 297.845 477.222C297.598 477.207 297.357 477.143 297.135 477.033C296.914 476.923 296.717 476.77 296.556 476.582C296.394 476.395 296.272 476.177 296.197 475.942C294.053 472.06 292.573 467.24 288.553 465.372C286.075 464.219 282.804 464.296 281.212 462.076C280.127 460.561 280.273 458.504 280.592 456.662C280.942 454.585 281.446 452.536 282.098 450.533C282.554 449.122 283.57 446.307 281.315 446.023C279.783 445.825 277.665 447.452 276.891 448.605C276.116 449.759 275.927 451.299 275.376 452.616C274.32 454.883 272.421 456.646 270.083 457.531C268.912 458.012 267.686 458.344 266.433 458.521C268.55 451.947 272.946 446.345 278.828 442.726C284.71 439.106 291.692 437.707 298.515 438.781C305.337 439.855 311.552 443.331 316.038 448.582C320.524 453.833 322.987 460.514 322.982 467.421L322.991 467.489Z" fill="black"/>
<path d="M276.899 447.874C276.116 449.07 275.935 450.559 275.385 451.876C274.33 454.14 272.434 455.903 270.1 456.791C267.78 457.659 265.321 458.097 262.844 458.082C258.833 458.202 254.357 457.591 251.775 454.519C252.717 453.79 253.505 452.882 254.096 451.849C254.687 450.815 255.068 449.675 255.218 448.494C255.442 446.652 255.141 444.595 256.234 443.088C256.791 442.429 257.454 441.868 258.196 441.427C262.689 438.329 266.235 434.077 270.298 430.427C274.36 426.778 279.258 423.602 284.715 423.43C292.022 423.206 298.486 428.353 305.716 429.325C307.937 429.627 310.226 429.523 312.395 430.083C314.836 430.841 317.132 432.005 319.186 433.526C321.045 434.603 322.688 436.015 324.032 437.692C324.96 439.155 325.627 440.768 326.003 442.46C326.954 446.031 327.531 449.692 327.725 453.382C327.923 457.238 327.725 461.129 328.138 464.968C328.551 468.806 329.773 472.714 332.398 475.554C330.483 476.16 328.523 476.611 326.537 476.906C325.294 477.2 323.991 477.098 322.81 476.613C321.853 476.005 321.071 475.16 320.538 474.16L316.501 467.963C315.453 466.104 314.059 464.462 312.395 463.126C310.674 461.903 308.229 461.404 306.37 462.489C304.735 463.453 303.943 465.424 303.788 467.317C303.738 469.218 303.787 471.12 303.934 473.015C304.003 473.741 303.818 474.468 303.409 475.072C302.796 475.621 302.003 475.927 301.18 475.933L298.598 476.286C298.365 476.368 298.117 476.402 297.871 476.387C297.624 476.372 297.383 476.308 297.161 476.198C296.94 476.088 296.743 475.935 296.581 475.747C296.42 475.56 296.298 475.342 296.222 475.107C294.079 471.216 292.599 466.405 288.579 464.537C286.1 463.384 282.83 463.461 281.237 461.241C280.153 459.726 280.299 457.669 280.618 455.827C280.968 453.75 281.472 451.701 282.124 449.699C282.58 448.287 283.596 445.472 281.341 445.18C279.791 445.016 277.674 446.643 276.899 447.874Z" fill="#444053"/>
<path opacity="0.1" d="M342.434 515.93C344.612 515.629 346.901 515.431 348.941 516.266C343.63 514.088 334.989 514.923 330.152 517.919C330.591 518.926 340.747 516.163 342.434 515.93Z" fill="black"/>
<path opacity="0.1" d="M344.973 522.988C350.267 523.341 355.732 524.081 360.75 522.36C356.55 520.914 351.928 521.826 347.504 521.387C343.975 521.034 340.386 519.812 336.943 520.707C335.505 521.077 330.212 523.513 330.573 525.295C335.093 523.295 340.055 522.5 344.973 522.988Z" fill="black"/>
<path opacity="0.1" d="M330.952 534.556C332.06 534.439 333.18 534.557 334.24 534.901C338.211 535.835 342.28 536.283 346.359 536.235C349.475 536.235 352.831 535.761 355.104 533.652L330.952 534.556Z" fill="black"/>
<path opacity="0.1" d="M313.901 561.488C317.603 563.188 321.673 563.928 325.736 563.64C329.782 563.342 333.78 562.573 337.649 561.35C339.37 560.842 341.246 560.205 342.253 558.708L313.901 561.488Z" fill="black"/>
<path opacity="0.1" d="M352.005 565.275C360.059 569.881 369.027 572.658 378.274 573.409C373.609 571.538 368.91 569.768 364.176 568.098C359.333 566.402 354.37 565.072 349.328 564.122C350.287 564.329 351.196 564.72 352.005 565.275Z" fill="black"/>
<path opacity="0.1" d="M365.011 560.343C366.628 560.613 368.271 560.702 369.908 560.61C370.769 560.61 371.793 560.49 372.301 559.749C368.608 559.904 364.968 558.957 361.361 558.14C360.337 557.899 358.495 557.331 357.634 557.942C359.27 559.112 362.945 559.93 365.011 560.343Z" fill="black"/>
<path opacity="0.1" d="M387.208 637.231C389.145 640.553 391.107 643.91 393.784 646.699C395.331 648.219 396.979 649.634 398.716 650.933C395.523 642.791 392.278 634.58 387.165 627.462C385.874 625.671 383.946 623.106 381.597 622.779C380.925 624.768 382.621 628.288 383.438 630.156C384.561 632.583 385.819 634.945 387.208 637.231Z" fill="black"/>
<path opacity="0.1" d="M293.107 576.344C292.96 577.721 292.848 579.244 293.649 580.372C294.045 580.928 294.624 581.327 295.284 581.5C294.871 581.396 294.424 577.351 294.32 576.8C294.131 575.672 294.32 573.564 293.52 572.729C293.313 573.917 293.236 575.139 293.107 576.344Z" fill="black"/>
<path opacity="0.1" d="M297.582 574.76C297.867 575.973 298.395 577.115 299.135 578.116C299.875 579.118 300.811 579.959 301.886 580.587C300.38 578.728 299.889 576.284 298.581 574.244C298.159 573.59 297.668 572.651 296.859 572.522C297.063 573.28 297.304 574.027 297.582 574.76Z" fill="black"/>
<path opacity="0.1" d="M293.795 549.972C292.525 550.727 291.113 551.212 289.647 551.397C288.181 551.583 286.692 551.463 285.274 551.047C284.629 550.858 283.122 550.187 283.484 549.24C283.845 548.293 285.593 548.947 286.307 549.033L290.051 549.507C290.74 549.593 293.236 550.299 293.795 549.972Z" fill="black"/>
<path opacity="0.1" d="M281.125 556.1C282.89 555.876 284.474 557.098 286.126 557.761C287.955 558.371 289.883 558.628 291.807 558.518C292.771 558.518 293.864 558.441 294.458 557.658C289.974 556.634 285.782 555.506 281.125 556.1Z" fill="black"/>
<path d="M302.402 504.345H302.686L304.795 511.928L302.402 514.476V504.345Z" fill="#A36468"/>
<g opacity="0.1">
<path d="M255.769 444.224C255.508 445.455 255.378 446.71 255.382 447.969C255.489 447.573 255.567 447.17 255.614 446.764C255.717 445.937 255.709 445.068 255.769 444.224Z" fill="black"/>
<path d="M281.444 445.206C281.653 445.218 281.857 445.273 282.043 445.368C282.229 445.463 282.394 445.596 282.527 445.757C282.659 445.919 282.757 446.106 282.814 446.308C282.87 446.509 282.884 446.72 282.856 446.927C283.26 445.498 283.484 443.742 281.728 443.484C280.196 443.295 278.079 444.922 277.304 446.109C276.529 447.297 276.34 448.803 275.789 450.12C274.737 452.386 272.84 454.15 270.504 455.035C268.185 455.904 265.726 456.341 263.249 456.326C259.599 456.438 255.562 455.93 252.92 453.52C252.604 453.857 252.261 454.167 251.896 454.45C254.478 457.522 258.954 458.134 262.973 458.013C265.447 458.027 267.903 457.59 270.22 456.722C272.557 455.835 274.456 454.072 275.514 451.807C276.065 450.49 276.237 449.001 277.02 447.805C277.803 446.609 279.912 445.016 281.444 445.206Z" fill="black"/>
<path d="M326.907 475.21C325.664 475.505 324.361 475.402 323.18 474.917C322.226 474.307 321.444 473.462 320.908 472.464C319.565 470.399 318.219 468.333 316.871 466.267C315.828 464.407 314.437 462.765 312.774 461.43C311.052 460.199 308.599 459.709 306.749 460.793C305.105 461.757 304.313 463.728 304.124 465.622C304.124 465.699 304.124 465.777 304.124 465.854C304.435 464.465 305.279 463.254 306.473 462.48C308.307 461.396 310.777 461.895 312.498 463.117C314.16 464.456 315.553 466.097 316.604 467.954C317.947 470.02 319.292 472.086 320.641 474.151C321.171 475.153 321.955 475.999 322.913 476.604C324.091 477.089 325.392 477.192 326.631 476.897C328.621 476.602 330.583 476.15 332.501 475.546C332.123 475.136 331.772 474.702 331.451 474.246C329.958 474.662 328.44 474.984 326.907 475.21Z" fill="black"/>
<path d="M303.762 473.377C303.148 473.919 302.361 474.224 301.542 474.237L298.96 474.59C298.726 474.672 298.479 474.707 298.232 474.692C297.986 474.677 297.744 474.612 297.523 474.502C297.301 474.392 297.104 474.239 296.943 474.052C296.782 473.864 296.66 473.647 296.584 473.411C294.441 469.521 292.96 464.709 288.941 462.842C286.462 461.688 283.2 461.766 281.608 459.545C280.799 458.19 280.526 456.581 280.842 455.035C280.798 455.302 280.738 455.56 280.695 455.818C280.385 457.66 280.23 459.717 281.324 461.232C282.916 463.453 286.187 463.375 288.657 464.529C292.685 466.396 294.165 471.208 296.309 475.098C296.504 475.587 296.851 476 297.298 476.277C297.746 476.427 298.226 476.447 298.684 476.338L301.266 475.985C302.086 475.977 302.876 475.671 303.487 475.124C303.899 474.522 304.085 473.793 304.012 473.067C303.937 473.176 303.853 473.28 303.762 473.377Z" fill="black"/>
</g>
<path d="M660.003 676.333L654.486 675.567V594.118L655.613 594.462L659.056 595.521V598.232V600.272V603.362L659.099 606.899L659.176 614.181V614.912V615.885V617.951V619.199V622.22V624.113L659.59 660.788V661.77L659.736 674.68V674.878L660.003 676.333Z" fill="#EAECF0"/>
<path d="M663.101 676.763L660.028 676.333V674.861V674.663L659.882 661.752V660.771L659.469 624.096V622.203V619.182V617.934V615.868V614.895V614.164L659.392 606.882L659.349 603.344V600.254V598.215V595.503H662.662V598.499V600.547V602.905V606.03L662.731 613.897V615.618V617.417V618.674V620.214V622.22L663.05 660.711V661.701L663.153 674.5V674.706L663.101 676.763Z" fill="#D3DAE1"/>
<path d="M997.919 584.021V654.324C996.283 655.472 994.608 656.6 992.892 657.707L992.823 599.179V592.964L997.919 584.021Z" fill="#EAECF0"/>
<path d="M1001.5 583.006V651.605C1000.33 652.543 999.132 653.447 997.919 654.333V584.021L1001.5 583.006Z" fill="#D3DAE1"/>
<path d="M921.573 682.633C919.456 683.064 917.33 683.494 915.204 683.864L915.127 620.249V617.495L921.263 614.912V620.748L921.573 682.633Z" fill="#EAECF0"/>
<path d="M925.619 612.898V681.755C924.276 682.048 922.933 682.323 921.591 682.616L921.307 620.757V614.921L921.711 614.732L925.619 612.898Z" fill="#D3DAE1"/>
<path d="M560.806 663.577L555.082 663L554.35 591.269V589.22V587.852H559.971V589.702V591.751L560.806 663.577Z" fill="#EAECF0"/>
<path d="M565.066 664.033L560.762 663.577L559.902 591.751V589.702V587.852H564.248V590.081V592.129L565.066 664.033Z" fill="#D3DAE1"/>
<path opacity="0.1" d="M921.668 614.74L925.602 612.89V621.574L921.771 622.857L921.668 614.74Z" fill="black"/>
<path opacity="0.1" d="M1001.49 582.989V596.278L997.919 597.474L992.815 599.17L992.806 592.956L997.919 584.013L1001.49 582.989Z" fill="black"/>
<path d="M1001.49 557.443V594.238L921.771 620.808L921.255 581.457L1001.49 557.443Z" fill="#D48A9B"/>
<path d="M553.292 554.886L658.057 534.952L1001.49 557.443L921.255 581.456L553.292 554.886Z" fill="#EFC6CD"/>
<path opacity="0.1" d="M564.283 587.852L564.317 592.121L559.979 591.742L554.342 591.26L554.316 587.852H564.283Z" fill="black"/>
<path opacity="0.1" d="M662.447 600.556L659.133 600.263L654.486 599.867V594.118L659.082 595.512H662.404L662.447 600.556Z" fill="black"/>
<path d="M553.292 554.886V589.125L921.771 620.808L921.255 581.456L553.292 554.886Z" fill="#D48A9B"/>
<path d="M845.452 595.598H797.321V578.134L845.452 581.525V595.598Z" fill="#D48A9B"/>
<path opacity="0.1" d="M845.452 595.598H797.321V578.134L845.452 581.525V595.598Z" fill="black"/>
<path opacity="0.1" d="M732.673 574.304V601.898L917.425 615.954V586.569L845.366 582.481L838.205 588.867L808.82 586.827L798.345 579.158L732.673 574.304Z" fill="black"/>
<path d="M731.648 573.28V600.883L916.4 614.93V585.545L844.342 581.456L837.189 587.852L807.796 585.803L797.321 578.134L731.648 573.28Z" fill="white"/>
<path d="M617.681 565.869L661.38 568.942L660.872 582.825H632.339L613.257 575.328L617.681 565.869Z" fill="#D48A9B"/>
<path opacity="0.1" d="M617.681 565.869L661.38 568.942L660.872 582.825H632.339L613.257 575.328L617.681 565.869Z" fill="black"/>
<path opacity="0.1" d="M559.428 562.039V586.827L727.052 600.117V573.796L662.404 569.957L655.501 575.07L629.439 573.538L618.706 566.893L559.428 562.039Z" fill="black"/>
<path d="M558.404 561.015V585.803L726.028 599.093V572.772L661.38 568.942L654.486 574.046L628.415 572.514L617.681 565.869L558.404 561.015Z" fill="white"/>
<path opacity="0.1" d="M917.442 561.109L940.939 562.65L902.009 574.304L882.179 572.875L917.442 561.109Z" fill="black"/>
<path d="M917.442 560.094L940.939 561.626L902.009 573.28L882.179 571.851L917.442 560.094Z" fill="white"/>
<path d="M914.636 562.736C915.566 562.331 916.555 563.08 917.545 563.27C918.105 563.382 918.69 563.27 919.267 563.382C920.42 563.536 921.556 564.303 922.658 563.915L914.636 562.736Z" fill="#D3DAE1"/>
<path d="M913.422 563.433C914.343 563.037 915.333 563.786 916.323 563.975C916.891 564.079 917.476 563.975 918.044 564.079C919.189 564.234 920.334 565.008 921.436 564.621L913.422 563.433Z" fill="#D3DAE1"/>
<path d="M910.634 564.845C911.555 564.449 912.545 565.189 913.534 565.378C914.102 565.49 914.679 565.378 915.256 565.49C916.409 565.645 917.554 566.42 918.647 566.024L910.634 564.845Z" fill="#D3DAE1"/>
<path opacity="0.1" d="M758.907 548.216L811.299 551.65L800.135 567.685L742.537 561.531L758.907 548.216Z" fill="black"/>
<path d="M757.883 547.191L810.275 550.617L799.111 566.661L741.504 560.507L757.883 547.191Z" fill="#3A3768"/>
<path d="M760.19 548.371L805.885 551.168L796.15 564.234L745.91 559.216L760.19 548.371Z" fill="#D5E1F4"/>
<path d="M729.548 679.406C729.548 679.647 729.548 679.896 729.505 680.137C729.462 680.378 729.505 680.568 729.436 680.783C729.253 682.3 728.832 683.778 728.188 685.164C706.541 682.728 684.843 679.802 663.118 676.798L660.046 676.367L654.529 675.601L649.881 674.956C644.793 674.828 639.721 674.353 634.698 673.536C631.533 673.067 628.4 672.406 625.316 671.556C611.545 669.671 597.696 667.855 583.89 666.202L582.091 665.987C582.418 664.524 582.693 663.637 582.693 663.637C582.693 663.637 585.654 652.001 588.116 638.995C588.658 636.172 589.175 633.297 589.622 630.448C589.984 628.167 590.311 625.912 590.586 623.743C590.741 622.547 590.87 621.376 590.982 620.232C591.042 619.664 591.094 619.095 591.137 618.51C591.18 617.925 591.232 617.288 591.275 616.694C591.318 616.1 591.335 615.575 591.361 615.033V614.224C591.361 613.062 591.361 611.848 591.318 610.6C590.882 604.384 589.903 598.218 588.391 592.172C588.15 591.14 587.901 590.107 587.643 589.1C587.565 588.773 587.479 588.454 587.393 588.136C584.613 577.368 581.368 568.572 581.368 568.572C581.364 568.523 581.364 568.474 581.368 568.425C581.372 568.391 581.372 568.356 581.368 568.322C581.372 568.25 581.372 568.179 581.368 568.107C581.368 567.831 581.368 567.41 581.368 566.902C581.368 566.799 581.368 566.687 581.368 566.575C581.431 565.672 581.587 564.778 581.833 563.907C581.926 563.597 582.036 563.293 582.16 562.994C582.467 562.128 582.98 561.35 583.655 560.726C584.33 560.103 585.146 559.652 586.033 559.414C588.469 558.785 592.153 559.414 597.713 562.71C598.618 563.233 599.482 563.826 600.295 564.483C600.708 564.81 601.156 565.155 601.5 565.525C607.869 571.455 611.261 581.241 613.068 590.176C613.137 590.494 613.197 590.812 613.257 591.131C613.473 592.233 613.653 593.309 613.817 594.367C614.109 596.226 614.342 598.017 614.514 599.678C614.514 600.125 614.609 600.539 614.652 600.995C614.695 601.451 614.738 601.855 614.764 602.269C614.876 603.611 614.953 604.851 615.005 605.901C615.151 608.689 615.125 610.402 615.125 610.402V610.488C615.125 610.488 615.125 610.617 615.082 610.858C615.077 610.881 615.077 610.905 615.082 610.927C615.082 611.031 615.082 611.16 615.082 611.306C615.082 611.452 615.082 611.556 615.082 611.702C615.048 612.063 615.005 612.485 614.953 612.967C614.876 613.707 614.789 614.577 614.686 615.549C614.617 616.272 614.531 617.056 614.445 617.882C614.256 619.603 614.049 621.6 613.825 623.7C613.774 624.096 613.731 624.492 613.688 624.888C613.49 626.687 613.283 628.563 613.068 630.457C612.836 632.609 612.577 634.76 612.328 636.886C612.268 637.351 612.207 637.816 612.156 638.272C611.519 643.436 610.882 648.127 610.365 651.045C610.284 651.478 610.227 651.915 610.193 652.353C610.185 652.503 610.185 652.652 610.193 652.801C610.167 653.191 610.167 653.582 610.193 653.972C610.615 661.322 618.559 662.579 618.559 662.579L654.632 661.864L659.985 661.761L663.101 661.701L691.221 661.141L693.803 661.09L707.789 660.814C708.739 660.792 709.687 660.905 710.604 661.15C714.923 662.31 719.042 664.112 722.826 666.495C724.008 667.254 725.072 668.182 725.985 669.249C726.03 669.291 726.07 669.337 726.105 669.387C728.013 671.674 729.191 674.48 729.488 677.443C729.488 677.641 729.488 677.839 729.488 678.037C729.557 678.45 729.557 678.915 729.548 679.406Z" fill="#3A3768"/>
<path opacity="0.1" d="M729.548 679.406C729.548 679.647 729.548 679.896 729.505 680.137C729.462 680.378 729.505 680.568 729.436 680.783C729.231 682.3 728.796 683.778 728.145 685.164C706.498 682.728 684.8 679.802 663.075 676.798L660.003 676.367L654.485 675.601L649.838 674.956C644.75 674.828 639.678 674.353 634.655 673.536C631.49 673.067 628.357 672.406 625.273 671.556C611.501 669.671 597.653 667.855 583.847 666.202L582.048 665.987C582.375 664.472 582.668 663.551 582.668 663.551C582.668 663.551 585.086 654.083 587.384 642.61C587.548 641.818 587.703 641.026 587.858 640.226L588.09 639.012C588.624 636.198 589.14 633.306 589.596 630.465C589.958 628.185 590.285 625.929 590.56 623.76C590.715 622.564 590.844 621.394 590.956 620.249C591.017 619.681 591.068 619.113 591.111 618.527C591.154 617.942 591.206 617.305 591.249 616.711C591.292 616.117 591.309 615.592 591.335 615.05V614.241C591.335 613.079 591.335 611.865 591.292 610.617C590.869 604.401 589.899 598.235 588.391 592.19C588.15 591.145 587.901 590.121 587.643 589.117C587.556 588.79 587.479 588.471 587.393 588.153C584.604 577.351 581.368 568.503 581.368 568.503C581.37 568.483 581.37 568.463 581.368 568.443C581.372 568.408 581.372 568.374 581.368 568.339C581.372 568.268 581.372 568.196 581.368 568.124C581.368 567.849 581.368 567.427 581.368 566.919C581.368 566.816 581.368 566.704 581.368 566.592C581.423 565.69 581.57 564.796 581.807 563.924C581.902 563.623 582.005 563.313 582.125 563.011C582.435 562.098 582.972 561.278 583.686 560.629C584.399 559.98 585.266 559.524 586.205 559.302C588.641 558.734 592.282 559.439 597.721 562.624C598.664 563.178 599.562 563.805 600.407 564.5C600.811 564.836 601.199 565.172 601.577 565.533C607.895 571.498 611.26 581.267 613.051 590.176C613.12 590.494 613.18 590.821 613.24 591.14C613.455 592.233 613.636 593.317 613.8 594.367C614.092 596.226 614.316 598.008 614.488 599.661C614.531 600.117 614.583 600.564 614.617 600.995C614.652 601.425 614.703 601.855 614.729 602.269C614.841 603.611 614.919 604.851 614.97 605.901C615.117 608.689 615.091 610.402 615.091 610.402V610.695C615.091 610.747 615.091 610.798 615.091 610.858C615.086 610.881 615.086 610.905 615.091 610.927C615.091 611.031 615.091 611.16 615.091 611.306C615.091 611.452 615.091 611.556 615.091 611.702C615.056 612.063 615.013 612.485 614.962 612.967C614.884 613.707 614.798 614.577 614.695 615.549C614.609 616.264 614.531 617.047 614.445 617.882C614.256 619.603 614.049 621.6 613.825 623.7C613.774 624.096 613.731 624.492 613.688 624.888C613.49 626.687 613.275 628.581 613.068 630.474C612.818 632.626 612.569 634.778 612.311 636.895C612.25 637.36 612.199 637.825 612.138 638.281C611.51 643.445 610.882 648.067 610.365 650.968C610.28 651.432 610.223 651.9 610.193 652.371C610.185 652.52 610.185 652.669 610.193 652.818C610.167 653.208 610.167 653.599 610.193 653.989C610.684 661.253 618.559 662.467 618.559 662.467L654.632 661.761L659.977 661.649L663.101 661.589L691.272 661.038L693.906 660.986L707.841 660.711C708.791 660.68 709.74 660.793 710.656 661.047C715.007 662.174 719.16 663.959 722.972 666.34C724.175 667.109 725.254 668.055 726.174 669.146C726.219 669.188 726.259 669.234 726.295 669.284C728.201 671.58 729.366 674.402 729.634 677.374C729.634 677.572 729.634 677.77 729.634 677.968C729.557 678.45 729.557 678.915 729.548 679.406Z" fill="black"/>
<path d="M729.609 685.293L728.188 685.129C706.541 682.694 684.843 679.767 663.119 676.763L660.046 676.333L654.529 675.567L649.881 674.921C644.793 674.794 639.721 674.319 634.698 673.501C631.533 673.033 628.4 672.372 625.316 671.522C611.545 669.637 597.696 667.82 583.89 666.168C584.114 664.96 584.401 663.765 584.751 662.587C584.751 662.587 592.927 630.388 593.435 613.268C593.616 607.149 592.402 599.574 590.758 592.353C590.517 591.312 590.276 590.279 590.018 589.263L589.786 588.299C586.868 576.981 583.399 567.513 583.399 567.513C583.318 566.342 583.384 565.165 583.597 564.01C583.651 563.7 583.72 563.392 583.804 563.089C584.134 561.646 584.911 560.345 586.024 559.371C586.075 559.326 586.13 559.285 586.188 559.25C588.452 557.529 592.514 557.408 599.744 561.643C601.209 562.507 602.564 563.545 603.781 564.733C604.125 565.06 604.47 565.404 604.797 565.757C610.606 572.049 613.688 581.689 615.306 590.313L615.487 591.269C615.676 592.344 615.84 593.403 615.995 594.427C615.995 594.427 615.995 594.488 615.995 594.514C616.192 595.873 616.356 597.173 616.494 598.413C616.897 602.063 617.104 605.732 617.113 609.404C617.113 609.404 616.778 612.804 616.253 617.701C616.055 619.621 615.822 621.772 615.573 624.045C615.573 624.156 615.573 624.268 615.573 624.389L615.444 625.594C615.005 629.562 614.523 633.796 614.032 637.721C613.98 638.203 613.92 638.677 613.86 639.141C613.309 643.557 612.758 647.482 612.302 650.038C610.512 660.005 620.479 661.537 620.479 661.537L654.511 660.866L659.848 660.763L662.972 660.694H664.28H664.702L691.694 660.16H694.276L709.769 659.85C710.719 659.826 711.668 659.942 712.584 660.195C716.936 661.322 721.092 663.104 724.909 665.479C725.979 666.17 726.954 666.998 727.81 667.941C727.863 667.994 727.912 668.052 727.956 668.113C729.979 670.452 731.225 673.361 731.521 676.44C731.817 679.518 731.149 682.612 729.609 685.293Z" fill="#3A3768"/>
<path d="M851.279 529.71L861.805 552.261H860.041L847.698 529.977L851.279 529.71Z" fill="#4C4C56"/>
<path opacity="0.1" d="M851.279 529.71L861.805 552.261H860.041L847.698 529.977L851.279 529.71Z" fill="black"/>
<path d="M851.279 552.261H861.805V554.619L851.279 554.886V552.261Z" fill="#4C4C56"/>
<path opacity="0.1" d="M851.279 552.261H861.805V554.619L851.279 554.886V552.261Z" fill="black"/>
<path d="M769.399 446.729V525.476C769.399 527.026 770.015 528.512 771.111 529.608C772.207 530.704 773.694 531.32 775.244 531.32H906.502C907.275 531.32 908.039 531.166 908.752 530.867C909.464 530.568 910.11 530.13 910.651 529.579C911.191 529.028 911.617 528.374 911.902 527.656C912.188 526.938 912.327 526.171 912.312 525.398L910.823 446.583C910.794 445.061 910.169 443.612 909.082 442.547C907.996 441.481 906.535 440.885 905.013 440.885H775.244C774.476 440.885 773.716 441.036 773.007 441.33C772.298 441.623 771.654 442.054 771.111 442.597C770.568 443.139 770.138 443.784 769.844 444.493C769.551 445.202 769.399 445.962 769.399 446.729Z" fill="#4C4C56"/>
<path opacity="0.1" d="M769.399 446.729V525.476C769.399 527.026 770.015 528.512 771.111 529.608C772.207 530.704 773.694 531.32 775.244 531.32H906.502C907.275 531.32 908.039 531.166 908.752 530.867C909.464 530.568 910.11 530.13 910.651 529.579C911.191 529.028 911.617 528.374 911.902 527.656C912.188 526.938 912.327 526.171 912.312 525.398L910.823 446.583C910.794 445.061 910.169 443.612 909.082 442.547C907.996 441.481 906.535 440.885 905.013 440.885H775.244C774.476 440.885 773.716 441.036 773.007 441.33C772.298 441.623 771.654 442.054 771.111 442.597C770.568 443.139 770.138 443.784 769.844 444.493C769.551 445.202 769.399 445.962 769.399 446.729Z" fill="black"/>
<path d="M764.665 446.729V525.476C764.665 527.026 765.281 528.512 766.377 529.608C767.473 530.704 768.96 531.32 770.51 531.32H901.768C902.541 531.32 903.305 531.166 904.017 530.867C904.728 530.568 905.373 530.13 905.914 529.578C906.454 529.027 906.879 528.373 907.163 527.655C907.448 526.938 907.586 526.17 907.57 525.398L906.081 446.583C906.051 445.063 905.427 443.615 904.343 442.55C903.258 441.485 901.8 440.887 900.279 440.885H770.544C769.774 440.88 769.01 441.028 768.297 441.32C767.584 441.611 766.936 442.041 766.389 442.584C765.843 443.128 765.409 443.773 765.114 444.485C764.818 445.196 764.665 445.959 764.665 446.729Z" fill="#4C4C56"/>
<path d="M769.83 451.652V520.983C769.83 522.533 770.445 524.019 771.541 525.115C772.637 526.211 774.124 526.827 775.674 526.827H897.215C898.756 526.827 900.234 526.215 901.323 525.125C902.413 524.036 903.025 522.558 903.025 521.017V451.609C903.023 450.07 902.41 448.594 901.32 447.507C900.231 446.419 898.755 445.808 897.215 445.808H775.674C774.124 445.808 772.637 446.424 771.541 447.52C770.445 448.616 769.83 450.102 769.83 451.652Z" fill="#41669F"/>
<path d="M822.419 530.029L833.961 552.261H860.041L847.001 526.827L822.419 530.029Z" fill="#4C4C56"/>
<path d="M813.227 552.261L811.299 554.619H851.279V552.261H813.227Z" fill="#4C4C56"/>
<path d="M641.942 459.367C642.648 463.178 643.354 466.995 644.648 470.631C644.655 470.657 644.664 470.681 644.674 470.707C644.687 470.743 644.702 470.783 644.716 470.838C644.554 470.779 644.404 470.688 644.277 470.571C644.024 470.3 643.838 469.972 643.735 469.615C642.421 465.951 641.704 462.116 640.988 458.289C640.116 453.622 639.246 448.968 637.297 444.655C636.733 443.54 636.241 442.39 635.825 441.212C635.746 440.963 635.68 440.71 635.627 440.455L635.825 440.334L636.04 440.248L636.256 440.188L636.471 440.136C636.517 440.897 636.65 441.651 636.867 442.382C637.28 443.559 637.766 444.709 638.321 445.825C640.229 450.109 641.085 454.734 641.942 459.367Z" fill="url(#paint1_linear_179_3142)"/>
<path d="M673.43 475.158C672.075 476.685 670.96 478.409 670.125 480.271C669.996 480.555 669.866 480.831 669.746 481.132C665.942 489.739 664.65 501.918 664.65 501.918C664.65 501.918 662.292 500.859 658.953 499.207C652.73 496.125 643.124 490.996 639.242 486.907C637.521 485.057 636.901 483.421 638.33 482.277C638.64 482.027 638.958 481.743 639.277 481.416C640.377 480.316 641.382 479.124 642.281 477.852C643.52 476.131 644.742 474.212 645.896 472.241C646.576 471.087 647.221 469.925 647.824 468.798L648.065 468.35C650.647 463.453 652.532 459.27 652.532 459.27C652.532 459.27 653.392 459.545 654.787 460.036C661.216 462.334 678.921 469.314 673.43 475.158Z" fill="#EFB7B9"/>
<path d="M791.244 674.577C791.244 674.577 792.294 682.375 793.628 690.604L790.573 690.449C782.402 690.024 774.222 689.482 766.034 688.822C761.386 678.054 756.566 665.273 756.566 665.075C756.566 664.877 756.42 660.668 756.256 655.968C756.205 654.316 756.144 652.612 756.093 651.011C756.007 648.584 755.929 646.397 755.886 645.037C755.886 644.108 755.834 643.557 755.834 643.557C755.834 643.557 751.41 644.332 747.434 644.874L745.669 645.106C744.757 645.218 743.948 645.304 743.216 645.356C742.586 645.452 741.945 645.452 741.314 645.356C739.954 644.831 742.777 631.584 742.777 631.584L749.801 614.585L751.763 609.851L752.624 609.636C753.046 609.533 753.614 609.412 754.294 609.283C760.999 608.053 778.91 606.486 781.949 624.165C785.71 646.001 786.252 650.907 786.252 650.907L791.244 674.577Z" fill="#EFB7B9"/>
<path opacity="0.05" d="M791.244 674.577C791.244 674.577 792.294 682.375 793.628 690.604L790.573 690.449C782.402 690.024 774.222 689.482 766.034 688.822C761.386 678.054 756.566 665.273 756.566 665.075C756.566 664.877 756.42 660.668 756.256 655.968C756.205 654.316 756.144 652.612 756.093 651.011C756.007 648.584 755.929 646.397 755.886 645.037C755.886 644.108 755.834 643.557 755.834 643.557C755.834 643.557 751.41 644.332 747.434 644.874L745.669 645.106C744.757 645.218 743.948 645.304 743.216 645.356C742.586 645.452 741.945 645.452 741.314 645.356C739.954 644.831 742.777 631.584 742.777 631.584L749.801 614.585L751.763 609.851L752.624 609.636C753.046 609.533 753.614 609.412 754.294 609.283C760.999 608.053 778.91 606.486 781.949 624.165C785.71 646.001 786.252 650.907 786.252 650.907L791.244 674.577Z" fill="black"/>
<path d="M790.573 690.449C782.402 690.024 774.222 689.482 766.034 688.822L762.935 688.572L761.567 688.46C757.711 679.156 754.285 670.058 754.285 669.895C754.285 669.731 754.139 665.488 753.975 660.788C753.777 654.918 753.554 648.377 753.554 648.377L752.977 648.472L752.736 648.515H752.633H752.426L751.04 648.747L750.283 648.868C748.914 649.091 747.262 649.341 745.644 649.573L745.282 649.625L744.335 649.745L743.475 649.849C742.812 649.935 742.184 650.004 741.616 650.055L740.918 650.116C740.288 650.216 739.646 650.216 739.016 650.116C737.656 649.59 740.479 636.344 740.479 636.344L749.465 614.611L749.775 614.525C750.249 614.405 751.247 614.172 752.598 613.94C753.106 613.854 753.666 613.768 754.268 613.69C762.066 612.692 776.905 612.976 779.65 628.925C783.412 650.761 783.954 655.667 783.954 655.667L788.972 679.406C788.972 679.406 789.626 684.312 790.573 690.449Z" fill="#EFB7B9"/>
<path opacity="0.1" d="M753.975 660.788C753.777 654.918 753.554 648.368 753.554 648.368C753.554 648.368 744.946 649.875 740.936 650.167L741.745 647.43C741.745 647.43 756.48 643.359 756.79 645.657C757.014 647.267 755.12 655.822 753.975 660.788Z" fill="black"/>
<path opacity="0.1" d="M754.285 609.24V615.463C754.285 615.463 753.553 626.653 747.804 643.772C747.683 644.142 747.554 644.504 747.417 644.865C746.814 646.512 746.101 648.117 745.282 649.668C743.664 649.892 742.097 650.081 740.935 650.167C740.305 650.264 739.664 650.264 739.033 650.167C737.673 649.642 740.488 636.396 740.488 636.396L749.474 614.671L749.792 614.585L751.746 609.843C751.746 609.843 752.71 609.533 754.285 609.24Z" fill="black"/>
<path d="M752.615 608.259V615.463C752.615 615.463 751.884 626.653 746.134 643.781C745.988 644.228 745.824 644.641 745.661 645.098C745.497 645.554 745.282 646.096 745.067 646.578C744.594 647.723 744.06 648.833 743.5 649.9C738.999 658.43 732.139 664.533 727.784 667.889C727.147 668.38 726.553 668.81 726.062 669.172H726.019C725.159 669.757 724.539 670.179 724.143 670.428C723.747 670.678 723.713 670.695 723.713 670.695C719.633 668.191 708.039 667.769 708.039 667.769L680.978 672.683C675.063 673.702 669.094 674.38 663.101 674.715L660.028 674.861C658.255 674.93 656.413 674.973 654.529 674.982C653.005 674.982 651.456 674.982 649.881 674.921C644.793 674.794 639.721 674.319 634.698 673.501C631.935 673.048 629.199 672.441 626.504 671.685C624.582 671.152 622.688 670.52 620.832 669.791C601.896 662.355 606.828 644.719 610.021 637.084C610.193 636.68 610.357 636.31 610.512 635.965C611.217 634.408 611.743 633.495 611.743 633.495L612.999 630.457L615.056 625.473L615.512 624.38L615.642 624.062L617.165 620.369L638.683 617.581L654.494 615.532L659.306 614.912L662.568 614.491L668.791 613.682L671.132 613.38C672.576 613.156 674.034 613.041 675.496 613.036C676.285 612.999 677.074 613.116 677.819 613.38C679.541 614.164 692.658 612.02 692.658 612.02C692.658 612.02 702.892 608.887 711.878 609.929C716.322 610.236 720.78 610.264 725.228 610.015L726.329 609.963L727.758 609.903H728.068C739.705 609.361 752.615 608.259 752.615 608.259Z" fill="#444053"/>
<path opacity="0.1" d="M675.194 629.88C675.194 629.88 664.866 653.386 664.435 653.799C664.005 654.213 664.022 661.546 664.435 661.115C664.849 660.685 679.171 628.942 679.171 628.942L675.194 629.88Z" fill="black"/>
<path opacity="0.1" d="M725.236 609.998C725.236 609.998 720.012 613.372 718.445 616.092C716.879 618.811 702.565 645.864 699.019 649.832C696.074 653.381 693.418 657.16 691.074 661.133C690.661 661.847 690.661 666.34 693.166 662.054C695.671 657.767 695.051 657.044 699.957 651.725C704.863 646.406 710.286 634.382 712.386 631.98C714.486 629.579 717.404 622.366 721.062 618.08L728.068 609.894L725.236 609.998Z" fill="black"/>
<path opacity="0.1" d="M726.493 656.416C726.493 656.416 722.835 653.911 719.392 658.189C715.949 662.467 726.493 656.416 726.493 656.416Z" fill="black"/>
<path opacity="0.1" d="M730.986 657.707C730.986 657.707 727.956 662.992 726.493 663.414C725.029 663.835 730.986 657.707 730.986 657.707Z" fill="black"/>
<path opacity="0.1" d="M726.493 659.024C726.493 659.024 724.091 663.207 722 662.785L726.493 659.024Z" fill="black"/>
<path d="M709.58 546.09C709.58 546.09 731.726 545.152 733.921 544.42C736.116 543.688 755.542 541.184 755.542 541.184C755.542 541.184 813.106 545.255 796.71 550.17C780.313 555.084 758.055 552.984 758.055 552.984C758.055 552.984 736.322 558.63 732.983 561.591C729.643 564.552 704.984 564.621 704.984 564.621L709.58 546.09Z" fill="#EFB7B9"/>
<path opacity="0.05" d="M709.58 546.09C709.58 546.09 731.726 545.152 733.921 544.42C736.116 543.688 755.542 541.184 755.542 541.184C755.542 541.184 813.106 545.255 796.71 550.17C780.313 555.084 758.055 552.984 758.055 552.984C758.055 552.984 736.322 558.63 732.983 561.591C729.643 564.552 704.984 564.621 704.984 564.621L709.58 546.09Z" fill="black"/>
<path d="M630.799 495.635C630.799 495.635 610.529 502.521 620.35 520.079C630.17 537.638 642.814 545.9 642.814 545.9L675.409 568.468C675.409 568.468 689.095 576.301 695.361 573.065L705.595 572.204L707.316 545.35C707.316 545.35 698.709 552.037 689.344 542.767C679.98 533.498 668.446 527.197 667.508 522.188C666.57 517.178 642.599 491.348 630.799 495.635Z" fill="#A36468"/>
<path d="M694.836 552.468C694.836 552.468 705.388 556.229 704.975 556.436C704.562 556.642 694.836 560.3 694.836 560.3L695.567 574.614L709.881 573.831C709.881 573.831 715.105 547.768 710.613 545.152L694.836 544.42V552.468Z" fill="#67647E"/>
<path opacity="0.1" d="M694.836 552.468C694.836 552.468 705.388 556.229 704.975 556.436C704.562 556.642 694.836 560.3 694.836 560.3L695.567 574.614L709.881 573.831C709.881 573.831 715.105 547.768 710.613 545.152L694.836 544.42V552.468Z" fill="black"/>
<path opacity="0.1" d="M673.43 475.158C672.075 476.685 670.96 478.409 670.125 480.271C669.996 480.555 669.867 480.831 669.746 481.132C662.06 481.132 656.534 475.158 651.817 469.813C650.957 468.824 648.779 470.321 648.065 469.211C647.987 469.082 647.91 468.953 647.824 468.824L648.065 468.376C650.647 463.479 652.532 459.296 652.532 459.296C652.532 459.296 653.393 459.571 654.787 460.062C661.216 462.334 678.921 469.314 673.43 475.158Z" fill="black"/>
<path d="M695.808 454.372C695.806 461.2 693.109 467.751 688.303 472.601C683.496 477.451 676.97 480.208 670.142 480.271H669.892C666.215 480.273 662.579 479.492 659.228 477.978C655.877 476.464 652.887 474.253 650.457 471.492C649.588 470.505 648.794 469.455 648.082 468.35C645.906 464.961 644.551 461.111 644.123 457.106C643.695 453.102 644.206 449.052 645.616 445.28C647.026 441.507 649.296 438.115 652.245 435.373C655.195 432.63 658.743 430.613 662.608 429.481C666.473 428.349 670.549 428.133 674.512 428.851C678.475 429.569 682.216 431.201 685.438 433.617C688.661 436.033 691.276 439.166 693.076 442.769C694.876 446.372 695.811 450.345 695.808 454.372Z" fill="#EFB7B9"/>
<path opacity="0.1" d="M669.453 615.042C669.453 615.042 667.482 617.452 665.305 619.698C663.661 621.419 661.905 622.995 660.777 623.399C658.195 624.346 646.36 633.323 646.36 633.323C646.36 633.323 636.962 639.701 634.56 641.577C632.159 643.454 623.483 642.309 623.483 642.309C623.483 642.309 615.134 640.484 609.961 637.145C610.464 635.918 611.038 634.723 611.682 633.564L617.113 620.395L638.631 617.615L669.453 615.042Z" fill="black"/>
<path d="M669.032 613.372C669.032 613.372 667.069 615.782 664.892 618.028C663.248 619.75 661.449 621.325 660.364 621.729C657.782 622.667 645.947 631.653 645.947 631.653C645.947 631.653 636.54 638.031 634.138 639.908C631.737 641.784 623.07 640.639 623.07 640.639C623.07 640.639 611.157 638.057 606.974 633.323C604.048 630.027 607.077 623.915 609.143 620.55C610.004 619.113 610.735 618.175 610.735 618.175L669.032 613.372Z" fill="#67647E"/>
<path d="M684.499 532.404C677.389 531.776 653.986 503.14 653.986 503.14L654.52 502.409L659.426 495.618H670.899L672.165 501.884C680.892 514.123 686.031 522.635 687.425 527.507C688.432 531.053 687.477 532.671 684.499 532.404Z" fill="#67647E"/>
<path opacity="0.1" d="M684.499 532.404C677.389 531.776 653.986 503.14 653.986 503.14L654.52 502.409C658.715 506.259 662.656 510.376 666.32 514.734C683.448 534.892 686.84 529.263 687.425 527.507C688.432 531.053 687.477 532.671 684.499 532.404Z" fill="black"/>
<path opacity="0.1" d="M669.032 613.372C669.032 613.372 667.069 615.782 664.892 618.028C663.743 618.473 662.532 618.734 661.302 618.803C658.583 618.7 652.317 622.986 652.317 622.986C652.317 622.986 641.248 622.358 639.156 623.502C637.065 624.647 629.017 624.862 629.017 624.862C614.29 629.063 610.219 622.685 609.143 620.559C610.004 619.121 610.735 618.183 610.735 618.183L669.032 613.372Z" fill="black"/>
<path d="M694.612 551.159C694.612 551.564 694.535 551.968 694.483 552.356C694.431 552.743 694.38 553.139 694.319 553.509C694.041 555.635 693.404 557.699 692.434 559.612C690.558 562.745 684.808 574.967 684.808 574.967L684.421 577.222L684.223 578.401L684.017 579.563L682.614 587.8L681.985 597.311C681.985 597.311 678.543 602.114 677.079 604.197C675.616 606.279 675.823 609.318 676.348 611.513C676.873 613.707 671.545 614.017 671.545 614.017C671.545 614.017 664.022 617.675 661.302 617.572C658.583 617.469 652.317 621.738 652.317 621.738C652.317 621.738 641.248 621.11 639.156 622.263C637.065 623.416 629.017 623.623 629.017 623.623C613.249 628.107 609.694 620.481 608.962 618.915C608.231 617.348 612.095 610.979 612.095 610.979C612.095 610.979 612.956 602.931 614.6 602.303C616.244 601.675 618.258 591.028 618.258 591.028C618.258 591.028 617.63 587.783 618.99 586.01C620.35 584.237 620.246 579.219 622.02 576.817C623.793 574.416 620.143 566.368 620.771 564.277C621.4 562.185 618.783 553.724 618.99 551.53C619.196 549.335 618.473 547.562 616.795 543.172C615.366 539.428 615.771 522.79 615.934 518.022C615.934 517.213 615.977 516.748 615.977 516.748C615.977 516.748 617.441 512.04 621.305 502.641C624.232 495.523 630.816 492.829 633.837 491.951C634.355 491.795 634.881 491.666 635.412 491.564C636.17 491.673 636.914 491.86 637.633 492.123C640.68 493.147 646.774 496.048 655.467 504.173C659.313 507.777 662.943 511.605 666.338 515.638C685.936 538.67 687.537 527.92 687.537 527.92C687.537 527.92 688.398 529.883 692.434 537.715C694.595 541.881 694.991 546.856 694.612 551.159Z" fill="#A36468"/>
<path opacity="0.1" d="M662.344 494.352L642.685 478.67C642.685 478.67 635.601 479.531 632.675 491.426L652.91 509.148L662.344 494.352Z" fill="black"/>
<path d="M662.344 494.352L658.901 499.164L655.406 504.096L652.773 507.96L636.617 494.352L633.837 491.942L632.279 490.617C633.854 484.187 636.652 480.977 638.881 479.428C639.893 478.654 641.072 478.126 642.324 477.887L662.344 494.352Z" fill="#67647E"/>
<path d="M797.536 556.436C781.131 561.342 758.881 559.259 758.881 559.259C758.881 559.259 737.148 564.896 733.809 567.866C731.657 569.751 720.666 570.448 713.152 570.732C708.977 570.887 705.853 570.896 705.853 570.896L710.44 552.364L713.091 552.244C719.039 551.968 733.06 551.263 734.781 550.686C736.976 549.954 756.403 547.45 756.403 547.45C756.403 547.45 813.933 551.521 797.536 556.436Z" fill="#EFB7B9"/>
<path opacity="0.1" d="M694.319 553.466C694.041 555.592 693.404 557.656 692.434 559.569C690.558 562.702 684.808 574.924 684.808 574.924L684.017 579.563C681.349 578.572 678.759 577.38 676.27 576L643.649 553.406C643.649 553.406 631.005 545.152 621.185 527.584C611.364 510.017 631.634 503.14 631.634 503.14C643.434 498.837 667.362 524.658 668.3 529.676C669.238 534.694 680.737 540.96 690.136 550.256C691.376 551.514 692.783 552.594 694.319 553.466Z" fill="black"/>
<path opacity="0.1" d="M694.612 551.159C694.535 551.977 694.44 552.76 694.319 553.509C694.041 555.635 693.404 557.699 692.434 559.612C690.558 562.745 684.808 574.967 684.808 574.967L684.421 577.222C681.6 576.204 678.866 574.961 676.244 573.504L643.649 550.901C643.649 550.901 631.005 542.647 621.185 525.08C611.364 507.513 631.634 500.627 631.634 500.627C643.434 496.323 667.362 522.145 668.3 527.163C669.238 532.181 680.737 538.447 690.136 547.751C691.449 549.105 692.958 550.254 694.612 551.159Z" fill="black"/>
<path d="M708.108 551.633L706.438 578.478L696.196 579.339C695.971 579.457 695.738 579.558 695.499 579.64C688.974 582.033 676.244 574.743 676.244 574.743L643.649 552.149C643.649 552.149 631.005 543.895 621.185 526.328C611.364 508.761 631.634 501.884 631.634 501.884C643.434 497.58 667.362 523.401 668.3 528.419C669.238 533.437 680.737 539.703 690.136 548.999C691.514 550.384 693.1 551.546 694.836 552.442C696.911 553.532 699.245 554.033 701.585 553.89C703.925 553.748 706.181 552.967 708.108 551.633Z" fill="#A36468"/>
<path opacity="0.1" d="M708.108 551.633L706.438 578.478L696.196 579.339C695.971 579.457 695.738 579.558 695.498 579.64L694.836 566.592C694.836 566.592 704.553 562.934 704.975 562.727C705.397 562.521 694.836 558.76 694.836 558.76V552.519C696.918 553.598 699.256 554.086 701.596 553.93C703.935 553.774 706.188 552.979 708.108 551.633Z" fill="black"/>
<path opacity="0.1" d="M713.109 570.689C708.934 570.844 705.81 570.853 705.81 570.853L710.44 552.364L713.091 552.244C714.796 555.179 714.064 563.803 713.109 570.689Z" fill="black"/>
<path d="M695.671 558.734C695.671 558.734 706.223 562.495 705.81 562.702C705.397 562.908 695.671 566.566 695.671 566.566L696.402 580.88L710.716 580.097C710.716 580.097 715.94 554.034 711.447 551.418L695.671 550.686V558.734Z" fill="#67647E"/>
<path opacity="0.1" d="M633.097 575.87C633.097 575.87 629.542 579.21 626.616 580.097L633.097 575.87Z" fill="black"/>
<path opacity="0.1" d="M624.636 585.794C624.636 585.794 633.303 585.476 634.345 583.703C635.386 581.93 624.636 585.794 624.636 585.794Z" fill="black"/>
<path opacity="0.1" d="M620.35 598.223C620.875 598.223 631.315 596.76 631.737 595.4L620.35 598.223Z" fill="black"/>
<path opacity="0.1" d="M617.113 606.168C620.875 606.056 627.244 601.984 627.244 601.984L617.113 606.168Z" fill="black"/>
<path opacity="0.1" d="M641.454 608.251C641.454 608.251 664.126 608.25 665.167 604.076C666.208 599.902 641.454 608.251 641.454 608.251Z" fill="black"/>
<path opacity="0.1" d="M658.479 549.851C658.901 549.851 676.348 549.851 678.017 547.45C679.687 545.048 658.479 549.851 658.479 549.851Z" fill="black"/>
<path opacity="0.1" d="M639.268 481.442C639.41 482.295 639.484 483.159 639.492 484.024C639.492 484.985 639.406 485.944 639.234 486.89C638.889 488.686 638.346 490.438 637.616 492.114L637.435 492.536C637.177 493.139 636.901 493.724 636.617 494.309C635.338 496.918 633.829 499.406 632.107 501.746C628.178 506.963 623.635 511.688 618.577 515.819C617.699 516.559 616.812 517.29 615.917 518.013C615.917 517.204 615.96 516.739 615.96 516.739C615.96 516.739 617.423 512.031 621.288 502.632C624.214 495.514 630.799 492.82 633.82 491.942L632.262 490.617C633.837 484.187 636.634 480.977 638.864 479.428C639.001 480.065 639.165 480.736 639.268 481.442Z" fill="black"/>
<path opacity="0.1" d="M692.021 440.919C691.756 440.985 691.502 441.086 691.264 441.221C689.628 442.124 689.155 444.267 687.821 445.619C686.28 447.211 683.87 447.452 681.676 447.728C679.481 448.003 677.028 448.545 675.866 450.43C675.005 451.833 675.082 453.598 674.773 455.216C674.739 455.506 674.623 455.781 674.437 456.008C674.141 456.248 673.767 456.37 673.387 456.352C669.083 456.653 665.95 455.173 661.922 454.131C660.029 453.649 657.825 453.709 656.379 454.992C655.071 456.171 654.709 458.099 654.744 459.864V460.018C654.929 461.733 654.981 463.46 654.899 465.183C654.701 466.515 654.189 467.782 653.407 468.879C652.624 469.975 651.593 470.871 650.397 471.492C649.392 472.031 648.282 472.348 647.144 472.421C646.704 472.468 646.26 472.402 645.853 472.232C646.619 470.924 647.35 469.65 648.022 468.35C646.154 465.463 644.88 462.233 644.273 458.848C643.666 455.464 643.739 451.992 644.487 448.636C645.236 445.28 646.644 442.106 648.631 439.299C650.618 436.493 653.144 434.11 656.061 432.29C658.978 430.469 662.228 429.247 665.622 428.695C669.016 428.143 672.486 428.272 675.83 429.074C679.173 429.877 682.324 431.337 685.098 433.369C687.872 435.401 690.214 437.965 691.987 440.911L692.021 440.919Z" fill="black"/>
<path d="M699.113 437.614C698.798 438.319 698.303 438.928 697.676 439.379C695.714 440.652 692.899 439.249 690.851 440.386C689.207 441.289 688.742 443.433 687.408 444.784C685.876 446.376 683.466 446.617 681.262 446.893C679.059 447.168 676.623 447.71 675.452 449.595C674.592 450.998 674.678 452.754 674.359 454.381C674.33 454.673 674.213 454.949 674.024 455.173C673.727 455.411 673.354 455.533 672.974 455.517C668.67 455.818 665.537 454.329 661.509 453.296C659.624 452.814 657.42 452.875 655.974 454.157C654.528 455.44 654.305 457.273 654.331 459.037C654.509 460.799 654.564 462.57 654.494 464.339C654.196 466.237 653.272 467.981 651.868 469.293C650.464 470.605 648.662 471.409 646.748 471.578C646.469 471.62 646.184 471.606 645.911 471.536C645.637 471.467 645.38 471.343 645.155 471.173C644.907 470.904 644.727 470.58 644.63 470.227C641.764 462.17 641.79 453.228 638.313 445.412C637.752 444.298 637.266 443.148 636.858 441.969C636.789 441.728 636.72 441.479 636.669 441.229C636.566 440.732 636.497 440.229 636.462 439.723C636.106 439.774 635.769 439.913 635.481 440.127C635.379 440.214 635.286 440.313 635.206 440.42C634.713 441.244 634.462 442.189 634.483 443.149C633.84 453.909 634.885 464.704 637.581 475.141C638.404 477.747 638.904 480.444 639.07 483.172C638.974 486.121 638.271 489.019 637.004 491.684C631.608 504.13 620.763 513.245 609.978 521.482C611.086 520.294 611.941 518.894 612.492 517.365C613.042 515.837 613.276 514.212 613.18 512.591C612.994 513.21 612.641 513.766 612.16 514.197C611.678 514.628 611.087 514.918 610.451 515.035C609.176 515.252 607.872 515.232 606.604 514.975C608.257 514.433 608.902 512.488 609.315 510.801C610.159 507.358 610.942 503.883 611.665 500.377C612.435 497.031 612.942 493.629 613.18 490.204C613.309 487.295 613.085 484.377 612.965 481.459C612.709 473.458 612.997 465.45 613.825 457.488C614.462 450.602 615.616 443.157 620.668 438.458C622.849 436.615 625.284 435.096 627.898 433.948C627.898 433.087 634.207 431.365 635.042 431.245C635.388 431.177 635.739 431.137 636.092 431.124C636.543 431.059 637.003 431.138 637.407 431.349C637.81 431.561 638.136 431.895 638.338 432.304C638.648 431.744 638.993 431.193 639.354 430.668C639.851 429.946 640.398 429.258 640.989 428.611C644.269 424.996 648.521 422.448 652.316 419.384C653.71 418.134 655.22 417.022 656.827 416.062C658.928 415.005 661.233 414.418 663.583 414.34C667.469 414.121 671.356 414.731 674.988 416.131C680.221 418.145 684.791 421.76 690.205 423.223C691.542 423.513 692.861 423.877 694.156 424.316C695.398 424.808 696.523 425.553 697.459 426.506C698.395 427.458 699.122 428.596 699.592 429.846C700.063 431.096 700.266 432.431 700.189 433.764C700.113 435.098 699.758 436.4 699.148 437.588L699.113 437.614Z" fill="#444053"/>
<g opacity="0.1">
<path d="M611.949 514.708C612.577 513.093 612.844 511.36 612.732 509.63C612.544 510.249 612.189 510.805 611.706 511.236C611.224 511.667 610.632 511.957 609.995 512.074C609.667 512.153 609.333 512.202 608.997 512.221C608.566 513.598 607.886 514.923 606.57 515.354C607.837 515.613 609.141 515.636 610.417 515.423C610.97 515.288 611.491 515.045 611.949 514.708Z" fill="black"/>
<path d="M699.733 430.754C699.669 432.115 699.317 433.447 698.7 434.662C698.374 435.35 697.876 435.943 697.254 436.383C695.3 437.657 692.477 436.263 690.429 437.39C688.794 438.294 688.32 440.446 686.986 441.789C685.445 443.381 683.035 443.631 680.841 443.897C678.646 444.164 676.193 444.758 675.031 446.6C674.17 448.003 674.247 449.767 673.938 451.386C673.931 451.555 673.889 451.721 673.814 451.873C673.738 452.026 673.632 452.16 673.501 452.268C673.37 452.376 673.218 452.455 673.054 452.501C672.891 452.546 672.72 452.556 672.552 452.53C668.248 452.832 665.115 451.343 661.087 450.301C659.194 449.819 656.99 449.879 655.544 451.162C654.236 452.35 653.874 454.269 653.909 456.042C654.089 457.8 654.141 459.57 654.064 461.335C653.776 463.239 652.855 464.989 651.449 466.304C650.044 467.62 648.236 468.422 646.317 468.583C646.038 468.623 645.754 468.608 645.481 468.539C645.208 468.47 644.951 468.347 644.725 468.178C644.476 467.906 644.296 467.578 644.2 467.223C641.334 459.166 641.351 450.224 637.874 442.417C637.321 441.3 636.838 440.151 636.428 438.974C636.208 438.243 636.073 437.489 636.023 436.728C635.529 436.786 635.078 437.036 634.767 437.425C634.283 438.252 634.033 439.195 634.044 440.153C633.643 447.05 633.931 453.97 634.904 460.81C634.282 455.054 634.141 449.256 634.483 443.476C634.462 442.516 634.713 441.571 635.206 440.747C635.356 440.551 635.545 440.388 635.762 440.268C635.978 440.148 636.216 440.074 636.462 440.05C636.509 440.811 636.642 441.565 636.858 442.296C637.27 443.474 637.755 444.624 638.313 445.739C641.756 453.555 641.756 462.489 644.63 470.545C644.731 470.901 644.914 471.228 645.164 471.5C645.382 471.683 645.635 471.82 645.907 471.901C646.179 471.982 646.465 472.007 646.748 471.974C648.662 471.805 650.464 471.001 651.868 469.689C653.272 468.377 654.196 466.633 654.494 464.735C654.564 462.966 654.509 461.195 654.331 459.433C654.331 457.66 654.666 455.741 655.974 454.553C657.42 453.245 659.624 453.193 661.509 453.692C665.537 454.725 668.653 456.214 672.974 455.913C673.354 455.929 673.727 455.806 674.024 455.569C674.213 455.341 674.329 455.062 674.359 454.768C674.678 453.15 674.583 451.386 675.452 449.991C676.623 448.106 679.067 447.555 681.262 447.28C683.457 447.005 685.876 446.772 687.416 445.18C688.716 443.829 689.181 441.685 690.859 440.773C692.899 439.645 695.722 441.048 697.685 439.775C698.311 439.324 698.807 438.715 699.122 438.01C700.254 435.761 700.473 433.161 699.733 430.754Z" fill="black"/>
<path d="M638.657 480.237C638.562 483.185 637.862 486.083 636.6 488.749C631.771 499.878 622.579 508.348 612.982 515.896C612.576 518.148 611.537 520.238 609.987 521.921C620.763 513.693 631.625 504.578 637.013 492.132C638.28 489.466 638.983 486.569 639.079 483.619C639.058 482.36 638.911 481.105 638.64 479.875C638.648 479.961 638.657 480.099 638.657 480.237Z" fill="black"/>
</g>
<path opacity="0.1" d="M639.733 430.66C638.958 434.223 637.891 438.854 637.091 441.238C636.992 440.74 636.923 440.237 636.884 439.732C636.531 439.783 636.196 439.922 635.911 440.136C635.911 437.631 636.213 433.904 636.471 431.116C636.923 431.05 637.384 431.128 637.789 431.34C638.194 431.552 638.522 431.886 638.726 432.295C639.001 431.744 639.371 431.193 639.733 430.66Z" fill="black"/>
<path d="M639.32 430.66C638.545 434.223 637.478 438.854 636.677 441.238C636.575 440.741 636.506 440.238 636.471 439.732C636.115 439.782 635.778 439.921 635.49 440.136C635.49 437.631 635.791 433.904 636.058 431.116C636.509 431.05 636.969 431.129 637.372 431.341C637.776 431.553 638.102 431.887 638.304 432.295C638.614 431.744 639.001 431.193 639.32 430.66Z" fill="#67647E"/>
</g>
<defs>
<linearGradient id="paint0_linear_179_3142" x1="172.34" y1="542.225" x2="405.851" y2="542.225" gradientUnits="userSpaceOnUse">
<stop stop-color="#808080" stop-opacity="0.25"/>
<stop offset="0.54" stop-color="#808080" stop-opacity="0.12"/>
<stop offset="1" stop-color="#808080" stop-opacity="0.1"/>
</linearGradient>
<linearGradient id="paint1_linear_179_3142" x1="703.297" y1="690.698" x2="703.297" y2="413.032" gradientUnits="userSpaceOnUse">
<stop stop-color="#808080" stop-opacity="0.25"/>
<stop offset="0.54" stop-color="#808080" stop-opacity="0.12"/>
<stop offset="1" stop-color="#808080" stop-opacity="0.1"/>
</linearGradient>
<clipPath id="clip0_179_3142">
<rect width="1001.93" height="478.496" fill="white" transform="translate(27 231)"/>
</clipPath>
</defs>
</svg>
