<svg width="1045" height="839" viewBox="0 0 1045 839" fill="none" xmlns="http://www.w3.org/2000/svg">
<mask id="mask0_119_629" style="mask-type:alpha" maskUnits="userSpaceOnUse" x="0" y="0" width="1045" height="839">
<rect width="1045" height="839" fill="#739FE4"/>
</mask>
<g mask="url(#mask0_119_629)">
<path opacity="0.1" d="M253.074 683.253C260.658 705.627 271.33 725.214 284.351 740.657C286.201 742.924 288.091 745.108 290.008 747.25C292.592 750.023 295.239 752.747 297.95 755.424C319.014 775.868 343.683 789.845 367.766 800.036C374.329 802.809 380.916 805.416 387.525 807.856C393.1 809.922 398.68 811.849 404.265 813.638C406.386 814.345 408.507 815.011 410.629 815.718C412.75 816.425 415.184 817.111 417.428 817.798L420.651 818.734C482.96 836.308 546.085 839.657 609.673 835.247L612.692 835.019L617.519 834.644C630.429 833.618 643.352 832.308 656.289 830.713L661.184 830.11L663.347 829.84C670.599 828.911 677.852 827.892 685.104 826.782C694.66 825.396 704.229 823.864 713.811 822.186L715.049 821.978L716.055 821.791C750.256 815.905 784.538 808.834 818.861 801.575L823.716 800.535L832.433 798.684L839.776 797.124L841.952 796.667C853.538 794.185 865.124 791.73 876.71 789.304L878.586 788.909C900.344 784.354 922.225 779.965 944.037 775.972L946.879 775.452C955.809 773.83 964.734 772.284 973.655 770.814L980.454 769.712L989.497 768.318C1014.56 764.512 1039.61 761.476 1064.6 759.583C1076.62 758.668 1088.67 757.975 1100.75 757.503C1110.72 757.157 1120.69 756.956 1130.67 756.9C1144.19 756.803 1157.74 756.921 1171.33 757.254H1174.4C1193.53 757.732 1212.71 758.564 1231.89 759.562L1235.35 759.729H1236.49C1277.29 761.933 1318.08 764.866 1358.77 766.967L1368.71 767.466H1370.15C1384.29 768.159 1398.42 768.693 1412.54 769.067H1416.28H1416.4H1420.94L1427.25 769.192C1433.81 769.289 1440.35 769.344 1446.88 769.358H1454.88C1478.85 769.254 1502.71 768.443 1526.43 766.551L1529.07 766.322C1575.15 762.516 1620.72 754.654 1665.47 740.366C1670.11 738.882 1674.73 737.329 1679.34 735.707C1710.27 725.102 1740.63 710.982 1770.18 693.465C1784.11 685.146 1798.12 675.537 1808.71 659.273C1835.58 617.676 1825.49 536.209 1790.53 512.52C1763.18 493.989 1731.14 509.068 1701.73 500.707C1699.92 500.18 1698.14 499.485 1696.38 498.627C1692.64 496.783 1689.01 494.488 1685.5 491.763C1684.31 490.848 1683.11 489.871 1681.9 488.852C1679.18 486.585 1676.46 484.068 1673.85 481.323C1669.58 476.98 1665.49 472.236 1661.61 467.117C1659.89 464.871 1658.21 462.542 1656.58 460.129C1650.93 452.015 1645.95 442.888 1641.73 432.946C1640.2 429.184 1638.83 425.265 1637.65 421.215C1637.01 419.136 1636.44 416.889 1635.96 414.726C1635.25 411.597 1634.71 408.383 1634.35 405.118C1632.63 389.685 1635.41 374.627 1645.06 361.899C1645.93 360.77 1646.84 359.721 1647.78 358.758C1649.65 356.774 1651.63 355.028 1653.68 353.538C1654.51 352.935 1655.37 352.352 1656.24 351.791C1668.67 343.783 1684.7 340.705 1698.22 335.152C1702.34 333.555 1706.36 331.419 1710.24 328.767C1712.7 327.02 1715.15 325.19 1717.56 323.276L1718.2 322.735C1738.75 306.528 1756.82 283.845 1771.23 256.181C1774.81 249.19 1778.11 241.869 1781.1 234.259C1782.01 231.972 1782.9 229.621 1783.74 227.271C1807.63 161.341 1810.1 76.8578 1785.24 12.0295C1782.22 4.16435 1778.86 -3.3816 1775.17 -10.5575C1773.98 -12.9285 1772.74 -15.2579 1771.46 -17.5457C1747.8 -60.2446 1713.8 -89.1751 1679.48 -110.597C1633.41 -139.341 1585.17 -157.498 1536.01 -169.457C1526.04 -171.883 1516.07 -174.06 1506.1 -175.987C1464.35 -184.14 1422.11 -188.466 1380.17 -191.752C1340.95 -194.789 1301.55 -196.751 1261.97 -197.638C1248.57 -197.916 1235.14 -198.033 1221.71 -197.992C1191.44 -197.992 1161.17 -197.098 1130.9 -195.309C1120.92 -194.727 1110.95 -194.033 1100.98 -193.229C1075.4 -191.205 1049.88 -188.432 1024.41 -184.91C1012.17 -183.218 999.955 -181.353 987.77 -179.315C894.973 -163.799 803.522 -137.49 715.226 -96.5793C705.208 -91.9482 695.235 -87.0952 685.308 -82.0205C648.177 -63.3229 611.69 -41.7551 575.989 -17.4002C572.616 -15.0846 569.253 -12.7551 565.898 -10.4119C543.606 5.22846 521.63 22.082 499.972 40.1488C471.389 63.6743 443.859 90.0769 417.564 119.182C407.302 130.691 397.329 142.698 387.647 155.205C370.531 177.284 354.567 201.372 339.902 227.25C338.597 229.566 337.305 231.895 336.026 234.239C329.39 246.426 323.09 259.051 317.124 272.112C288.023 336.088 268.495 409.256 254.081 484.006C241.366 549.229 232.908 622.46 253.074 683.253Z" fill="#244578"/>
<path d="M362.736 694.813C360.058 706.919 356.29 717.517 351.691 725.872C351.038 727.099 350.371 728.28 349.694 729.439C348.781 730.94 347.847 732.414 346.889 733.862C339.451 744.924 330.74 752.486 322.236 758C319.918 759.501 317.592 760.911 315.258 762.231C313.289 763.349 311.319 764.392 309.347 765.36C308.598 765.742 307.849 766.102 307.1 766.485C306.35 766.868 305.491 767.239 304.698 767.61L303.56 768.117C281.557 777.626 259.266 779.437 236.812 777.052L235.746 776.928L234.041 776.725C229.482 776.17 224.919 775.461 220.35 774.599L218.622 774.272L217.858 774.126C215.297 773.623 212.736 773.072 210.175 772.472C206.8 771.721 203.421 770.893 200.038 769.985L199.601 769.872L199.245 769.771C187.168 766.586 175.062 762.76 162.942 758.833L161.227 758.27L158.149 757.269L155.556 756.425L154.788 756.177C150.696 754.834 146.605 753.506 142.514 752.193L141.851 751.98C134.168 749.515 126.441 747.141 118.739 744.98L117.735 744.699C114.582 743.821 111.43 742.985 108.28 742.189L105.879 741.593L102.685 740.839C93.8352 738.78 84.9898 737.137 76.1636 736.113C71.9186 735.617 67.664 735.242 63.3997 734.987C59.8782 734.8 56.3567 734.691 52.8352 734.661C48.0588 734.608 43.2727 734.672 38.4771 734.852H37.3918C30.6353 735.111 23.8644 735.561 17.0887 736.101L15.8689 736.191H15.4656C1.0594 737.384 -13.3468 738.971 -27.7146 740.108L-31.2249 740.378H-31.7339C-36.728 740.753 -41.7173 741.042 -46.7019 741.244H-48.0224H-48.0657H-49.6696L-51.8977 741.312C-54.2123 741.364 -56.5221 741.394 -58.8271 741.402H-61.6555C-70.1167 741.345 -78.5443 740.907 -86.9191 739.882L-87.8507 739.759C-104.125 737.699 -120.217 733.446 -136.02 725.715C-137.656 724.912 -139.289 724.072 -140.918 723.194C-151.839 717.456 -162.561 709.817 -172.996 700.339C-177.913 695.837 -182.859 690.639 -186.6 681.839C-196.089 659.332 -192.526 615.253 -180.18 602.436C-170.523 592.409 -159.209 600.568 -148.822 596.044C-148.184 595.759 -147.554 595.383 -146.935 594.919C-145.615 593.921 -144.33 592.679 -143.094 591.205C-142.671 590.71 -142.248 590.181 -141.821 589.63C-140.861 588.403 -139.9 587.042 -138.978 585.556C-137.471 583.207 -136.028 580.64 -134.656 577.87C-134.048 576.655 -133.456 575.395 -132.88 574.089C-130.885 569.699 -129.125 564.761 -127.636 559.381C-127.094 557.346 -126.612 555.225 -126.195 553.034C-125.969 551.909 -125.768 550.694 -125.6 549.523C-125.349 547.83 -125.158 546.091 -125.028 544.324C-124.423 535.975 -125.403 527.827 -128.812 520.94C-129.118 520.33 -129.438 519.762 -129.773 519.241C-130.433 518.167 -131.13 517.223 -131.857 516.417C-132.15 516.09 -132.452 515.775 -132.76 515.471C-137.149 511.139 -142.81 509.473 -147.584 506.469C-149.038 505.605 -150.458 504.449 -151.829 503.014C-152.698 502.069 -153.562 501.078 -154.412 500.043L-154.638 499.751C-161.896 490.981 -168.278 478.709 -173.366 463.74C-174.63 459.958 -175.795 455.997 -176.852 451.879C-177.174 450.642 -177.486 449.37 -177.784 448.098C-186.221 412.426 -187.09 366.715 -178.312 331.639C-177.246 327.384 -176.058 323.301 -174.758 319.418C-174.336 318.135 -173.899 316.875 -173.447 315.637C-165.092 292.534 -153.087 276.881 -140.966 265.29C-124.697 249.738 -107.664 239.914 -90.3046 233.444C-86.7831 232.131 -83.2616 230.953 -79.7401 229.91C-64.9977 225.499 -50.0825 223.158 -35.273 221.38C-21.4206 219.737 -7.50746 218.676 6.46653 218.196C11.2014 218.046 15.941 217.982 20.6854 218.004C31.3748 218.004 42.0642 218.488 52.7536 219.456C56.2751 219.771 59.7966 220.146 63.3181 220.581C72.3492 221.677 81.3627 223.177 90.3585 225.083C94.6804 225.998 98.9926 227.007 103.295 228.11C136.065 236.505 168.358 250.74 199.538 272.875C203.076 275.381 206.597 278.006 210.103 280.752C223.215 290.869 236.099 302.538 248.706 315.716C249.897 316.969 251.085 318.229 252.27 319.497C260.142 327.959 267.902 337.078 275.55 346.853C285.643 359.582 295.365 373.868 304.65 389.616C308.274 395.842 311.796 402.339 315.215 409.106C321.259 421.052 326.896 434.085 332.075 448.087C332.536 449.34 332.992 450.6 333.444 451.868C335.787 458.463 338.012 465.293 340.118 472.36C350.395 506.975 357.291 546.564 362.381 587.008C366.871 622.298 369.858 661.92 362.736 694.813Z" fill="#B3D1FF"/>
</g>
<g clip-path="url(#clip0_119_629)">
<path d="M958.264 618.527C954.024 626.706 948.058 633.865 940.778 639.51C939.744 640.339 938.687 641.137 937.615 641.92C936.171 642.934 934.691 643.93 933.175 644.908C921.399 652.382 907.608 657.491 894.143 661.216C890.474 662.23 886.792 663.182 883.097 664.075C879.98 664.83 876.86 665.534 873.738 666.188C872.552 666.447 871.366 666.69 870.18 666.948C868.994 667.207 867.633 667.458 866.379 667.709L864.577 668.051C829.742 674.475 794.45 675.699 758.9 674.087L757.212 674.004L754.513 673.867C747.296 673.492 740.071 673.013 732.838 672.43L730.101 672.209L728.893 672.11C724.838 671.771 720.783 671.398 716.728 670.993C711.386 670.486 706.037 669.926 700.679 669.313L699.987 669.237L699.425 669.168C680.304 667.017 661.138 664.432 641.949 661.778L639.235 661.398L634.361 660.722L630.256 660.152L629.04 659.984C622.562 659.077 616.085 658.18 609.607 657.293L608.558 657.149C596.394 655.484 584.161 653.879 571.967 652.42L570.378 652.23C565.385 651.637 560.395 651.071 555.408 650.534L551.607 650.131L546.551 649.622C532.539 648.231 518.535 647.121 504.562 646.429C497.841 646.094 491.105 645.841 484.354 645.669C478.779 645.542 473.203 645.468 467.628 645.448C460.066 645.413 452.489 645.456 444.896 645.577H443.178C432.481 645.752 421.761 646.056 411.034 646.421L409.103 646.482H408.464C385.656 647.288 362.848 648.36 340.101 649.128L334.544 649.31H333.738C325.831 649.564 317.932 649.759 310.041 649.896H307.95H307.881H305.342L301.815 649.941C298.15 649.977 294.493 649.997 290.844 650.002H286.366C272.97 649.964 259.627 649.668 246.368 648.976L244.894 648.892C219.128 647.501 193.652 644.627 168.632 639.404C166.042 638.862 163.457 638.294 160.877 637.701C143.588 633.825 126.612 628.663 110.091 622.26C102.306 619.219 94.4754 615.707 88.553 609.761C73.5302 594.556 79.1713 564.776 98.7177 556.117C114.007 549.343 131.918 554.855 148.363 551.799C149.373 551.606 150.371 551.352 151.351 551.039C153.441 550.364 155.475 549.526 157.433 548.53C158.102 548.195 158.771 547.838 159.448 547.465C160.968 546.637 162.489 545.717 163.948 544.713C166.335 543.126 168.62 541.392 170.791 539.521C171.754 538.699 172.691 537.848 173.604 536.966C176.761 534 179.548 530.664 181.906 527.029C182.764 525.654 183.526 524.222 184.187 522.742C184.544 521.981 184.863 521.16 185.129 520.369C185.527 519.225 185.829 518.051 186.034 516.857C186.992 511.216 185.441 505.712 180.043 501.059C179.56 500.646 179.052 500.263 178.523 499.911C177.477 499.185 176.373 498.547 175.223 498.003C174.759 497.782 174.28 497.569 173.794 497.364C166.845 494.437 157.881 493.312 150.324 491.282C148.021 490.698 145.773 489.917 143.604 488.948C142.228 488.309 140.859 487.64 139.513 486.941L139.156 486.743C127.665 480.819 117.56 472.527 109.506 462.415C107.504 459.859 105.66 457.183 103.986 454.401C103.477 453.565 102.983 452.706 102.511 451.847C89.1536 427.747 87.7775 396.865 101.675 373.167C103.363 370.292 105.243 367.534 107.301 364.911C107.97 364.044 108.662 363.193 109.377 362.356C122.605 346.748 141.612 336.173 160.801 328.342C186.559 317.835 213.525 311.198 241.009 306.827C246.584 305.94 252.159 305.144 257.734 304.439C281.075 301.459 304.688 299.878 328.135 298.677C350.066 297.567 372.093 296.849 394.217 296.525C401.713 296.424 409.217 296.381 416.728 296.396C433.652 296.396 450.575 296.723 467.499 297.377C473.074 297.589 478.649 297.843 484.225 298.137C498.523 298.877 512.793 299.891 527.035 301.178C533.877 301.796 540.705 302.478 547.517 303.223C599.397 308.895 650.525 318.512 699.889 333.466C705.489 335.159 711.064 336.933 716.614 338.788C737.373 345.623 757.772 353.507 777.732 362.41C779.617 363.256 781.498 364.107 783.373 364.964C795.836 370.681 808.122 376.842 820.231 383.446C836.211 392.046 851.602 401.697 866.303 412.336C872.04 416.543 877.615 420.932 883.028 425.504C892.598 433.574 901.522 442.38 909.721 451.839C910.451 452.686 911.173 453.537 911.888 454.394C915.598 458.849 919.121 463.464 922.456 468.238C938.725 491.624 949.643 518.37 957.702 545.694C964.81 569.536 969.539 596.305 958.264 618.527Z" fill="#81A9E7"/>
<path opacity="0.1" d="M948.039 536.966H883.089V454.348H911.979C911.265 453.492 910.542 452.64 909.812 451.794H883.12V425.458C877.717 420.897 872.141 416.507 866.394 412.29V451.824H716.66V364.911H783.419C781.538 364.054 779.658 363.203 777.778 362.356H716.66V338.735C711.085 336.895 705.509 335.121 699.934 333.413V362.303H486.239L485.73 361.817L547.547 303.139C540.735 302.389 533.908 301.708 527.065 301.094L484.255 341.723V298.084C478.68 297.79 473.104 297.536 467.529 297.323V344.528L416.759 296.343C409.252 296.343 401.749 296.386 394.247 296.472L463.097 361.817L462.587 362.303H257.75V304.47C252.174 305.174 246.599 305.97 241.024 306.857V362.356H109.377C108.662 363.193 107.97 364.044 107.301 364.911H241.009V451.794H102.481C102.952 452.653 103.446 453.512 103.956 454.348H241.009V536.966H173.596C172.684 537.848 171.746 538.699 170.783 539.521H241.009V624.062C246.584 624.858 252.159 625.689 257.734 626.556V539.521H467.514V645.448C473.089 645.448 478.664 645.522 484.24 645.669V539.521H699.919V669.199L700.611 669.275C705.963 669.873 711.313 670.433 716.66 670.955V539.521H866.348V667.671C867.625 667.435 868.903 667.184 870.15 666.91C871.396 666.637 872.522 666.431 873.708 666.15C876.83 665.486 879.949 664.782 883.066 664.036V539.521H948.54C948.373 538.669 948.206 537.818 948.039 536.966ZM467.514 536.966H257.75V454.348H467.514V536.966ZM467.514 451.817H257.75V364.911H464.541L467.491 367.237L467.514 451.817ZM699.919 536.966H484.255V454.348H699.919V536.966ZM699.919 451.817H484.255V364.911H699.919V451.817ZM866.348 536.966H716.66V454.348H866.348V536.966Z" fill="#41669F"/>
<path d="M305.943 653.613C305.943 653.697 305.882 653.781 305.859 653.864C305.859 653.781 305.912 653.697 305.95 653.613H305.943Z" fill="#EAECF0"/>
<path d="M309.911 649.972H307.821H307.752H305.213L301.685 650.017L301.298 646.011L300.94 642.209L299.283 624.868L299.23 624.336V624.1L298.766 619.219L305.867 616.558L306.733 623.636L306.794 624.161V624.222L308.55 638.59L309.09 643L309.402 645.562L309.668 647.759V647.835L309.911 649.972Z" fill="#EAECF0"/>
<path d="M335.403 653.606L335.487 653.857H334.924L334.84 653.606H335.403Z" fill="#3A3768"/>
<path d="M445.52 553.441C445.52 553.593 445.52 553.677 445.52 553.677V553.768C445.52 553.768 438.89 571.885 436.731 587.349C436.584 588.362 436.462 589.376 436.366 590.39C436.26 591.462 436.176 592.511 436.13 593.53C436.07 594.723 436.054 595.879 436.085 596.981C436.085 597.232 436.085 597.491 436.085 597.742C436.085 598.251 436.138 598.775 436.168 599.315C436.199 599.855 436.244 600.395 436.29 600.957C436.336 601.52 436.381 602.014 436.434 602.554C438.069 619.28 444.28 643.768 444.28 643.768C444.28 643.768 444.486 644.429 444.752 645.555H443.034C432.337 645.729 421.617 646.033 410.89 646.398L408.958 646.459H408.32C385.512 647.265 362.704 648.337 339.957 649.105L334.399 649.287H333.594C325.687 649.541 317.788 649.736 309.896 649.873H307.805C308.342 649.116 308.959 648.421 309.645 647.797C310.222 647.262 310.846 646.779 311.508 646.353C315.121 644.1 319.056 642.41 323.178 641.343C324.047 641.105 324.946 640.995 325.846 641.016L331.168 641.122H331.989L340.155 641.282L410.19 642.673H410.365L410.859 642.574C411.672 642.372 412.464 642.092 413.224 641.738C414.539 641.183 415.689 640.298 416.563 639.169C417.437 638.039 418.004 636.704 418.211 635.291C418.211 635.055 418.272 634.804 418.287 634.531C418.31 634.161 418.31 633.79 418.287 633.421C418.287 633.162 418.287 632.888 418.226 632.607C418.165 632.326 418.15 632.045 418.097 631.756C416.409 622.321 413.535 593.279 413.535 593.279V593.37C413.535 593.37 413.535 592.131 413.604 590.048C413.604 589.888 413.604 589.713 413.604 589.538V589.09C413.604 588.626 413.657 588.124 413.687 587.569C413.687 587.242 413.733 586.908 413.756 586.558C413.794 586.049 413.839 585.524 413.885 584.977C413.881 584.944 413.881 584.911 413.885 584.878C413.915 584.533 413.946 584.183 413.976 583.829C413.976 583.829 413.976 583.753 413.976 583.715C415.109 572.501 418.675 554.749 429.942 548.172C435.226 545.078 438.723 544.455 441.026 545.063C444.387 545.945 445.231 549.442 445.413 551.715C445.413 551.867 445.413 552.012 445.413 552.156C445.473 552.582 445.509 553.011 445.52 553.441V553.441Z" fill="#3A3768"/>
<path opacity="0.1" d="M305.943 653.613C305.943 653.697 305.882 653.781 305.859 653.864C305.859 653.781 305.912 653.697 305.95 653.613H305.943Z" fill="black"/>
<path opacity="0.1" d="M335.403 653.606L335.487 653.857H334.924L334.84 653.606H335.403Z" fill="black"/>
<path opacity="0.1" d="M445.52 553.441C445.52 553.593 445.52 553.677 445.52 553.677C445.52 553.677 440.053 568.616 437.446 582.939C437.263 583.953 437.096 584.934 436.944 585.881C436.868 586.368 436.799 586.855 436.731 587.341C436.584 588.355 436.462 589.369 436.366 590.382C436.26 591.454 436.176 592.503 436.13 593.522C436.07 594.716 436.054 595.871 436.085 596.974C436.085 597.225 436.085 597.483 436.085 597.734C436.085 598.243 436.138 598.768 436.168 599.308C436.199 599.847 436.244 600.395 436.29 600.95C436.336 601.505 436.381 602.007 436.434 602.546C436.488 603.086 436.541 603.603 436.602 604.135C436.845 606.287 437.149 608.545 437.499 610.841C439.878 626.327 444.28 643.677 444.28 643.677C444.28 643.677 444.501 644.376 444.767 645.547H443.049C432.352 645.722 421.632 646.026 410.905 646.391L408.974 646.452H408.335C385.527 647.258 362.719 648.329 339.972 649.097L334.415 649.28H333.609C325.702 649.533 317.803 649.728 309.911 649.865H307.821H307.752C308.305 649.08 308.942 648.359 309.653 647.714C310.229 647.169 310.855 646.681 311.523 646.254C315.139 644.007 319.074 642.318 323.193 641.244C324.063 641.012 324.962 640.905 325.862 640.925L331.184 641.031H332.005L340.193 641.191L410.281 642.574H410.403C410.403 642.574 410.608 642.574 410.95 642.46C411.771 642.257 412.568 641.969 413.33 641.601C414.616 641.049 415.742 640.18 416.602 639.075C417.462 637.97 418.029 636.666 418.249 635.283C418.249 635.048 418.31 634.797 418.325 634.523C418.348 634.153 418.348 633.783 418.325 633.413C418.325 633.155 418.325 632.881 418.264 632.6C418.203 632.318 418.188 631.984 418.135 631.665C416.447 622.23 413.573 593.188 413.573 593.188C413.573 593.188 413.573 591.948 413.642 589.865C413.642 589.706 413.642 589.531 413.642 589.356V588.907C413.642 588.444 413.695 587.942 413.725 587.387C413.725 587.06 413.771 586.725 413.794 586.376C413.832 585.866 413.877 585.342 413.923 584.794C413.919 584.761 413.919 584.728 413.923 584.695C413.953 584.351 413.984 584.001 414.014 583.646C414.014 583.646 414.014 583.57 414.014 583.532C414.151 582.133 414.334 580.628 414.562 579.054C416.143 568.046 420.096 553.669 429.949 547.883C435.096 544.842 438.54 544.204 440.852 544.728C444.41 545.542 445.253 549.206 445.413 551.518C445.413 551.67 445.413 551.814 445.413 551.958C445.482 552.45 445.517 552.945 445.52 553.441V553.441Z" fill="black"/>
<path d="M305.943 653.613C305.943 653.697 305.882 653.781 305.859 653.864C305.859 653.781 305.912 653.697 305.95 653.613H305.943Z" fill="#3A3768"/>
<path d="M335.403 653.606L335.487 653.857H334.924L334.84 653.606H335.403Z" fill="#3A3768"/>
<path d="M443.573 552.795C443.573 552.795 433.652 579.906 434.131 596.13C434.61 612.354 442.357 642.84 442.357 642.84C442.357 642.84 442.691 643.912 443.049 645.623C432.352 645.798 421.632 646.102 410.905 646.467L408.974 646.528H408.335C385.527 647.334 362.719 648.406 339.972 649.173L334.415 649.356H333.609C325.702 649.609 317.803 649.804 309.911 649.941H307.821H307.752H305.213C306.259 648.186 307.685 646.687 309.387 645.555L309.592 645.41C313.212 643.2 317.143 641.547 321.254 640.506C322.125 640.275 323.023 640.167 323.923 640.187L330.948 640.324H331.769L340.231 640.491L408.464 641.852C409.44 641.669 410.388 641.36 411.285 640.932C411.583 640.795 411.872 640.64 412.152 640.468V640.468C413.008 639.975 413.778 639.346 414.432 638.606C415.869 636.971 416.827 634.538 416.189 631.003C414.493 621.568 411.627 592.526 411.627 592.526C411.627 592.526 411.14 557.189 428.079 547.268C434.921 543.261 438.768 543.398 440.92 544.987C440.984 545.028 441.045 545.073 441.102 545.124C444.067 547.511 443.573 552.795 443.573 552.795Z" fill="#3A3768"/>
<path d="M170.563 619.318L170.289 622.154L168.632 639.556C166.042 639.014 163.457 638.446 160.877 637.853L162.816 622.032L163.469 616.657L170.563 619.318Z" fill="#EAECF0"/>
<path d="M121.906 613.692L163.31 525.57L330.089 538.578L345.461 613.692H121.906Z" fill="#EFC6CD"/>
<path d="M121.906 621.378V613.692H345.461V624.929L121.906 621.378Z" fill="#D48A9B"/>
<path d="M184.947 600.821L284.967 602.858C285.189 602.863 285.408 602.815 285.607 602.718C285.806 602.62 285.979 602.476 286.111 602.298C286.243 602.12 286.33 601.913 286.365 601.694C286.4 601.476 286.382 601.252 286.313 601.041L270.72 558.983L203.353 557.698L183.426 598.494C183.315 598.747 183.268 599.023 183.291 599.298C183.313 599.574 183.404 599.839 183.555 600.07C183.706 600.301 183.913 600.491 184.156 600.622C184.399 600.753 184.671 600.821 184.947 600.821Z" fill="#DFE6F5"/>
<path opacity="0.15" d="M184.947 600.821L284.967 602.858C285.189 602.863 285.408 602.815 285.607 602.718C285.806 602.62 285.979 602.476 286.111 602.298C286.243 602.12 286.33 601.913 286.365 601.694C286.4 601.476 286.382 601.252 286.313 601.041L270.72 558.983L203.353 557.698L183.426 598.494C183.315 598.747 183.268 599.023 183.291 599.298C183.313 599.574 183.404 599.839 183.555 600.07C183.706 600.301 183.913 600.491 184.156 600.622C184.399 600.753 184.671 600.821 184.947 600.821Z" fill="black"/>
<path d="M184.141 599.064L285.195 601.193L271.457 559.584C271.235 558.91 270.81 558.321 270.239 557.899C269.669 557.477 268.981 557.242 268.272 557.227L203.33 555.995L184.141 599.064Z" fill="#DFE6F5"/>
<path d="M192.489 589.645L204.6 562.997C204.857 562.435 205.27 561.959 205.791 561.625C206.311 561.291 206.916 561.113 207.534 561.112H237.633C238.486 561.112 239.304 561.451 239.907 562.054C240.51 562.657 240.849 563.475 240.849 564.328V593.119C240.848 593.555 240.759 593.986 240.588 594.387C240.416 594.787 240.164 595.148 239.849 595.449C239.533 595.75 239.16 595.983 238.752 596.135C238.344 596.288 237.909 596.356 237.473 596.335L195.256 594.183C194.733 594.157 194.224 594.003 193.773 593.735C193.323 593.467 192.945 593.093 192.672 592.646C192.399 592.198 192.24 591.691 192.208 591.168C192.176 590.645 192.272 590.122 192.489 589.645V589.645Z" fill="#4C4C56"/>
<path d="M251.85 586.269L252.367 571.064C252.381 570.455 252.632 569.876 253.066 569.45C253.501 569.024 254.085 568.785 254.693 568.783H263.588C264.135 568.786 264.663 568.981 265.08 569.334C265.497 569.687 265.776 570.176 265.869 570.714L268.485 585.836C268.542 586.169 268.526 586.511 268.438 586.838C268.35 587.165 268.192 587.468 267.975 587.728C267.758 587.987 267.488 588.197 267.182 588.341C266.876 588.486 266.542 588.562 266.204 588.565L254.169 588.672C253.857 588.671 253.549 588.607 253.263 588.485C252.977 588.363 252.718 588.185 252.501 587.961C252.285 587.737 252.116 587.472 252.004 587.181C251.892 586.89 251.84 586.58 251.85 586.269Z" fill="#D1D9EC"/>
<path d="M134.009 487.374L167.544 484.576C168.034 484.512 168.532 484.608 168.963 484.851C169.393 485.093 169.733 485.469 169.932 485.922L201.642 557.698L183.943 597.43C184.498 596.183 184.909 605.884 180.902 597.475L130.504 492.339C129.828 490.932 132.435 487.572 134.009 487.374Z" fill="#4C4C56"/>
<path opacity="0.15" d="M134.009 487.374L167.544 484.576C168.034 484.512 168.532 484.608 168.963 484.851C169.393 485.093 169.733 485.469 169.932 485.922L201.642 557.698L183.943 597.43C184.498 596.183 184.909 605.884 180.902 597.475L130.504 492.339C129.828 490.932 132.435 487.572 134.009 487.374Z" fill="black"/>
<path d="M134.009 487.374L169.247 482.873C169.737 482.809 170.235 482.905 170.666 483.148C171.096 483.39 171.436 483.766 171.635 484.219L203.353 555.995L184.164 599.064L132.207 490.636C132.048 490.307 131.97 489.945 131.98 489.58C131.99 489.215 132.087 488.858 132.263 488.538C132.44 488.219 132.691 487.946 132.994 487.743C133.298 487.541 133.646 487.414 134.009 487.374Z" fill="#4C4C56"/>
<path d="M142.805 492.422L168.282 488.454C168.791 488.373 169.313 488.468 169.761 488.722C170.21 488.976 170.56 489.374 170.753 489.853L197.438 555.129C197.547 555.395 197.6 555.682 197.592 555.97C197.584 556.258 197.516 556.541 197.392 556.801L185.175 582.331C185.009 582.686 184.745 582.986 184.415 583.197C184.084 583.407 183.7 583.519 183.308 583.519C182.917 583.519 182.533 583.407 182.202 583.197C181.872 582.986 181.608 582.686 181.442 582.331L141.08 495.661C140.926 495.339 140.85 494.985 140.858 494.628C140.866 494.271 140.957 493.921 141.125 493.606C141.293 493.291 141.532 493.02 141.824 492.814C142.116 492.609 142.452 492.474 142.805 492.422V492.422Z" fill="#41669F"/>
<path d="M414.638 639.503C414.638 639.503 414.113 640.369 413.345 641.784L413.277 641.913C412.593 643.129 411.756 644.726 410.905 646.474L408.974 646.535H408.335C385.527 647.341 362.719 648.413 339.972 649.181L334.415 649.363H333.609C325.702 649.617 317.803 649.812 309.911 649.949H307.821H307.752H305.213L301.685 649.994C298.021 650.03 294.364 650.05 290.715 650.055H286.366C272.97 650.017 259.628 649.721 246.369 649.029L244.894 648.945C247.501 643.274 252.162 633.976 255.948 631.003C258.875 628.722 279.896 626.191 299.23 624.336L301.267 624.138H301.313L306.711 623.636C314.108 622.959 320.821 622.412 325.611 622.04L326.052 622.001L323.558 613.639L319.947 601.474L320.973 591.256L321.057 590.435H320.943C319.913 590.545 318.873 590.415 317.902 590.055L281.797 588.808H281.143L267.276 588.314C259.84 588.048 254.557 587.85 254.351 587.812C254.133 587.776 253.919 587.717 253.713 587.638C253.389 587.515 253.09 587.334 252.831 587.105C252.528 586.846 252.271 586.538 252.071 586.193H251.918H251.584L249.622 586.322L248.627 586.391C248.589 586.284 248.558 586.178 248.52 586.079C248.429 585.783 248.338 585.501 248.254 585.212H247.729L240.887 585.068H240.765C240.765 585.068 223.112 586.414 213.89 583.053C210.507 581.822 208.257 579.959 208.431 577.169C208.47 576.534 208.603 575.909 208.827 575.314C205.862 569.771 220.345 559.66 231.384 562.45C234.366 563.303 237.509 563.433 240.553 562.83C242.204 562.473 243.76 561.765 245.114 560.755C245.251 560.656 245.373 560.557 245.487 560.458C245.304 560.344 245.114 560.245 244.939 560.154C244.183 559.756 243.37 559.474 242.529 559.318L245.525 558.443H245.57C245.57 558.443 256.214 557.47 263.14 557.083H263.186C265.246 556.976 266.987 556.908 268.021 556.938C272.582 557.067 281.47 553.806 281.85 552.802C282.23 551.799 286.29 552.802 286.29 552.802L289.84 551.419C293.391 550.043 295.421 548.165 295.421 546.781C295.421 545.397 298.591 543.9 298.591 543.9C300.02 541.497 302.826 538.92 305.768 536.639C308.315 534.67 310.961 532.914 312.922 531.69C313.682 526.765 314.697 521.882 315.963 517.062C317.309 512.569 321.483 509.239 322.98 508.16L323.528 507.795C323.108 505.901 322.549 504.041 321.855 502.23C321.804 502.078 321.744 501.925 321.673 501.773C321.521 501.416 321.361 501.066 321.201 500.739L320.966 500.283C320.578 500.359 320.205 500.428 319.795 500.481C318.536 500.666 317.266 500.76 315.993 500.762C310.293 500.783 304.742 498.936 300.191 495.504C295.639 492.072 292.338 487.243 290.791 481.756C290.791 481.756 290.791 481.756 290.791 481.71C290.181 479.481 289.874 477.179 289.878 474.868C289.875 472.649 290.166 470.44 290.745 468.299C290.745 468.299 290.745 468.299 290.745 468.299C290.859 467.843 290.996 467.394 291.14 466.946C291.155 466.894 291.173 466.843 291.194 466.794C291.262 466.588 291.331 466.376 291.407 466.17C290.281 466.341 289.146 466.44 288.008 466.467H287.248C285.077 466.548 282.913 466.188 280.885 465.41V465.41C280.393 465.201 279.922 464.946 279.478 464.65C279.455 464.639 279.434 464.623 279.417 464.604C278.84 464.267 278.312 463.849 277.851 463.365C278.697 462.717 279.406 461.907 279.937 460.984C280.469 460.06 280.811 459.039 280.945 457.982C281.151 456.34 280.877 454.508 281.858 453.17C282.36 452.565 282.961 452.051 283.637 451.649C287.681 448.889 290.89 445.103 294.546 441.842C298.203 438.58 302.628 435.76 307.547 435.608C314.146 435.402 319.954 439.994 326.493 440.861C328.5 441.127 330.56 441.036 332.522 441.538C334.72 442.225 336.788 443.273 338.642 444.64C340.316 445.592 341.796 446.85 343.006 448.35C343.845 449.65 344.448 451.089 344.785 452.6C345.631 455.784 346.141 459.048 346.305 462.339C346.48 465.783 346.305 469.249 346.67 472.671C346.928 475.642 347.933 478.5 349.59 480.98H349.688C349.977 481.386 350.292 481.772 350.631 482.136C349.985 482.341 349.339 482.524 348.677 482.683C347.578 482.965 346.464 483.186 345.34 483.345C344.824 483.429 344.303 483.473 343.781 483.474C343.419 483.483 343.056 483.45 342.702 483.375L343.371 483.824L345.226 485.07L345.925 485.534L347.332 486.469C347.651 485.534 348.092 485.283 348.601 485.344C349.635 484.371 351.178 486.477 351.178 486.477C352.083 488.21 354.516 489.936 356.668 491.213C357.932 491.958 359.234 492.638 360.568 493.251C388.979 510.182 387.177 535.514 388.85 537.521C390.522 539.528 390.629 546.796 390.629 546.796C390.629 546.796 394.818 571.497 396.711 573.634C398.604 575.77 396.832 576.515 398.482 578.902C400.132 581.289 399.752 587.676 399.752 587.676C399.752 587.676 400.892 602.721 404.952 605.983C408.594 608.91 413.459 633.535 414.425 638.568L414.638 639.503Z" fill="url(#paint0_linear_119_629)"/>
<path d="M248.117 560.253C248.117 560.253 244.171 566.464 232.995 563.606C221.82 560.747 207.032 571.558 211.252 576.895C215.471 582.232 242.681 575.375 242.681 575.375L253.12 573.261L252.435 564.571L248.117 560.253Z" fill="#D38884"/>
<path opacity="0.1" d="M248.117 560.253C248.117 560.253 244.171 566.464 232.995 563.606C221.82 560.747 207.032 571.558 211.252 576.895C215.471 582.232 242.681 575.375 242.681 575.375L253.12 573.261L252.435 564.571L248.117 560.253Z" fill="black"/>
<path d="M251.751 559.918L246.908 559.668L243.928 560.534C243.928 560.534 253.37 561.903 250.77 574.698L260.95 574.082L251.751 559.918Z" fill="#A36468"/>
<path opacity="0.1" d="M251.751 559.918L246.908 559.668L243.928 560.534C243.928 560.534 253.37 561.903 250.77 574.698L260.95 574.082L251.751 559.918Z" fill="black"/>
<path d="M315.857 531.302C315.857 531.302 302.567 538.905 298.834 545.222C298.834 545.222 295.732 546.743 295.732 548.081C295.732 549.419 293.741 551.305 290.266 552.643L286.784 554.011C286.784 554.011 282.808 553.015 282.435 554.011C282.063 555.007 273.373 558.231 268.895 558.109C264.417 557.987 246.908 559.629 246.908 559.629C250.115 561.085 252.733 563.585 254.335 566.721C255.937 569.857 256.428 573.444 255.727 576.895L297.101 575.162L312.747 571.68L321.946 562.488L315.857 531.302Z" fill="#444053"/>
<path opacity="0.1" d="M315.857 531.302C315.857 531.302 302.567 538.905 298.834 545.222C298.834 545.222 295.732 546.743 295.732 548.081C295.732 549.419 293.741 551.305 290.266 552.643L286.784 554.011C286.784 554.011 282.808 553.015 282.435 554.011C282.063 555.007 273.373 558.231 268.895 558.109C264.417 557.987 246.908 559.629 246.908 559.629C250.115 561.085 252.733 563.585 254.335 566.721C255.937 569.857 256.428 573.444 255.727 576.895L297.101 575.162L312.747 571.68L321.946 562.488L315.857 531.302Z" fill="black"/>
<path d="M254.891 586.269L249.037 586.155L242.195 586.011C242.195 586.011 209.883 588.497 210.514 578.165C211.145 567.833 235.998 564.206 239.458 567.171C242.081 569.414 248.147 571.224 250.915 571.961C251.797 572.197 252.336 572.326 252.336 572.326L254.891 586.269Z" fill="#D38884"/>
<path opacity="0.1" d="M254.891 586.269L249.037 586.155C246.703 578.134 249.41 573.717 250.945 571.984C251.827 572.219 252.367 572.349 252.367 572.349L254.891 586.269Z" fill="black"/>
<path d="M258.837 586.71L252.755 587.136L249.866 587.333C245.889 575.656 252.314 571.056 252.314 571.056H254.214L257.324 571.429L258.837 586.71Z" fill="#A36468"/>
<path d="M332.506 509.194L325.299 522.878C325.299 522.878 324.197 509.019 320.988 502.488C320.167 500.816 319.209 499.63 318.092 499.272C315.051 498.314 332.537 479.148 332.537 479.148C333.122 479.27 336.467 481.429 340.565 484.219C345.074 487.26 350.502 490.97 354.151 493.342C361.077 497.759 332.506 509.194 332.506 509.194Z" fill="#D38884"/>
<path d="M323.262 509.452C323.262 509.452 317.468 513.17 315.857 518.636C314.245 524.102 312.747 533.917 312.747 533.917C312.747 533.917 315.362 557.394 316.723 558.512C318.084 559.63 323.262 583.106 323.262 583.106L328.279 579.754L321.695 550.187C321.695 550.187 326.074 512.197 323.262 509.452Z" fill="#444053"/>
<path opacity="0.1" d="M323.262 509.452C323.262 509.452 317.468 513.17 315.857 518.636C314.245 524.102 312.747 533.917 312.747 533.917C312.747 533.917 315.362 557.394 316.723 558.512C318.084 559.63 323.262 583.106 323.262 583.106L328.279 579.754L321.695 550.187C321.695 550.187 326.074 512.197 323.262 509.452Z" fill="black"/>
<path d="M348.472 561.827H319.513L324.204 516.142H348.472V561.827Z" fill="#A36468"/>
<path d="M281.379 653.613H281.728L281.074 653.864L281.379 653.613Z" fill="#67647E"/>
<path d="M335.859 632.805L330.195 634.979L329.435 635.261L309.045 643.099L301.267 646.087L290.684 650.154H286.366C272.97 650.116 259.627 649.82 246.368 649.128C248.938 643.494 253.431 634.477 257.096 631.566C259.954 629.285 280.405 626.822 299.283 624.967C301.64 624.738 303.966 624.518 306.232 624.313L306.771 624.26C314.268 623.575 321.049 623.02 325.778 622.64L326.538 622.579L332.483 622.123L333.107 621.5L333.867 624.754L334.498 627.354L335.859 632.805Z" fill="#67647E"/>
<path opacity="0.1" d="M281.379 653.613H281.728L281.074 653.864L281.379 653.613Z" fill="black"/>
<path opacity="0.1" d="M335.859 632.805L330.195 634.979L329.435 635.261L309.045 643.099L301.267 646.087L290.684 650.154H286.366C272.97 650.116 259.627 649.82 246.368 649.128C248.938 643.494 253.431 634.477 257.096 631.566C259.954 629.285 280.405 626.822 299.283 624.967C301.64 624.738 303.966 624.518 306.232 624.313L306.771 624.26C314.268 623.575 321.049 623.02 325.778 622.64L326.538 622.579L332.483 622.123L333.107 621.5L333.867 624.754L334.498 627.354L335.859 632.805Z" fill="black"/>
<path d="M281.379 653.613H281.728L281.074 653.864L281.379 653.613Z" fill="#67647E"/>
<path d="M305.943 653.613C305.943 653.697 305.882 653.781 305.859 653.864C305.859 653.781 305.912 653.697 305.95 653.613H305.943Z" fill="#67647E"/>
<path d="M335.487 653.857H334.924L334.84 653.606H335.403L335.487 653.857Z" fill="#67647E"/>
<path d="M340.702 624.86L340.231 640.506V641.35V641.434L339.995 649.181L334.437 649.363H333.632C325.725 649.617 317.826 649.812 309.934 649.949H307.843H307.775H305.236L301.708 649.994C298.044 650.03 294.387 650.05 290.737 650.055H286.366C290.319 647.607 295.436 644.908 300.94 642.209C303.411 640.993 305.973 639.784 308.543 638.59C315.385 635.413 322.311 632.41 327.96 630.015L328.682 629.711C330.872 628.783 332.856 627.954 334.551 627.255C338.216 625.734 340.542 624.822 340.702 624.761V624.86Z" fill="#67647E"/>
<path opacity="0.1" d="M289.924 560.557C291.346 563.522 292.813 566.548 295.162 568.859C295.535 569.224 296.181 569.559 296.515 569.156C296.621 568.988 296.671 568.791 296.66 568.593C296.587 567.196 296.112 565.849 295.291 564.716C294.531 563.545 293.634 562.48 292.957 561.264C292.281 560.048 291.505 557.706 289.985 557.387C288.031 556.976 289.491 559.66 289.924 560.557Z" fill="black"/>
<path opacity="0.1" d="M340.535 484.196C340.428 484.576 340.314 484.956 340.193 485.321C338.79 489.62 336.274 493.47 332.901 496.481C329.528 499.492 325.418 501.557 320.988 502.465C320.167 500.793 319.209 499.607 318.092 499.249C315.051 498.291 332.537 479.125 332.537 479.125C333.092 479.247 336.437 481.444 340.535 484.196Z" fill="black"/>
<path d="M341.447 476.89C341.447 481.951 339.946 486.899 337.134 491.107C334.322 495.316 330.326 498.596 325.65 500.533C320.974 502.469 315.828 502.976 310.864 501.989C305.9 501.001 301.34 498.564 297.761 494.985C294.183 491.406 291.745 486.847 290.758 481.882C289.77 476.918 290.277 471.773 292.214 467.097C294.151 462.421 297.431 458.424 301.639 455.612C305.848 452.8 310.795 451.3 315.857 451.3C319.219 451.293 322.55 451.95 325.658 453.233C328.766 454.517 331.59 456.401 333.967 458.779C336.345 461.157 338.23 463.981 339.513 467.089C340.797 470.197 341.454 473.527 341.447 476.89V476.89Z" fill="#D38884"/>
<path d="M325.672 514.903C325.672 514.903 320.35 521.365 321.201 525.593H327.656L332.377 520.271L325.672 514.903Z" fill="#67647E"/>
<path opacity="0.1" d="M344.602 487.617L324.303 515.527C324.303 515.527 329.519 522.985 332.005 523.357C334.491 523.73 348.67 490.347 348.67 490.347L344.602 487.617Z" fill="black"/>
<path d="M344.861 487.116L324.554 515.063C324.554 515.063 329.769 522.513 332.255 522.886C334.741 523.258 348.92 489.883 348.92 489.883L344.861 487.116Z" fill="#A36468"/>
<path d="M321.946 522.863C321.946 522.863 320.95 538.509 319.954 541.619C318.959 544.728 319.954 573.291 319.954 573.291L329.275 569.445L327.656 525.593L321.946 522.863Z" fill="#67647E"/>
<path opacity="0.1" d="M335.403 653.606L335.487 653.857H334.924L334.84 653.606H335.403Z" fill="black"/>
<path opacity="0.1" d="M411.764 640.134C411.764 640.134 411.589 640.423 411.3 640.894C411.011 641.365 410.699 641.951 410.297 642.696C410.276 642.725 410.258 642.755 410.243 642.787C409.681 643.829 409.012 645.106 408.335 646.497C385.527 647.303 362.719 648.375 339.972 649.143L334.415 649.325H333.609L331.221 641.267V641.183L330.971 640.331L329.45 635.268L327.93 630.121L326.356 624.632L325.778 622.64L325.626 622.138L323.147 613.699L319.787 602.242L320.874 591.31L320.95 590.481L321.931 580.689L322.068 577.785L322.144 576.264V575.831L322.311 572.303L322.813 561.811L323.071 556.444L323.117 555.631L323.634 544.858L325.101 540.456L325.862 538.266L327.549 533.18L327.914 531.925C328.447 530.017 329.519 526.246 330.522 522.62L330.613 522.308L330.682 522.072L331.396 519.495L332.286 516.188C332.62 514.918 332.841 514.014 332.894 513.702C332.978 513.162 334.415 510.775 336.3 507.62C340.101 501.332 345.819 492.08 346.472 488.978C346.475 488.953 346.475 488.927 346.472 488.902C346.511 488.713 346.565 488.528 346.632 488.347C346.944 487.42 347.392 487.169 347.864 487.23C348.078 487.264 348.283 487.345 348.464 487.465C348.923 487.774 349.324 488.16 349.65 488.606C350.54 490.316 352.919 492.027 355.025 493.297L355.436 493.532L355.679 493.677C357.428 494.673 358.842 495.311 358.842 495.311C386.668 512.083 384.934 537.179 386.546 539.163C388.158 541.148 388.287 548.362 388.287 548.362C388.287 548.362 392.385 572.835 394.247 574.972C396.11 577.108 394.377 577.83 395.988 580.195C397.6 582.559 397.228 588.808 397.228 588.808C397.228 588.808 398.345 603.71 402.321 606.941C406.298 610.172 411.764 640.134 411.764 640.134Z" fill="black"/>
<path d="M412.509 639.891L412.174 640.468C411.908 640.94 411.483 641.685 410.973 642.62L410.92 642.726C410.342 643.798 409.658 645.098 408.981 646.528H408.343C385.535 647.333 362.727 648.405 339.98 649.173L334.422 649.356L332.043 641.267V641.183L331.792 640.331L330.218 635.01L328.697 629.84L327.177 624.678L326.576 622.61L323.976 613.73L320.54 602.029L321.49 592.518L321.619 591.249L322.669 580.446L323.071 572.022L323.566 561.842L323.695 559.173L323.839 556.087L323.9 554.787L324.394 544.614L325.862 540.22L326.493 538.327L327.968 533.879L328.279 532.937C328.279 532.937 329.701 527.942 331.077 522.992C331.13 522.81 331.183 522.627 331.229 522.445C331.351 522.019 331.465 521.594 331.586 521.175C331.708 520.75 331.822 520.331 331.929 519.913C332.316 518.53 332.689 517.237 332.947 516.173C333.32 514.782 333.571 513.77 333.624 513.443C333.708 512.904 335.144 510.448 337.098 507.255C340.694 501.31 345.94 492.81 347.05 489.282C347.11 489.1 347.161 488.915 347.202 488.727V488.727C347.27 488.167 347.5 487.638 347.864 487.207C348.882 486.226 350.395 488.332 350.395 488.332C351.285 490.043 353.664 491.761 355.77 493.023C357.001 493.762 358.27 494.434 359.572 495.037C387.397 511.809 385.664 536.905 387.276 538.897C388.887 540.889 389.017 548.089 389.017 548.089C389.017 548.089 393.115 572.562 394.977 574.698C396.84 576.834 395.106 577.556 396.718 579.913C398.33 582.27 397.957 588.611 397.957 588.611C397.957 588.611 399.075 603.519 403.051 606.751C407.027 609.982 412.509 639.891 412.509 639.891Z" fill="#444053"/>
<path opacity="0.1" d="M355.77 493.509C353.041 497.478 348.594 504.457 347.408 509.475C347.408 509.475 343.059 513.953 341.439 513.702C339.82 513.451 342.96 517.055 342.96 517.055L325.877 540.729L328.302 533.454C328.302 533.454 333.396 515.565 333.624 513.953C333.852 512.341 346.221 493.874 347.202 489.229C347.963 485.511 350.395 488.857 350.395 488.857C351.277 490.529 353.657 492.255 355.77 493.509Z" fill="black"/>
<path d="M355.77 493.015C353.041 496.976 348.594 503.963 347.408 508.943C347.408 508.943 343.059 513.413 341.439 513.17C339.82 512.927 342.96 516.523 342.96 516.523L325.877 540.197L328.302 532.921C328.302 532.921 333.396 515.032 333.624 513.413C333.852 511.794 346.221 493.342 347.202 488.697C347.963 484.972 350.395 488.324 350.395 488.324C351.277 490.035 353.657 491.746 355.77 493.015Z" fill="#444053"/>
<path opacity="0.1" d="M378.715 542.067C378.844 547.496 370.892 554.908 370.519 555.342C370.147 555.775 345.796 575.869 345.796 575.869L328.31 589.28C326.339 590.905 323.982 591.994 321.467 592.443L322.661 580.446L323.839 556.117C326.569 553.076 329.214 549.883 329.275 548.864C329.397 546.758 333.837 544.515 333.837 544.515C333.837 544.515 336.946 541.908 336.444 540.418C335.943 538.928 338.094 531.789 338.094 531.789C339.212 511.535 360.081 509.551 360.081 509.551C360.081 509.551 370.147 513.527 377.225 517.747C384.303 521.966 378.593 536.647 378.715 542.067Z" fill="black"/>
<path opacity="0.1" d="M258.837 586.71L252.755 587.136C250.185 582.764 253.72 571.056 253.72 571.056H254.214L257.324 571.429L258.837 586.71Z" fill="black"/>
<path d="M360.081 508.319C360.081 508.319 339.212 510.311 338.094 530.557C338.094 530.557 335.981 537.643 336.475 539.133C336.969 540.623 333.867 543.231 333.867 543.231C333.867 543.231 329.397 545.466 329.306 547.579C329.214 549.693 317.902 561.218 317.902 561.218C317.902 561.218 313.188 566.586 302.255 567.149C291.323 567.711 286.229 571.056 286.229 571.056C286.229 571.056 280.907 567.331 277.03 568.449C273.153 569.566 254.298 571.056 254.298 571.056C254.298 571.056 249.288 587.66 255.537 588.702C256.298 588.824 317.803 590.937 317.803 590.937C317.803 590.937 322.007 592.921 328.34 588.079C334.673 583.236 345.826 574.66 345.826 574.66C345.826 574.66 370.155 554.536 370.55 554.133C370.945 553.73 378.913 546.279 378.746 540.859C378.578 535.438 384.341 520.772 377.225 516.53C370.109 512.288 360.081 508.319 360.081 508.319Z" fill="#444053"/>
<path opacity="0.1" d="M341.447 476.89C341.45 479.583 341.026 482.259 340.193 484.82C339.846 484.41 339.531 483.976 339.25 483.52C338.064 481.695 336.875 479.87 335.684 478.046C334.759 476.403 333.528 474.953 332.058 473.773C330.537 472.693 328.378 472.252 326.736 473.21C325.292 474.062 324.584 475.803 324.455 477.475C324.411 479.154 324.454 480.834 324.585 482.508C324.645 483.149 324.481 483.792 324.121 484.325C323.581 484.809 322.884 485.079 322.159 485.086L319.878 485.397C319.672 485.47 319.454 485.5 319.236 485.487C319.018 485.473 318.805 485.417 318.609 485.319C318.414 485.222 318.24 485.087 318.097 484.922C317.955 484.756 317.847 484.564 317.78 484.356C315.887 480.927 314.579 476.67 311.029 475.02C308.839 474.001 305.95 474.069 304.544 472.108C303.586 470.77 303.715 468.953 303.997 467.326C304.306 465.491 304.751 463.682 305.327 461.913C305.73 460.666 306.627 458.18 304.635 457.929C303.282 457.754 301.412 459.191 300.727 460.21C300.043 461.229 299.876 462.589 299.389 463.753C298.457 465.754 296.779 467.312 294.714 468.094C293.68 468.519 292.597 468.812 291.49 468.968C293.36 463.161 297.243 458.213 302.439 455.016C307.634 451.819 313.801 450.584 319.828 451.532C325.854 452.481 331.343 455.551 335.306 460.189C339.268 464.827 341.444 470.729 341.44 476.829L341.447 476.89Z" fill="black"/>
<path d="M300.735 459.564C300.043 460.62 299.883 461.936 299.397 463.099C298.466 465.099 296.791 466.656 294.729 467.44C292.68 468.207 290.508 468.594 288.32 468.58C284.777 468.687 280.824 468.147 278.543 465.433C279.374 464.789 280.071 463.988 280.593 463.074C281.115 462.161 281.451 461.154 281.584 460.111C281.782 458.484 281.515 456.667 282.481 455.337C282.973 454.754 283.559 454.258 284.214 453.869C288.183 451.132 291.315 447.377 294.904 444.153C298.492 440.93 302.818 438.124 307.638 437.972C314.093 437.774 319.802 442.321 326.189 443.18C328.15 443.446 330.172 443.355 332.088 443.849C334.244 444.519 336.272 445.547 338.087 446.89C339.729 447.841 341.18 449.089 342.367 450.57C343.186 451.862 343.776 453.287 344.108 454.782C344.948 457.936 345.458 461.169 345.629 464.429C345.803 467.835 345.629 471.272 345.993 474.662C346.358 478.053 347.438 481.505 349.757 484.014C348.065 484.548 346.334 484.947 344.579 485.207C343.482 485.468 342.331 485.377 341.287 484.949C340.443 484.412 339.751 483.665 339.28 482.782L335.715 477.308C334.789 475.666 333.558 474.216 332.088 473.035C330.568 471.956 328.409 471.515 326.766 472.473C325.322 473.324 324.622 475.065 324.486 476.738C324.441 478.417 324.484 480.097 324.615 481.771C324.676 482.412 324.512 483.054 324.151 483.588C323.609 484.072 322.909 484.343 322.182 484.348L319.901 484.66C319.695 484.732 319.477 484.763 319.259 484.749C319.041 484.736 318.828 484.679 318.632 484.582C318.437 484.485 318.262 484.35 318.12 484.184C317.978 484.019 317.87 483.826 317.803 483.618C315.91 480.182 314.602 475.932 311.052 474.282C308.862 473.264 305.973 473.332 304.567 471.37C303.609 470.032 303.738 468.215 304.019 466.588C304.329 464.754 304.773 462.944 305.35 461.175C305.753 459.929 306.65 457.442 304.658 457.184C303.289 457.04 301.419 458.476 300.735 459.564Z" fill="#444053"/>
<path opacity="0.1" d="M358.621 519.678C360.545 519.412 362.567 519.237 364.369 519.974C359.678 518.051 352.045 518.788 347.772 521.434C348.16 522.323 357.131 519.883 358.621 519.678Z" fill="black"/>
<path opacity="0.1" d="M360.864 525.912C365.54 526.224 370.367 526.877 374.8 525.357C371.09 524.08 367.007 524.885 363.099 524.498C359.982 524.186 356.812 523.106 353.771 523.897C352.501 524.224 347.826 526.376 348.145 527.949C352.137 526.183 356.52 525.481 360.864 525.912V525.912Z" fill="black"/>
<path opacity="0.1" d="M348.479 536.13C349.458 536.027 350.448 536.13 351.384 536.434C354.891 537.259 358.485 537.655 362.088 537.612C364.84 537.612 367.805 537.194 369.812 535.331L348.479 536.13Z" fill="black"/>
<path opacity="0.1" d="M333.419 559.918C336.688 561.42 340.283 562.073 343.872 561.819C347.446 561.556 350.977 560.877 354.394 559.797C355.915 559.348 357.572 558.786 358.462 557.463L333.419 559.918Z" fill="black"/>
<path opacity="0.1" d="M367.076 563.264C374.189 567.332 382.111 569.785 390.279 570.448C386.158 568.796 382.007 567.232 377.826 565.757C373.549 564.259 369.165 563.084 364.711 562.245C365.558 562.428 366.361 562.774 367.076 563.264Z" fill="black"/>
<path opacity="0.1" d="M378.563 558.907C379.992 559.145 381.443 559.224 382.889 559.143C383.649 559.143 384.554 559.036 385.003 558.383C381.741 558.52 378.525 557.683 375.34 556.961C374.435 556.748 372.808 556.246 372.048 556.786C373.492 557.82 376.738 558.542 378.563 558.907Z" fill="black"/>
<path opacity="0.1" d="M398.17 626.822C399.881 629.756 401.614 632.721 403.979 635.185C405.345 636.528 406.801 637.777 408.335 638.925C405.515 631.733 402.648 624.48 398.132 618.193C396.992 616.611 395.289 614.346 393.213 614.057C392.62 615.813 394.118 618.922 394.84 620.572C395.832 622.716 396.944 624.803 398.17 626.822V626.822Z" fill="black"/>
<path opacity="0.1" d="M315.051 573.041C314.921 574.257 314.823 575.603 315.53 576.599C315.879 577.09 316.391 577.442 316.974 577.595C316.609 577.503 316.214 573.93 316.123 573.443C315.955 572.448 316.123 570.585 315.416 569.847C315.233 570.897 315.165 571.976 315.051 573.041Z" fill="black"/>
<path opacity="0.1" d="M319.004 571.642C319.255 572.713 319.722 573.721 320.375 574.606C321.029 575.491 321.856 576.234 322.805 576.789C321.475 575.146 321.042 572.987 319.886 571.186C319.513 570.608 319.08 569.779 318.365 569.665C318.545 570.334 318.759 570.994 319.004 571.642V571.642Z" fill="black"/>
<path opacity="0.1" d="M315.659 549.746C314.537 550.413 313.29 550.842 311.995 551.006C310.7 551.169 309.385 551.064 308.132 550.696C307.562 550.529 306.232 549.936 306.551 549.1C306.87 548.264 308.414 548.841 309.045 548.917L312.352 549.336C312.96 549.412 315.165 550.035 315.659 549.746Z" fill="black"/>
<path opacity="0.1" d="M304.468 555.159C306.026 554.961 307.425 556.041 308.885 556.626C310.5 557.165 312.203 557.392 313.903 557.295C314.754 557.295 315.72 557.227 316.244 556.535C312.283 555.631 308.581 554.635 304.468 555.159Z" fill="black"/>
<path d="M323.261 509.444H323.512L325.375 516.142L323.261 518.393V509.444Z" fill="#A36468"/>
<g opacity="0.1">
<path d="M282.07 456.34C281.84 457.427 281.725 458.536 281.728 459.647C281.823 459.298 281.892 458.942 281.934 458.583C282.025 457.853 282.017 457.085 282.07 456.34Z" fill="black"/>
<path d="M304.749 457.207C304.934 457.218 305.114 457.267 305.278 457.35C305.443 457.434 305.588 457.551 305.705 457.694C305.823 457.837 305.909 458.002 305.959 458.18C306.009 458.358 306.021 458.544 305.996 458.727C306.353 457.465 306.551 455.914 305 455.686C303.647 455.519 301.777 456.956 301.092 458.005C300.408 459.054 300.241 460.385 299.754 461.548C298.825 463.549 297.149 465.107 295.086 465.889C293.037 466.656 290.865 467.043 288.677 467.029C285.454 467.128 281.888 466.68 279.554 464.551C279.275 464.848 278.972 465.123 278.649 465.372C280.93 468.086 284.883 468.626 288.434 468.52C290.619 468.532 292.789 468.146 294.835 467.379C296.899 466.596 298.577 465.038 299.511 463.038C299.997 461.875 300.15 460.56 300.841 459.503C301.533 458.446 303.396 457.04 304.749 457.207Z" fill="black"/>
<path d="M344.906 483.71C343.809 483.97 342.658 483.88 341.614 483.451C340.772 482.912 340.081 482.166 339.607 481.284C338.421 479.46 337.233 477.635 336.042 475.81C335.121 474.167 333.892 472.716 332.423 471.538C330.902 470.451 328.735 470.017 327.101 470.975C325.649 471.827 324.949 473.568 324.782 475.24C324.782 475.309 324.782 475.377 324.782 475.446C325.057 474.219 325.803 473.149 326.858 472.465C328.477 471.507 330.659 471.948 332.179 473.028C333.647 474.21 334.878 475.66 335.806 477.301C336.992 479.125 338.18 480.95 339.372 482.774C339.84 483.659 340.532 484.406 341.379 484.941C342.419 485.37 343.568 485.46 344.663 485.2C346.42 484.939 348.154 484.54 349.848 484.006C349.514 483.644 349.204 483.261 348.92 482.858C347.602 483.226 346.261 483.51 344.906 483.71Z" fill="black"/>
<path d="M324.463 482.09C323.92 482.569 323.225 482.838 322.501 482.85L320.221 483.162C320.015 483.235 319.796 483.265 319.578 483.252C319.36 483.238 319.147 483.181 318.952 483.084C318.756 482.987 318.582 482.852 318.439 482.686C318.297 482.521 318.189 482.329 318.122 482.121C316.229 478.684 314.922 474.434 311.371 472.785C309.182 471.766 306.3 471.834 304.894 469.873C304.18 468.675 303.939 467.255 304.217 465.889C304.179 466.125 304.126 466.353 304.088 466.581C303.814 468.208 303.677 470.025 304.643 471.363C306.049 473.324 308.938 473.256 311.12 474.275C314.678 475.924 315.986 480.174 317.879 483.611C318.052 484.042 318.358 484.408 318.753 484.652C319.148 484.784 319.572 484.803 319.977 484.706L322.258 484.394C322.983 484.387 323.68 484.117 324.22 483.634C324.584 483.102 324.748 482.458 324.683 481.817V481.817C324.617 481.913 324.543 482.005 324.463 482.09Z" fill="black"/>
</g>
<path d="M639.128 661.36L634.255 660.684V588.74L635.251 589.044L638.292 589.979V592.374V594.176V596.905L638.33 600.03L638.398 606.462V607.108V607.967V609.792V610.894V613.563V615.235L638.763 647.63V648.497L638.893 659.901V660.076L639.128 661.36Z" fill="#EAECF0"/>
<path d="M641.865 661.741L639.151 661.36V660.06V659.885L639.022 648.482V647.615L638.657 615.22V613.547V610.879V609.777V607.952V607.093V606.447L638.588 600.015L638.55 596.89V594.161V592.359V589.964H641.477V592.61V594.419V596.502V599.262L641.538 606.211V607.731V609.32V610.43V611.791V613.563L641.82 647.562V648.436L641.911 659.741V659.923L641.865 661.741Z" fill="#D3DAE1"/>
<path d="M937.608 579.822V641.92C936.163 642.934 934.683 643.93 933.168 644.908L933.107 593.21V587.721L937.608 579.822Z" fill="#EAECF0"/>
<path d="M940.771 578.925V639.518C939.737 640.347 938.68 641.145 937.608 641.928V579.822L940.771 578.925Z" fill="#D3DAE1"/>
<path d="M870.172 666.926C868.302 667.306 866.424 667.686 864.546 668.013L864.478 611.822V609.389L869.899 607.108V612.263L870.172 666.926Z" fill="#EAECF0"/>
<path d="M873.746 605.329V666.15C872.56 666.409 871.374 666.652 870.188 666.91L869.937 612.27V607.116L870.294 606.948L873.746 605.329Z" fill="#D3DAE1"/>
<path d="M551.508 650.093L546.452 649.584L545.806 586.224V584.414V583.205H550.77V584.84V586.649L551.508 650.093Z" fill="#EAECF0"/>
<path d="M555.271 650.496L551.47 650.093L550.709 586.649V584.84V583.205H554.549V585.174V586.984L555.271 650.496Z" fill="#D3DAE1"/>
<path opacity="0.1" d="M870.256 606.956L873.73 605.321V612.992L870.347 614.125L870.256 606.956Z" fill="black"/>
<path opacity="0.1" d="M940.763 578.91V590.648L937.608 591.705L933.099 593.203L933.092 587.714L937.608 579.815L940.763 578.91Z" fill="black"/>
<path d="M940.763 556.345V588.846L870.347 612.316L869.891 577.557L940.763 556.345Z" fill="#D48A9B"/>
<path d="M544.871 554.087L637.41 536.479L940.763 556.345L869.891 577.557L544.871 554.087Z" fill="#EFC6CD"/>
<path opacity="0.1" d="M554.579 583.205L554.61 586.976L550.778 586.642L545.798 586.216L545.776 583.205H554.579Z" fill="black"/>
<path opacity="0.1" d="M641.287 594.427L638.36 594.168L634.255 593.819V588.74L638.315 589.972H641.249L641.287 594.427Z" fill="black"/>
<path d="M544.871 554.087V584.33L870.347 612.316L869.891 577.557L544.871 554.087Z" fill="#D48A9B"/>
<path d="M802.935 590.048H760.421V574.622L802.935 577.617V590.048Z" fill="#D48A9B"/>
<path opacity="0.1" d="M802.935 590.048H760.421V574.622L802.935 577.617V590.048Z" fill="black"/>
<path opacity="0.1" d="M703.317 571.239V595.613L866.508 608.028V582.072L802.859 578.461L796.533 584.102L770.578 582.301L761.325 575.527L703.317 571.239Z" fill="black"/>
<path d="M702.413 570.334V594.716L865.603 607.123V581.168L801.954 577.557L795.636 583.205L769.673 581.396L760.421 574.622L702.413 570.334Z" fill="white"/>
<path d="M601.746 563.788L640.345 566.502L639.896 578.765H614.693L597.838 572.143L601.746 563.788Z" fill="#D48A9B"/>
<path opacity="0.1" d="M601.746 563.788L640.345 566.502L639.896 578.765H614.693L597.838 572.143L601.746 563.788Z" fill="black"/>
<path opacity="0.1" d="M550.292 560.405V582.301L698.353 594.039V570.79L641.249 567.399L635.152 571.915L612.131 570.562L602.651 564.693L550.292 560.405Z" fill="black"/>
<path d="M549.387 559.5V581.396L697.448 593.134V569.885L640.345 566.502L634.255 571.011L611.227 569.657L601.746 563.788L549.387 559.5Z" fill="white"/>
<path opacity="0.1" d="M866.523 559.584L887.278 560.945L852.892 571.239L835.375 569.977L866.523 559.584Z" fill="black"/>
<path d="M866.523 558.687L887.278 560.04L852.892 570.334L835.375 569.072L866.523 558.687Z" fill="white"/>
<path d="M864.045 561.021C864.866 560.663 865.74 561.325 866.614 561.492C867.109 561.591 867.626 561.492 868.135 561.591C869.154 561.728 870.157 562.404 871.13 562.062L864.045 561.021Z" fill="#D3DAE1"/>
<path d="M862.973 561.637C863.786 561.287 864.661 561.948 865.535 562.116C866.037 562.207 866.554 562.116 867.055 562.207C868.067 562.344 869.078 563.028 870.051 562.686L862.973 561.637Z" fill="#D3DAE1"/>
<path d="M860.509 562.883C861.323 562.534 862.197 563.188 863.071 563.355C863.573 563.454 864.083 563.355 864.592 563.454C865.611 563.591 866.622 564.275 867.587 563.925L860.509 562.883Z" fill="#D3DAE1"/>
<path opacity="0.1" d="M726.49 548.195L772.767 551.229L762.907 565.392L712.03 559.956L726.49 548.195Z" fill="black"/>
<path d="M725.585 547.29L771.863 550.316L762.002 564.488L711.118 559.052L725.585 547.29Z" fill="#3A3768"/>
<path d="M727.623 548.332L767.985 550.803L759.387 562.344L715.01 557.911L727.623 548.332Z" fill="#D5E1F4"/>
<path d="M700.557 664.075C700.557 664.287 700.558 664.508 700.519 664.721C700.481 664.934 700.519 665.101 700.459 665.291C700.297 666.631 699.925 667.937 699.356 669.161V669.161C680.236 667.009 661.069 664.424 641.88 661.771L639.166 661.391L634.293 660.714L630.187 660.144C625.694 660.031 621.213 659.612 616.776 658.89C613.981 658.476 611.214 657.892 608.49 657.141C596.325 655.476 584.093 653.872 571.898 652.412L570.309 652.222C570.598 650.93 570.841 650.146 570.841 650.146C570.841 650.146 573.457 639.868 575.631 628.38C576.11 625.886 576.566 623.347 576.961 620.831C577.281 618.816 577.57 616.824 577.813 614.908C577.95 613.852 578.064 612.818 578.163 611.806C578.216 611.305 578.261 610.803 578.3 610.286C578.338 609.769 578.383 609.206 578.421 608.682C578.459 608.157 578.474 607.693 578.497 607.214V606.5C578.497 605.473 578.497 604.401 578.459 603.299C578.074 597.808 577.209 592.362 575.874 587.022C575.661 586.11 575.441 585.197 575.213 584.308C575.144 584.019 575.068 583.737 574.992 583.456C572.537 573.945 569.67 566.175 569.67 566.175C569.667 566.132 569.667 566.089 569.67 566.046C569.674 566.016 569.674 565.985 569.67 565.955C569.674 565.892 569.674 565.828 569.67 565.765C569.67 565.522 569.67 565.149 569.67 564.7C569.67 564.609 569.67 564.51 569.67 564.412C569.726 563.614 569.864 562.824 570.081 562.055C570.164 561.781 570.26 561.512 570.37 561.249C570.641 560.484 571.095 559.797 571.691 559.246C572.286 558.695 573.007 558.297 573.791 558.086V558.086C575.943 557.531 579.197 558.086 584.108 560.998C584.908 561.46 585.67 561.984 586.389 562.564C586.754 562.853 587.149 563.157 587.453 563.484C593.079 568.722 596.074 577.366 597.671 585.258C597.732 585.539 597.785 585.821 597.838 586.102C598.028 587.075 598.188 588.025 598.332 588.96C598.591 590.603 598.796 592.184 598.948 593.651C598.948 594.047 599.032 594.412 599.07 594.815C599.108 595.217 599.146 595.575 599.169 595.94C599.268 597.126 599.336 598.22 599.382 599.148C599.511 601.611 599.488 603.124 599.488 603.124V603.2C599.488 603.2 599.488 603.314 599.45 603.527C599.446 603.547 599.446 603.568 599.45 603.588C599.45 603.679 599.45 603.793 599.45 603.922C599.45 604.052 599.45 604.143 599.45 604.272C599.42 604.592 599.382 604.964 599.336 605.39C599.268 606.044 599.192 606.811 599.1 607.671C599.039 608.309 598.963 609.001 598.887 609.731C598.72 611.251 598.538 613.015 598.34 614.87C598.294 615.22 598.256 615.57 598.218 615.919C598.044 617.508 597.861 619.166 597.671 620.838C597.466 622.739 597.238 624.64 597.017 626.517C596.964 626.928 596.911 627.339 596.865 627.742C596.303 632.303 595.74 636.447 595.284 639.024C595.212 639.406 595.161 639.792 595.132 640.179C595.124 640.311 595.124 640.443 595.132 640.575C595.109 640.919 595.109 641.264 595.132 641.609C595.504 648.101 602.521 649.211 602.521 649.211L634.384 648.58L639.113 648.489L641.865 648.436L666.703 647.942L668.984 647.896L681.338 647.653C682.177 647.633 683.014 647.733 683.824 647.949C687.639 648.974 691.278 650.566 694.62 652.671C695.664 653.341 696.604 654.16 697.41 655.103C697.449 655.14 697.485 655.181 697.516 655.225C699.202 657.245 700.242 659.724 700.504 662.341C700.504 662.516 700.504 662.691 700.504 662.866C700.565 663.231 700.565 663.641 700.557 664.075Z" fill="#3A3768"/>
<path opacity="0.1" d="M700.558 664.075C700.558 664.287 700.558 664.508 700.52 664.721C700.482 664.934 700.52 665.101 700.459 665.291C700.277 666.631 699.893 667.936 699.318 669.161C680.198 667.009 661.031 664.424 641.842 661.771L639.128 661.391L634.255 660.714L630.15 660.144C625.656 660.031 621.175 659.612 616.738 658.89C613.943 658.476 611.176 657.892 608.452 657.141C596.287 655.476 584.055 653.872 571.86 652.412L570.271 652.222C570.56 650.884 570.819 650.07 570.819 650.07C570.819 650.07 572.955 641.708 574.985 631.573C575.129 630.874 575.266 630.174 575.403 629.467L575.608 628.395C576.08 625.909 576.536 623.355 576.939 620.846C577.258 618.831 577.547 616.839 577.79 614.923C577.927 613.867 578.041 612.833 578.14 611.822C578.193 611.32 578.239 610.818 578.277 610.301C578.315 609.784 578.36 609.221 578.398 608.697C578.436 608.172 578.452 607.709 578.474 607.23V606.515C578.474 605.489 578.474 604.417 578.436 603.314C578.063 597.824 577.206 592.377 575.874 587.037C575.661 586.115 575.441 585.21 575.213 584.323C575.137 584.034 575.068 583.753 574.992 583.471C572.529 573.93 569.671 566.115 569.671 566.115C569.672 566.097 569.672 566.079 569.671 566.061C569.674 566.031 569.674 566 569.671 565.97C569.674 565.907 569.674 565.843 569.671 565.78C569.671 565.537 569.671 565.164 569.671 564.716C569.671 564.624 569.671 564.526 569.671 564.427C569.719 563.63 569.849 562.84 570.058 562.07C570.142 561.804 570.233 561.53 570.34 561.264C570.613 560.457 571.088 559.733 571.718 559.16C572.348 558.587 573.114 558.183 573.943 557.987C576.095 557.486 579.311 558.109 584.116 560.922C584.949 561.411 585.742 561.965 586.488 562.579V562.579C586.845 562.876 587.187 563.172 587.522 563.492C593.102 568.76 596.074 577.389 597.656 585.258C597.717 585.539 597.77 585.828 597.823 586.109C598.013 587.075 598.173 588.033 598.317 588.96C598.576 590.603 598.773 592.176 598.926 593.636C598.964 594.039 599.009 594.434 599.04 594.815C599.07 595.195 599.116 595.575 599.138 595.94C599.237 597.126 599.306 598.22 599.351 599.148C599.48 601.611 599.458 603.124 599.458 603.124V603.383C599.458 603.428 599.458 603.474 599.458 603.527C599.453 603.547 599.453 603.568 599.458 603.588C599.458 603.679 599.458 603.793 599.458 603.922C599.458 604.052 599.458 604.143 599.458 604.272C599.427 604.592 599.389 604.964 599.344 605.39C599.275 606.044 599.199 606.811 599.108 607.671C599.032 608.302 598.963 608.993 598.887 609.731C598.72 611.251 598.538 613.015 598.34 614.87C598.294 615.22 598.256 615.57 598.218 615.919C598.044 617.508 597.854 619.181 597.671 620.854C597.451 622.754 597.23 624.655 597.002 626.525C596.949 626.936 596.903 627.346 596.85 627.749C596.295 632.311 595.74 636.393 595.284 638.955C595.209 639.365 595.158 639.779 595.132 640.195C595.124 640.326 595.124 640.458 595.132 640.59C595.109 640.934 595.109 641.28 595.132 641.624C595.565 648.041 602.522 649.113 602.522 649.113L634.384 648.489L639.105 648.39L641.865 648.337L666.749 647.85L669.075 647.805L681.384 647.562C682.223 647.534 683.061 647.634 683.87 647.858C687.713 648.854 691.382 650.431 694.749 652.534C695.811 653.213 696.765 654.048 697.577 655.012C697.617 655.049 697.652 655.09 697.684 655.134C699.368 657.162 700.396 659.654 700.634 662.28C700.634 662.455 700.634 662.63 700.634 662.805C700.565 663.231 700.565 663.641 700.558 664.075Z" fill="black"/>
<path d="M700.611 669.275L699.356 669.13C680.236 666.979 661.07 664.394 641.88 661.74L639.166 661.36L634.293 660.684L630.188 660.114C625.694 660.001 621.213 659.582 616.777 658.859C613.981 658.446 611.214 657.862 608.49 657.111C596.325 655.446 584.093 653.841 571.898 652.382C572.096 651.315 572.35 650.259 572.658 649.219C572.658 649.219 579.881 620.777 580.329 605.656C580.489 600.25 579.417 593.56 577.965 587.181C577.752 586.262 577.539 585.349 577.311 584.452L577.106 583.601C574.529 573.603 571.465 565.24 571.465 565.24C571.393 564.206 571.452 563.166 571.64 562.146C571.687 561.872 571.748 561.6 571.822 561.332C572.114 560.058 572.8 558.909 573.784 558.048C573.829 558.008 573.877 557.973 573.928 557.942C575.928 556.421 579.516 556.315 585.902 560.055C587.196 560.819 588.393 561.735 589.468 562.785C589.772 563.073 590.076 563.378 590.365 563.689C595.497 569.247 598.218 577.762 599.648 585.38L599.807 586.223C599.975 587.174 600.119 588.109 600.256 589.014C600.256 589.014 600.256 589.067 600.256 589.09C600.431 590.291 600.575 591.439 600.697 592.534C601.053 595.758 601.236 598.999 601.244 602.242C601.244 602.242 600.948 605.245 600.484 609.571C600.309 611.267 600.104 613.167 599.884 615.174C599.884 615.273 599.884 615.372 599.884 615.478L599.769 616.543C599.382 620.048 598.956 623.788 598.523 627.255C598.477 627.681 598.424 628.099 598.371 628.509C597.884 632.409 597.397 635.876 596.994 638.134C595.413 646.938 604.217 648.291 604.217 648.291L634.278 647.698L638.991 647.607L641.751 647.546H642.907H643.279L667.121 647.075H669.402L683.087 646.801C683.926 646.78 684.764 646.882 685.573 647.105C689.417 648.101 693.088 649.675 696.46 651.773C697.405 652.384 698.266 653.115 699.022 653.948C699.069 653.995 699.112 654.046 699.151 654.1C700.938 656.165 702.039 658.736 702.3 661.455C702.562 664.173 701.971 666.906 700.611 669.275Z" fill="#3A3768"/>
<path d="M808.082 531.849L817.38 551.768H815.821L804.919 532.085L808.082 531.849Z" fill="#4C4C56"/>
<path opacity="0.1" d="M808.082 531.849L817.38 551.768H815.821L804.919 532.085L808.082 531.849Z" fill="black"/>
<path d="M808.082 551.768H817.38V553.851L808.082 554.087V551.768Z" fill="#4C4C56"/>
<path opacity="0.1" d="M808.082 551.768H817.38V553.851L808.082 554.087V551.768Z" fill="black"/>
<path d="M735.758 458.552V528.109C735.758 529.478 736.302 530.791 737.27 531.759C738.238 532.727 739.551 533.271 740.92 533.271H856.86C857.543 533.271 858.218 533.135 858.847 532.871C859.476 532.607 860.046 532.22 860.524 531.733C861.002 531.246 861.378 530.669 861.63 530.035C861.882 529.401 862.005 528.723 861.992 528.041L860.677 458.423C860.651 457.079 860.099 455.799 859.139 454.858C858.18 453.917 856.889 453.39 855.545 453.39H740.92C740.242 453.39 739.571 453.524 738.945 453.783C738.318 454.043 737.749 454.423 737.27 454.902C736.79 455.382 736.41 455.951 736.151 456.577C735.891 457.203 735.758 457.875 735.758 458.552V458.552Z" fill="#4C4C56"/>
<path opacity="0.1" d="M735.758 458.552V528.109C735.758 529.478 736.302 530.791 737.27 531.759C738.238 532.727 739.551 533.271 740.92 533.271H856.86C857.543 533.271 858.218 533.135 858.847 532.871C859.476 532.607 860.046 532.22 860.524 531.733C861.002 531.246 861.378 530.669 861.63 530.035C861.882 529.401 862.005 528.723 861.992 528.041L860.677 458.423C860.651 457.079 860.099 455.799 859.139 454.858C858.18 453.917 856.889 453.39 855.545 453.39H740.92C740.242 453.39 739.571 453.524 738.945 453.783C738.318 454.043 737.749 454.423 737.27 454.902C736.79 455.382 736.41 455.951 736.151 456.577C735.891 457.203 735.758 457.875 735.758 458.552V458.552Z" fill="black"/>
<path d="M731.576 458.552V528.109C731.576 529.478 732.12 530.791 733.088 531.759C734.057 532.727 735.369 533.271 736.739 533.271H852.679C853.361 533.271 854.036 533.135 854.665 532.871C855.293 532.607 855.863 532.22 856.34 531.733C856.818 531.246 857.193 530.668 857.444 530.034C857.695 529.4 857.817 528.722 857.803 528.041L856.488 458.423C856.462 457.081 855.911 455.802 854.953 454.861C853.995 453.92 852.706 453.392 851.364 453.39H736.769C736.089 453.386 735.414 453.517 734.784 453.774C734.154 454.032 733.582 454.412 733.099 454.891C732.617 455.371 732.234 455.942 731.972 456.57C731.711 457.198 731.576 457.872 731.576 458.552V458.552Z" fill="#4C4C56"/>
<path d="M736.138 462.901V524.14C736.138 525.509 736.682 526.823 737.65 527.791C738.618 528.759 739.931 529.303 741.3 529.303H848.657C850.018 529.303 851.323 528.762 852.286 527.8C853.248 526.837 853.789 525.532 853.789 524.171V462.863C853.787 461.503 853.245 460.2 852.283 459.239C851.321 458.279 850.017 457.739 848.657 457.739H741.3C739.931 457.739 738.618 458.283 737.65 459.251C736.682 460.219 736.138 461.532 736.138 462.901V462.901Z" fill="#41669F"/>
<path d="M782.59 532.131L792.785 551.768H815.821L804.303 529.303L782.59 532.131Z" fill="#4C4C56"/>
<path d="M774.47 551.768L772.767 553.851H808.082V551.768H774.47Z" fill="#4C4C56"/>
<path d="M623.176 469.716C623.799 473.082 624.423 476.453 625.565 479.665C625.572 479.688 625.58 479.709 625.588 479.732C625.6 479.764 625.613 479.799 625.626 479.847C625.482 479.796 625.35 479.716 625.238 479.612C625.014 479.372 624.85 479.083 624.759 478.768C623.598 475.531 622.965 472.143 622.333 468.763C621.562 464.641 620.794 460.53 619.073 456.72C618.574 455.736 618.14 454.72 617.773 453.679C617.703 453.459 617.644 453.236 617.598 453.01L617.773 452.904L617.963 452.828L618.153 452.774L618.343 452.729C618.384 453.401 618.501 454.067 618.692 454.713C619.058 455.752 619.487 456.768 619.977 457.754C621.663 461.538 622.419 465.623 623.176 469.716Z" fill="url(#paint1_linear_119_629)"/>
<path d="M650.988 483.664C649.791 485.012 648.807 486.535 648.069 488.18C647.955 488.431 647.841 488.674 647.734 488.94C644.374 496.543 643.234 507.301 643.234 507.301C643.234 507.301 641.15 506.365 638.201 504.906C632.704 502.184 624.219 497.653 620.791 494.042C619.27 492.407 618.723 490.963 619.985 489.951C620.258 489.731 620.54 489.48 620.821 489.191C621.793 488.219 622.681 487.166 623.474 486.044C624.569 484.523 625.649 482.828 626.667 481.087C627.268 480.068 627.838 479.042 628.37 478.046L628.583 477.65C630.864 473.324 632.529 469.63 632.529 469.63C632.529 469.63 633.289 469.873 634.521 470.306C640.2 472.336 655.839 478.502 650.988 483.664Z" fill="#EFB7B9"/>
<path d="M755.053 659.809C755.053 659.809 755.981 666.697 757.159 673.966L754.46 673.829C747.243 673.454 740.018 672.975 732.785 672.392C728.68 662.881 724.422 651.591 724.422 651.416C724.422 651.241 724.293 647.524 724.149 643.373C724.103 641.913 724.05 640.408 724.004 638.993C723.928 636.849 723.86 634.918 723.822 633.717C723.822 632.896 723.776 632.41 723.776 632.41C723.776 632.41 719.868 633.094 716.356 633.573L714.797 633.778C713.991 633.877 713.277 633.953 712.631 633.999C712.074 634.083 711.507 634.083 710.95 633.999C709.749 633.535 712.243 621.834 712.243 621.834L718.447 606.819L720.18 602.638L720.94 602.448C721.313 602.356 721.815 602.25 722.415 602.136C728.338 601.049 744.159 599.665 746.842 615.281C750.165 634.569 750.644 638.902 750.644 638.902L755.053 659.809Z" fill="#EFB7B9"/>
<path opacity="0.05" d="M755.053 659.809C755.053 659.809 755.981 666.697 757.159 673.966L754.46 673.829C747.243 673.454 740.018 672.975 732.785 672.392C728.68 662.881 724.422 651.591 724.422 651.416C724.422 651.241 724.293 647.524 724.149 643.373C724.103 641.913 724.05 640.408 724.004 638.993C723.928 636.849 723.86 634.918 723.822 633.717C723.822 632.896 723.776 632.41 723.776 632.41C723.776 632.41 719.868 633.094 716.356 633.573L714.797 633.778C713.991 633.877 713.277 633.953 712.631 633.999C712.074 634.083 711.507 634.083 710.95 633.999C709.749 633.535 712.243 621.834 712.243 621.834L718.447 606.819L720.18 602.638L720.94 602.448C721.313 602.356 721.815 602.25 722.415 602.136C728.338 601.049 744.159 599.665 746.842 615.281C750.165 634.569 750.644 638.902 750.644 638.902L755.053 659.809Z" fill="black"/>
<path d="M754.46 673.829C747.243 673.454 740.018 672.975 732.785 672.392L730.048 672.171L728.839 672.072C725.433 663.854 722.408 655.818 722.408 655.674C722.408 655.529 722.278 651.781 722.134 647.63C721.959 642.445 721.761 636.667 721.761 636.667L721.252 636.751L721.039 636.789H720.948H720.765L719.541 636.994L718.872 637.1C717.663 637.298 716.204 637.519 714.775 637.724L714.455 637.769L713.619 637.876L712.859 637.967C712.273 638.043 711.718 638.104 711.216 638.15L710.601 638.203C710.044 638.292 709.477 638.292 708.92 638.203C707.719 637.739 710.213 626.038 710.213 626.038L718.15 606.842L718.424 606.766C718.842 606.659 719.724 606.454 720.917 606.249C721.366 606.173 721.86 606.097 722.392 606.028C729.28 605.146 742.387 605.397 744.813 619.485C748.135 638.773 748.614 643.106 748.614 643.106L753.046 664.074C753.046 664.074 753.624 668.408 754.46 673.829Z" fill="#EFB7B9"/>
<path opacity="0.1" d="M722.134 647.63C721.959 642.445 721.761 636.659 721.761 636.659C721.761 636.659 714.159 637.99 710.616 638.248L711.33 635.831C711.33 635.831 724.346 632.235 724.62 634.265C724.818 635.686 723.145 643.243 722.134 647.63Z" fill="black"/>
<path opacity="0.1" d="M722.407 602.098V607.595C722.407 607.595 721.761 617.478 716.683 632.6C716.576 632.926 716.462 633.246 716.341 633.565C715.808 635.02 715.178 636.437 714.455 637.807C713.026 638.005 711.642 638.172 710.616 638.248C710.059 638.334 709.492 638.334 708.936 638.248C707.734 637.785 710.22 626.084 710.22 626.084L718.158 606.895L718.439 606.819L720.165 602.63C720.165 602.63 721.016 602.356 722.407 602.098Z" fill="black"/>
<path d="M720.933 601.231V607.595C720.933 607.595 720.286 617.478 715.208 632.607C715.079 633.003 714.934 633.367 714.79 633.77C714.645 634.173 714.455 634.652 714.265 635.078C713.847 636.089 713.376 637.07 712.881 638.013C708.905 645.547 702.846 650.937 698.999 653.902C698.436 654.336 697.912 654.716 697.479 655.035H697.44C696.68 655.552 696.133 655.924 695.783 656.145C695.433 656.365 695.403 656.381 695.403 656.381C691.799 654.168 681.559 653.796 681.559 653.796L657.656 658.137C652.431 659.037 647.159 659.636 641.865 659.931L639.151 660.06C637.585 660.121 635.958 660.159 634.293 660.167C632.947 660.167 631.579 660.167 630.188 660.114C625.694 660.001 621.213 659.582 616.777 658.859C614.336 658.458 611.92 657.923 609.539 657.255C607.841 656.784 606.169 656.226 604.529 655.582C587.803 649.014 592.159 633.436 594.98 626.692C595.132 626.335 595.276 626.008 595.413 625.704C596.037 624.328 596.5 623.522 596.5 623.522L597.61 620.838L599.427 616.436L599.83 615.471L599.944 615.19L601.29 611.928L620.297 609.465L634.263 607.655L638.512 607.108L641.394 606.735L646.891 606.021L648.958 605.755C650.234 605.557 651.522 605.455 652.813 605.451C653.51 605.418 654.208 605.521 654.866 605.755C656.386 606.447 667.973 604.553 667.973 604.553C667.973 604.553 677.012 601.786 684.949 602.706C688.874 602.977 692.813 603.002 696.741 602.782V602.782L697.714 602.736L698.976 602.683H699.25C709.529 602.204 720.933 601.231 720.933 601.231Z" fill="#444053"/>
<path opacity="0.1" d="M652.547 620.329C652.547 620.329 643.424 641.092 643.044 641.457C642.663 641.822 642.679 648.299 643.044 647.919C643.409 647.539 656.059 619.5 656.059 619.5L652.547 620.329Z" fill="black"/>
<path opacity="0.1" d="M696.749 602.767C696.749 602.767 692.134 605.747 690.75 608.15C689.366 610.552 676.723 634.447 673.591 637.952C670.99 641.087 668.643 644.425 666.574 647.934C666.209 648.565 666.209 652.534 668.421 648.748C670.633 644.962 670.086 644.323 674.42 639.624C678.753 634.926 683.543 624.305 685.398 622.184C687.253 620.063 689.83 613.692 693.061 609.906L699.25 602.676L696.749 602.767Z" fill="black"/>
<path opacity="0.1" d="M697.859 643.768C697.859 643.768 694.627 641.556 691.586 645.334C688.545 649.113 697.859 643.768 697.859 643.768Z" fill="black"/>
<path opacity="0.1" d="M701.827 644.908C701.827 644.908 699.151 649.576 697.859 649.949C696.566 650.321 701.827 644.908 701.827 644.908Z" fill="black"/>
<path opacity="0.1" d="M697.859 646.071C697.859 646.071 695.737 649.766 693.89 649.394L697.859 646.071Z" fill="black"/>
<path d="M682.919 546.317C682.919 546.317 702.481 545.489 704.42 544.842C706.358 544.196 723.518 541.984 723.518 541.984C723.518 541.984 774.364 545.58 759.881 549.921C745.398 554.262 725.738 552.407 725.738 552.407C725.738 552.407 706.541 557.394 703.591 560.01C700.641 562.625 678.86 562.686 678.86 562.686L682.919 546.317Z" fill="#EFB7B9"/>
<path opacity="0.05" d="M682.919 546.317C682.919 546.317 702.481 545.489 704.42 544.842C706.358 544.196 723.518 541.984 723.518 541.984C723.518 541.984 774.364 545.58 759.881 549.921C745.398 554.262 725.738 552.407 725.738 552.407C725.738 552.407 706.541 557.394 703.591 560.01C700.641 562.625 678.86 562.686 678.86 562.686L682.919 546.317Z" fill="black"/>
<path d="M613.332 501.751C613.332 501.751 595.428 507.833 604.103 523.342C612.777 538.852 623.946 546.15 623.946 546.15L652.737 566.084C652.737 566.084 664.825 573.003 670.36 570.144L679.399 569.384L680.92 545.663C680.92 545.663 673.317 551.571 665.046 543.383C656.774 535.195 646.586 529.63 645.758 525.205C644.929 520.78 623.756 497.965 613.332 501.751Z" fill="#A36468"/>
<path d="M669.896 551.951C669.896 551.951 679.217 555.273 678.852 555.456C678.487 555.638 669.896 558.869 669.896 558.869L670.542 571.512L683.185 570.821C683.185 570.821 687.8 547.8 683.832 545.489L669.896 544.842V551.951Z" fill="#67647E"/>
<path opacity="0.1" d="M669.896 551.951C669.896 551.951 679.217 555.273 678.852 555.456C678.487 555.638 669.896 558.869 669.896 558.869L670.542 571.512L683.185 570.821C683.185 570.821 687.8 547.8 683.832 545.489L669.896 544.842V551.951Z" fill="black"/>
<path opacity="0.1" d="M650.988 483.664C649.791 485.012 648.807 486.535 648.069 488.18C647.955 488.431 647.841 488.674 647.734 488.94C640.945 488.94 636.064 483.664 631.898 478.943C631.138 478.068 629.215 479.391 628.584 478.411C628.515 478.297 628.447 478.182 628.371 478.068L628.584 477.673C630.864 473.347 632.529 469.652 632.529 469.652C632.529 469.652 633.29 469.896 634.521 470.329C640.2 472.336 655.839 478.502 650.988 483.664Z" fill="black"/>
<path d="M670.755 465.304C670.754 471.335 668.371 477.121 664.125 481.405C659.88 485.689 654.115 488.124 648.084 488.18H647.864C644.615 488.182 641.404 487.491 638.444 486.154C635.484 484.817 632.843 482.864 630.697 480.425C629.929 479.554 629.228 478.626 628.599 477.65C626.677 474.656 625.48 471.256 625.102 467.719C624.724 464.181 625.175 460.605 626.421 457.272C627.666 453.94 629.671 450.944 632.276 448.521C634.882 446.099 638.016 444.317 641.43 443.317C644.844 442.317 648.444 442.127 651.944 442.761C655.445 443.395 658.749 444.836 661.596 446.97C664.442 449.104 666.752 451.872 668.342 455.055C669.932 458.237 670.758 461.746 670.755 465.304Z" fill="#EFB7B9"/>
<path opacity="0.1" d="M647.476 607.222C647.476 607.222 645.735 609.351 643.811 611.335C642.359 612.856 640.808 614.247 639.812 614.604C637.532 615.44 627.078 623.37 627.078 623.37C627.078 623.37 618.776 629.004 616.655 630.661C614.534 632.318 606.87 631.307 606.87 631.307C606.87 631.307 599.496 629.695 594.927 626.746C595.371 625.662 595.878 624.606 596.447 623.583L601.244 611.951L620.251 609.495L647.476 607.222Z" fill="black"/>
<path d="M647.103 605.747C647.103 605.747 645.37 607.876 643.447 609.86C641.994 611.381 640.405 612.772 639.448 613.129C637.167 613.958 626.713 621.895 626.713 621.895C626.713 621.895 618.403 627.529 616.282 629.186C614.161 630.843 606.505 629.832 606.505 629.832C606.505 629.832 595.983 627.551 592.288 623.37C589.703 620.458 592.38 615.06 594.204 612.088C594.964 610.818 595.611 609.989 595.611 609.989L647.103 605.747Z" fill="#67647E"/>
<path d="M660.765 534.229C654.486 533.674 633.814 508.38 633.814 508.38L634.285 507.734L638.619 501.735H648.753L649.871 507.27C657.58 518.081 662.119 525.6 663.35 529.903C664.24 533.035 663.396 534.465 660.765 534.229Z" fill="#67647E"/>
<path opacity="0.1" d="M660.765 534.229C654.486 533.674 633.814 508.38 633.814 508.38L634.285 507.734C637.991 511.135 641.472 514.771 644.709 518.621C659.838 536.426 662.833 531.454 663.35 529.903C664.24 533.035 663.396 534.465 660.765 534.229Z" fill="black"/>
<path opacity="0.1" d="M647.104 605.747C647.104 605.747 645.37 607.876 643.447 609.86C642.432 610.253 641.362 610.484 640.276 610.544C637.874 610.453 632.339 614.239 632.339 614.239C632.339 614.239 622.562 613.684 620.715 614.695C618.867 615.707 611.759 615.897 611.759 615.897C598.751 619.607 595.155 613.973 594.204 612.095C594.965 610.826 595.611 609.997 595.611 609.997L647.104 605.747Z" fill="black"/>
<path d="M669.698 550.795C669.698 551.153 669.63 551.51 669.584 551.852C669.539 552.194 669.493 552.544 669.44 552.871C669.194 554.749 668.631 556.572 667.775 558.261C666.118 561.028 661.039 571.824 661.039 571.824L660.697 573.816L660.522 574.858L660.34 575.884L659.1 583.16L658.545 591.561C658.545 591.561 655.504 595.803 654.212 597.643C652.919 599.483 653.102 602.166 653.566 604.105C654.029 606.044 649.323 606.317 649.323 606.317C649.323 606.317 642.679 609.548 640.276 609.457C637.874 609.366 632.339 613.137 632.339 613.137C632.339 613.137 622.562 612.582 620.715 613.601C618.867 614.619 611.759 614.802 611.759 614.802C597.831 618.763 594.691 612.027 594.045 610.643C593.398 609.259 596.812 603.634 596.812 603.634C596.812 603.634 597.572 596.525 599.024 595.97C600.477 595.415 602.256 586.011 602.256 586.011C602.256 586.011 601.701 583.144 602.902 581.578C604.103 580.012 604.012 575.58 605.578 573.459C607.144 571.338 603.921 564.229 604.475 562.382C605.03 560.534 602.719 553.061 602.902 551.122C603.084 549.183 602.446 547.617 600.963 543.74C599.701 540.433 600.058 525.737 600.203 521.525C600.203 520.81 600.241 520.4 600.241 520.4C600.241 520.4 601.533 516.241 604.947 507.939C607.532 501.652 613.348 499.272 616.016 498.497C616.474 498.359 616.938 498.245 617.408 498.155C618.077 498.251 618.734 498.417 619.369 498.649C622.06 499.553 627.443 502.116 635.122 509.292C638.519 512.476 641.726 515.857 644.724 519.419C662.035 539.764 663.449 530.268 663.449 530.268C663.449 530.268 664.209 532.002 667.775 538.92C669.683 542.6 670.033 546.994 669.698 550.795Z" fill="#A36468"/>
<path opacity="0.1" d="M641.196 500.618L623.832 486.766C623.832 486.766 617.575 487.526 614.99 498.033L632.864 513.687L641.196 500.618Z" fill="black"/>
<path d="M641.196 500.618L638.155 504.868L635.068 509.224L632.742 512.638L618.472 500.618L616.016 498.489L614.64 497.318C616.031 491.639 618.502 488.803 620.471 487.435C621.366 486.751 622.407 486.285 623.512 486.074L641.196 500.618Z" fill="#67647E"/>
<path d="M760.611 555.456C746.12 559.789 726.467 557.949 726.467 557.949C726.467 557.949 707.271 562.929 704.321 565.552C702.42 567.217 692.712 567.833 686.075 568.084C682.387 568.22 679.627 568.228 679.627 568.228L683.68 551.86L686.021 551.753C691.275 551.51 703.659 550.886 705.18 550.377C707.119 549.731 724.278 547.518 724.278 547.518C724.278 547.518 775.094 551.115 760.611 555.456Z" fill="#EFB7B9"/>
<path opacity="0.1" d="M669.44 552.833C669.194 554.711 668.631 556.534 667.775 558.223C666.118 560.99 661.039 571.786 661.039 571.786L660.34 575.884C657.983 575.008 655.696 573.956 653.497 572.736L624.683 552.78C624.683 552.78 613.515 545.489 604.84 529.972C596.166 514.455 614.07 508.38 614.07 508.38C624.493 504.579 645.628 527.387 646.457 531.819C647.286 536.251 657.443 541.786 665.745 549.997C666.84 551.108 668.083 552.063 669.44 552.833V552.833Z" fill="black"/>
<path opacity="0.1" d="M669.698 550.795C669.63 551.517 669.546 552.209 669.44 552.871C669.194 554.749 668.631 556.572 667.775 558.261C666.118 561.028 661.039 571.824 661.039 571.824L660.697 573.816C658.205 572.917 655.79 571.819 653.474 570.532L624.683 550.567C624.683 550.567 613.515 543.276 604.84 527.759C596.166 512.242 614.07 506.16 614.07 506.16C624.493 502.359 645.628 525.167 646.457 529.599C647.286 534.031 657.443 539.566 665.745 547.785C666.905 548.98 668.237 549.995 669.698 550.795Z" fill="black"/>
<path d="M681.619 551.213L680.144 574.926L671.097 575.686C670.899 575.79 670.693 575.879 670.481 575.952C664.719 578.066 653.474 571.626 653.474 571.626L624.683 551.67C624.683 551.67 613.515 544.379 604.84 528.862C596.166 513.345 614.07 507.27 614.07 507.27C624.493 503.469 645.628 526.277 646.457 530.709C647.286 535.141 657.443 540.676 665.745 548.887C666.962 550.111 668.362 551.137 669.896 551.928C671.729 552.891 673.791 553.333 675.857 553.207C677.924 553.081 679.917 552.392 681.619 551.213V551.213Z" fill="#A36468"/>
<path opacity="0.1" d="M681.619 551.213L680.144 574.926L671.097 575.686C670.899 575.79 670.693 575.879 670.481 575.952L669.896 564.427C669.896 564.427 678.479 561.196 678.852 561.013C679.224 560.831 669.896 557.508 669.896 557.508V551.996C671.735 552.95 673.8 553.38 675.867 553.242C677.934 553.104 679.923 552.403 681.619 551.213Z" fill="black"/>
<path opacity="0.1" d="M686.036 568.046C682.349 568.182 679.589 568.19 679.589 568.19L683.68 551.86L686.021 551.753C687.527 554.346 686.88 561.964 686.036 568.046Z" fill="black"/>
<path d="M670.634 557.486C670.634 557.486 679.954 560.808 679.589 560.99C679.224 561.173 670.634 564.404 670.634 564.404L671.28 577.047L683.923 576.355C683.923 576.355 688.538 553.335 684.569 551.023L670.634 550.377V557.486Z" fill="#67647E"/>
<path opacity="0.1" d="M615.362 572.622C615.362 572.622 612.222 575.572 609.638 576.355L615.362 572.622Z" fill="black"/>
<path opacity="0.1" d="M607.889 581.388C607.889 581.388 615.545 581.107 616.465 579.541C617.385 577.975 607.889 581.388 607.889 581.388Z" fill="black"/>
<path opacity="0.1" d="M604.103 592.366C604.567 592.366 613.789 591.074 614.161 589.873L604.103 592.366Z" fill="black"/>
<path opacity="0.1" d="M601.244 599.384C604.567 599.285 610.193 595.689 610.193 595.689L601.244 599.384Z" fill="black"/>
<path opacity="0.1" d="M622.745 601.224C622.745 601.224 642.77 601.224 643.69 597.536C644.61 593.849 622.745 601.224 622.745 601.224Z" fill="black"/>
<path opacity="0.1" d="M637.782 549.64C638.155 549.64 653.566 549.64 655.04 547.519C656.515 545.397 637.782 549.64 637.782 549.64Z" fill="black"/>
<path opacity="0.1" d="M620.813 489.214C620.938 489.968 621.005 490.73 621.011 491.495C621.011 492.344 620.935 493.191 620.783 494.026C620.478 495.613 619.999 497.16 619.354 498.641L619.194 499.014C618.966 499.546 618.723 500.063 618.472 500.58C617.342 502.884 616.009 505.082 614.488 507.149C611.018 511.757 607.005 515.93 602.537 519.579C601.761 520.233 600.978 520.879 600.188 521.517C600.188 520.803 600.226 520.392 600.226 520.392C600.226 520.392 601.518 516.234 604.932 507.932C607.516 501.644 613.332 499.265 616.001 498.489L614.625 497.318C616.016 491.639 618.487 488.803 620.456 487.435C620.578 487.997 620.722 488.59 620.813 489.214Z" fill="black"/>
<path opacity="0.1" d="M667.41 453.421C667.176 453.479 666.951 453.568 666.741 453.687C665.297 454.485 664.878 456.378 663.7 457.572C662.339 458.978 660.21 459.191 658.272 459.434C656.333 459.678 654.166 460.157 653.14 461.822C652.38 463.061 652.448 464.619 652.174 466.049C652.145 466.305 652.042 466.548 651.878 466.748C651.617 466.96 651.286 467.068 650.95 467.052C647.149 467.318 644.382 466.011 640.824 465.091C639.151 464.665 637.205 464.718 635.928 465.851C634.772 466.893 634.453 468.596 634.483 470.154V470.291C634.647 471.806 634.693 473.331 634.62 474.852C634.445 476.03 633.993 477.148 633.302 478.117C632.611 479.086 631.7 479.877 630.644 480.425C629.756 480.902 628.776 481.182 627.77 481.246C627.382 481.287 626.99 481.23 626.63 481.079C627.306 479.923 627.952 478.798 628.545 477.65C626.896 475.1 625.77 472.247 625.234 469.257C624.698 466.268 624.763 463.201 625.424 460.237C626.085 457.272 627.329 454.469 629.084 451.99C630.839 449.511 633.07 447.406 635.646 445.798C638.223 444.19 641.094 443.111 644.092 442.623C647.09 442.136 650.155 442.249 653.108 442.958C656.062 443.667 658.845 444.956 661.295 446.751C663.745 448.546 665.813 450.811 667.38 453.413L667.41 453.421Z" fill="black"/>
<path d="M673.675 450.501C673.396 451.124 672.958 451.661 672.405 452.06C670.672 453.185 668.185 451.946 666.376 452.949C664.924 453.748 664.513 455.641 663.335 456.834C661.982 458.241 659.853 458.454 657.907 458.697C655.96 458.94 653.809 459.419 652.775 461.084C652.015 462.323 652.091 463.874 651.809 465.311C651.783 465.569 651.68 465.813 651.513 466.011C651.251 466.221 650.921 466.329 650.585 466.315C646.784 466.581 644.017 465.266 640.459 464.353C638.794 463.928 636.847 463.981 635.57 465.114C634.293 466.246 634.095 467.866 634.118 469.424C634.276 470.98 634.324 472.545 634.263 474.107C633.999 475.784 633.183 477.324 631.943 478.483C630.703 479.642 629.111 480.352 627.42 480.501C627.174 480.538 626.922 480.526 626.681 480.465C626.439 480.403 626.212 480.294 626.014 480.144C625.794 479.906 625.635 479.62 625.55 479.308C623.018 472.192 623.041 464.292 619.97 457.389C619.474 456.405 619.045 455.389 618.685 454.348C618.624 454.135 618.563 453.915 618.517 453.694C618.427 453.255 618.366 452.811 618.335 452.364C618.021 452.409 617.723 452.532 617.468 452.721C617.378 452.798 617.296 452.885 617.225 452.98C616.79 453.707 616.568 454.542 616.586 455.39C616.018 464.895 616.942 474.43 619.323 483.649C620.05 485.951 620.492 488.333 620.639 490.742C620.554 493.347 619.933 495.907 618.814 498.261C614.047 509.254 604.468 517.306 594.942 524.581C595.921 523.532 596.676 522.295 597.162 520.945C597.648 519.595 597.855 518.16 597.77 516.728C597.606 517.275 597.294 517.766 596.869 518.147C596.443 518.528 595.921 518.784 595.36 518.887C594.233 519.078 593.081 519.06 591.961 518.834C593.421 518.355 593.991 516.637 594.356 515.146C595.101 512.105 595.793 509.037 596.432 505.94C597.112 502.984 597.56 499.979 597.77 496.953C597.884 494.384 597.686 491.806 597.58 489.229C597.354 482.162 597.608 475.088 598.34 468.056C598.903 461.974 599.921 455.397 604.384 451.246C606.311 449.619 608.461 448.277 610.77 447.263C610.77 446.502 616.343 444.982 617.081 444.875C617.387 444.816 617.697 444.78 618.008 444.769C618.406 444.711 618.813 444.781 619.169 444.968C619.526 445.155 619.814 445.45 619.992 445.81C620.266 445.316 620.57 444.83 620.889 444.366C621.329 443.728 621.811 443.121 622.334 442.549C625.231 439.356 628.986 437.105 632.339 434.399C633.57 433.295 634.904 432.312 636.323 431.464C638.179 430.531 640.215 430.012 642.291 429.944C645.723 429.75 649.157 430.289 652.364 431.525C656.987 433.304 661.024 436.497 665.806 437.79C666.986 438.045 668.151 438.368 669.295 438.755C670.392 439.189 671.386 439.848 672.213 440.689C673.04 441.531 673.682 442.536 674.098 443.64C674.513 444.744 674.692 445.923 674.625 447.101C674.557 448.279 674.244 449.429 673.705 450.478L673.675 450.501Z" fill="#444053"/>
<g opacity="0.1">
<path d="M596.683 518.598C597.237 517.171 597.473 515.64 597.374 514.113C597.208 514.66 596.895 515.15 596.468 515.531C596.042 515.912 595.519 516.168 594.957 516.272C594.667 516.341 594.372 516.385 594.075 516.401C593.695 517.617 593.094 518.788 591.931 519.168C593.05 519.397 594.202 519.418 595.329 519.229C595.818 519.11 596.278 518.896 596.683 518.598Z" fill="black"/>
<path d="M674.222 444.442C674.166 445.644 673.855 446.821 673.31 447.894C673.022 448.502 672.582 449.025 672.032 449.414C670.307 450.539 667.813 449.308 666.004 450.304C664.559 451.102 664.141 453.003 662.962 454.189C661.602 455.595 659.473 455.816 657.534 456.051C655.596 456.287 653.429 456.811 652.402 458.438C651.642 459.678 651.711 461.236 651.437 462.665C651.431 462.815 651.394 462.962 651.327 463.096C651.261 463.231 651.167 463.35 651.051 463.445C650.936 463.54 650.801 463.61 650.657 463.65C650.512 463.69 650.361 463.699 650.213 463.677C646.412 463.943 643.644 462.627 640.086 461.708C638.414 461.282 636.467 461.335 635.19 462.468C634.034 463.517 633.715 465.212 633.746 466.779C633.905 468.332 633.951 469.894 633.882 471.454C633.628 473.135 632.815 474.682 631.573 475.843C630.331 477.005 628.734 477.714 627.04 477.856C626.794 477.891 626.543 477.878 626.301 477.817C626.06 477.756 625.833 477.647 625.634 477.498C625.414 477.258 625.255 476.969 625.17 476.654C622.638 469.538 622.653 461.639 619.582 454.744C619.094 453.757 618.667 452.742 618.305 451.702C618.111 451.057 617.991 450.391 617.947 449.718C617.511 449.77 617.112 449.991 616.837 450.334C616.41 451.065 616.189 451.898 616.199 452.744C615.845 458.836 616.099 464.949 616.959 470.99C616.409 465.906 616.285 460.784 616.586 455.679C616.569 454.831 616.79 453.996 617.225 453.269C617.358 453.096 617.525 452.952 617.716 452.846C617.907 452.74 618.118 452.674 618.335 452.653C618.377 453.325 618.494 453.991 618.685 454.637C619.048 455.677 619.477 456.693 619.97 457.678C623.011 464.581 623.011 472.473 625.55 479.589C625.639 479.903 625.801 480.192 626.021 480.433C626.214 480.594 626.437 480.715 626.677 480.787C626.918 480.859 627.171 480.88 627.42 480.851C629.111 480.702 630.703 479.991 631.943 478.833C633.183 477.674 633.999 476.134 634.263 474.457C634.324 472.895 634.276 471.33 634.118 469.774C634.118 468.208 634.415 466.512 635.57 465.463C636.847 464.308 638.794 464.262 640.459 464.703C644.017 465.615 646.769 466.931 650.585 466.664C650.921 466.678 651.251 466.57 651.513 466.36C651.68 466.159 651.783 465.913 651.809 465.653C652.091 464.224 652.007 462.665 652.775 461.434C653.809 459.769 655.968 459.282 657.907 459.039C659.845 458.796 661.982 458.59 663.343 457.184C664.491 455.99 664.901 454.097 666.384 453.291C668.186 452.295 670.679 453.535 672.413 452.41C672.966 452.011 673.404 451.473 673.682 450.851C674.682 448.864 674.876 446.568 674.222 444.442V444.442Z" fill="black"/>
<path d="M620.274 488.15C620.19 490.754 619.571 493.313 618.457 495.669C614.192 505.499 606.072 512.98 597.595 519.647C597.236 521.636 596.319 523.482 594.949 524.969C604.468 517.701 614.062 509.65 618.822 498.656C619.94 496.302 620.562 493.742 620.646 491.137C620.628 490.025 620.498 488.917 620.259 487.83C620.266 487.906 620.274 488.028 620.274 488.15Z" fill="black"/>
</g>
<path opacity="0.1" d="M621.224 444.358C620.54 447.506 619.597 451.596 618.89 453.702C618.803 453.262 618.742 452.818 618.707 452.372C618.396 452.417 618.1 452.54 617.848 452.729C617.848 450.516 618.114 447.225 618.343 444.761C618.742 444.703 619.15 444.772 619.507 444.959C619.865 445.146 620.155 445.442 620.334 445.803C620.578 445.316 620.905 444.83 621.224 444.358Z" fill="black"/>
<path d="M620.859 444.358C620.175 447.506 619.232 451.596 618.525 453.702C618.434 453.263 618.373 452.819 618.343 452.372C618.028 452.416 617.73 452.539 617.476 452.729C617.476 450.516 617.742 447.225 617.978 444.761C618.376 444.703 618.782 444.773 619.139 444.96C619.495 445.147 619.783 445.442 619.962 445.803C620.236 445.316 620.578 444.83 620.859 444.358Z" fill="#67647E"/>
</g>
<defs>
<linearGradient id="paint0_linear_119_629" x1="208.378" y1="542.904" x2="414.638" y2="542.904" gradientUnits="userSpaceOnUse">
<stop stop-color="#808080" stop-opacity="0.25"/>
<stop offset="0.54" stop-color="#808080" stop-opacity="0.12"/>
<stop offset="1" stop-color="#808080" stop-opacity="0.1"/>
</linearGradient>
<linearGradient id="paint1_linear_119_629" x1="677.37" y1="674.049" x2="677.37" y2="428.788" gradientUnits="userSpaceOnUse">
<stop stop-color="#808080" stop-opacity="0.25"/>
<stop offset="0.54" stop-color="#808080" stop-opacity="0.12"/>
<stop offset="1" stop-color="#808080" stop-opacity="0.1"/>
</linearGradient>
<clipPath id="clip0_119_629">
<rect width="885" height="422.653" fill="white" transform="translate(80 268)"/>
</clipPath>
</defs>
</svg>
