<svg width="80" height="80" viewBox="0 0 80 80" fill="none" xmlns="http://www.w3.org/2000/svg">
<rect width="80" height="80" rx="10" fill="#548AE2"/>
<path d="M18.6733 40.4711C17.7614 39.5262 17.7881 38.0209 18.733 37.109L24.5311 31.513C25.476 30.601 26.9813 30.6277 27.8932 31.5726L44.7026 48.9892L37.1936 56.2364C36.2487 57.1484 34.7434 57.1217 33.8314 56.1768L18.6733 40.4711Z" fill="white"/>
<path opacity="0.4" d="M53.3207 24.3951C54.2656 23.4831 55.7709 23.5098 56.6829 24.4547L61.5135 29.4598C62.4254 30.4047 62.3987 31.91 61.4538 32.822L37.1936 56.2364C36.2487 57.1484 34.7434 57.1216 33.8314 56.1767L27.3496 49.4608L53.3207 24.3951Z" fill="white"/>
</svg>
