<svg width="18" height="18" viewBox="0 0 18 18" fill="none" xmlns="http://www.w3.org/2000/svg">
<path opacity="0.4" d="M15.9167 12.0915C15.9167 14.0677 14.33 15.6685 12.3538 15.6756H12.3467H5.32708C3.35792 15.6756 1.75 14.0819 1.75 12.1056V12.0985C1.75 12.0985 1.75425 8.96345 1.75992 7.3867C1.76063 7.09062 2.10063 6.92487 2.33225 7.10903C4.01525 8.44424 7.02496 10.8788 7.0625 10.9107C7.56542 11.3137 8.20292 11.5411 8.85458 11.5411C9.50625 11.5411 10.1438 11.3137 10.6467 10.9029C10.6842 10.8781 13.6266 8.51649 15.3351 7.15933C15.5675 6.97445 15.9089 7.1402 15.9096 7.43558C15.9167 9.00029 15.9167 12.0915 15.9167 12.0915" fill="#6E7883"/>
<path d="M15.5456 4.81938C14.9322 3.66338 13.7252 2.92529 12.3964 2.92529H5.3272C3.99837 2.92529 2.79137 3.66338 2.17795 4.81938C2.04054 5.07792 2.1057 5.40021 2.3345 5.58296L7.59387 9.78975C7.9622 10.0873 8.40845 10.2353 8.8547 10.2353C8.85754 10.2353 8.85966 10.2353 8.86179 10.2353C8.86391 10.2353 8.86675 10.2353 8.86887 10.2353C9.31512 10.2353 9.76137 10.0873 10.1297 9.78975L15.3891 5.58296C15.6179 5.40021 15.683 5.07792 15.5456 4.81938" fill="#6E7883"/>
</svg>
