<svg width="24" height="24" viewBox="0 0 24 24" fill="none" xmlns="http://www.w3.org/2000/svg">
<g id="Iconly/Bulk/Call Silent">
<g id="Call Silent">
<g id="Group">
<path id="Stroke 1" fill-rule="evenodd" clip-rule="evenodd" d="M6.18522 14.2053C-0.246263 6.91817 2.96948 4.73954 3.25403 4.38538C6.32274 1.27306 6.79875 2.6897 9.2095 5.13663C11.2405 7.20794 8.60761 8.1953 9.68657 10.653L6.18522 14.2053Z" fill="#717171"/>
<path id="Stroke 3" fill-rule="evenodd" clip-rule="evenodd" d="M12.0903 13.3824C15.3705 16.0762 16.2957 12.2234 18.6191 14.5844C21.0162 17.0314 22.3945 17.5251 19.3551 20.6267C18.9976 20.9379 16.6952 24.4688 8.79965 16.7416L12.0903 13.3824Z" fill="#717171"/>
</g>
<path id="Fill 6" opacity="0.4" d="M21.3748 3.85933V3.86949L11.9586 13.5151L3.44438 22.2459C3.27588 22.4085 3.06774 22.5 2.84968 22.5C2.63162 22.5 2.42347 22.4085 2.24506 22.2459C1.96753 21.9512 1.92788 21.5141 2.1162 21.1889L2.14594 21.1482C2.16576 21.1167 2.18559 21.0872 2.21532 21.0567L20.1755 2.62949C20.3242 2.46687 20.5422 2.36421 20.7702 2.36421C20.9982 2.36421 21.2162 2.46687 21.3748 2.62949C21.7019 2.97507 21.7019 3.51375 21.3748 3.85933" fill="#717171"/>
</g>
</g>
</svg>
