<svg width="24" height="24" viewBox="0 0 24 24" fill="none" xmlns="http://www.w3.org/2000/svg">
<g id="Iconly/Bulk/Discovery">
<g id="Discovery">
<path id="Fill 1" opacity="0.4" d="M21.9999 11.9999C21.9999 17.5229 17.5229 21.9999 11.9999 21.9999C6.47688 21.9999 1.99988 17.5229 1.99988 11.9999C1.99988 6.4779 6.47688 1.9999 11.9999 1.9999C17.5229 1.9999 21.9999 6.4779 21.9999 11.9999" fill="#717171"/>
<path id="Fill 4" d="M15.8598 8.7049L14.2398 13.8249C14.1798 14.0349 14.0098 14.2049 13.7998 14.2659L8.69978 15.8649C8.35978 15.9759 8.02978 15.6449 8.13978 15.3049L9.73978 10.1749C9.79978 9.9649 9.96978 9.8049 10.1798 9.7349L15.2998 8.1349C15.6498 8.0249 15.9698 8.3549 15.8598 8.7049" fill="#717171"/>
</g>
</g>
</svg>
