<svg width="24" height="24" viewBox="0 0 24 24" fill="none" xmlns="http://www.w3.org/2000/svg">
<g id="Iconly/Bulk/Paper Fail">
<g id="Paper Fail">
<path id="Fill 3" opacity="0.4" d="M18.8089 9.021C18.3574 9.021 17.7594 9.011 17.0149 9.011C15.199 9.011 13.7059 7.508 13.7059 5.675V2.459C13.7059 2.206 13.503 2 13.2525 2H7.96337C5.49604 2 3.5 4.026 3.5 6.509V17.284C3.5 19.889 5.59109 22 8.1703 22H16.0455C18.5059 22 20.5 19.987 20.5 17.502V9.471C20.5 9.217 20.298 9.012 20.0465 9.013C19.6238 9.016 19.1168 9.021 18.8089 9.021" fill="#717171"/>
<path id="Fill 1" opacity="0.4" d="M16.084 2.5673C15.786 2.2563 15.263 2.4703 15.263 2.9013V5.5383C15.263 6.6443 16.174 7.5543 17.28 7.5543C17.977 7.5623 18.945 7.5643 19.767 7.5623C20.188 7.5613 20.402 7.0583 20.11 6.7543C19.055 5.6573 17.166 3.6913 16.084 2.5673" fill="#717171"/>
<path id="Fill 6" d="M12.935 12.9853L14.156 11.7633C14.447 11.4733 14.447 11.0023 14.156 10.7113C13.865 10.4203 13.394 10.4203 13.103 10.7113L11.882 11.9313L10.661 10.7113C10.37 10.4203 9.898 10.4203 9.607 10.7113C9.316 11.0023 9.316 11.4733 9.607 11.7633L10.829 12.9853L9.607 14.2063C9.316 14.4973 9.316 14.9683 9.607 15.2583C9.753 15.4043 9.943 15.4773 10.134 15.4773C10.325 15.4773 10.515 15.4043 10.661 15.2583L11.882 14.0383L13.103 15.2583C13.248 15.4043 13.439 15.4773 13.63 15.4773C13.82 15.4773 14.011 15.4043 14.156 15.2583C14.447 14.9683 14.447 14.4973 14.156 14.2063L12.935 12.9853Z" fill="#717171"/>
</g>
</g>
</svg>
